<?xml version="1.0" encoding="utf-8"?>
<!-- Generator: Adobe Illustrator 21.0.2, SVG Export Plug-In . SVG Version: 6.00 Build 0)  -->
<svg version="1.1" id="Layer_1" xmlns="http://www.w3.org/2000/svg" xmlns:xlink="http://www.w3.org/1999/xlink" x="0px" y="0px"
	 viewBox="0 0 223.5 236" style="enable-background:new 0 0 223.5 236;" xml:space="preserve">
<style type="text/css">
	.st0{fill-rule:evenodd;clip-rule:evenodd;fill:#E42F28;}
	.st1{fill:url(#SVGID_1_);}
	.st2{fill:#478DCB;}
	.st3{fill:url(#SVGID_2_);}
	.st4{fill:#FFFFFF;}
</style>
<path class="st0" d="M212.9,119.6c-0.1,0-0.1,0.4-0.3,0.1l0,0c0.1-0.6,0.1-1.2-0.1-1.8c0-0.2,0-0.3,0-0.5c0.1-1.4-0.1-2.8-0.2-4.2
	c-0.2-2.2-0.5-4.4-0.8-6.7c-0.3-2-0.6-4-1-6l0,0c-0.1-0.6-0.3-1.1-0.4-1.7c-0.1-0.1-0.1-0.3-0.1-0.5c-0.4-1.6-0.8-3.1-1.2-4.7l0,0
	c-0.3-0.6-0.3-1.2-0.5-1.7l0,0c-0.2-0.6-0.5-1.2-0.6-1.9c-0.2-0.1,0-0.4-0.2-0.5c-0.1-0.1,0-0.2-0.1-0.3l0,0
	c-0.4-0.7-0.6-1.6-0.8-2.3l0,0c-0.3-0.4-0.3-0.9-0.5-1.3l0,0c-0.1-0.2-0.1-0.5-0.3-0.7c-0.1-0.2-0.2-0.4-0.2-0.6
	c-0.2-0.5-0.4-0.9-0.6-1.4l0,0c-0.7-1.4-1.3-3-1.9-4.4l0,0c-0.5-0.8-0.9-1.7-1.2-2.5l0,0c-0.3-0.4-0.4-0.9-0.7-1.3c0,0,0-0.1,0-0.1
	c-0.5-0.9-1.1-1.8-1.5-2.8l0,0c-0.4-0.6-0.7-1.3-1.1-1.8c-0.1-0.2-0.2-0.5-0.4-0.7c-0.3-0.4-0.5-0.9-0.7-1.3l0,0
	c-0.2-0.2-0.3-0.5-0.5-0.8c0-0.1-0.1-0.2-0.1-0.3c-0.8-1.1-1.6-2.3-2.4-3.5c0,0-0.1-0.1-0.1-0.1c-0.2-0.2-0.2-0.4-0.4-0.6l0,0
	c-0.2-0.1-0.3-0.3-0.3-0.5l0,0c-0.3-0.4-0.7-0.8-1-1.3l0,0c-0.6-0.9-1.4-1.7-2-2.6l0,0c-0.7-0.7-1.3-1.5-1.9-2.3l0,0
	c-0.2-0.1-0.4-0.3-0.5-0.6l0,0c-0.4-0.3-0.6-0.7-1-1c0,0-0.1-0.1-0.1-0.1c-0.2,0-0.2-0.2-0.2-0.3l0,0c-0.3-0.2-0.5-0.4-0.7-0.7
	c0,0-0.1-0.1-0.1-0.1c-0.4-0.3-0.6-0.7-1-1c0,0-0.1-0.1-0.1-0.1c-0.7-0.8-1.5-1.5-2.2-2.3c-0.1-0.1-0.2-0.2-0.4-0.4
	c-0.4-0.3-0.6-0.8-1-1.1l0,0c-0.4-0.3-0.7-0.6-1-0.9l0,0c-0.8-0.5-1.4-1.3-2.1-1.8c-0.2-0.2-0.4-0.4-0.6-0.6
	c-0.3-0.2-0.5-0.4-0.7-0.6l0,0c-0.5-0.4-1.1-0.8-1.5-1.3l0,0c-0.3-0.2-0.6-0.4-0.8-0.7l0,0c-0.2-0.1-0.3-0.2-0.5-0.4l0,0
	c-0.6-0.3-1-0.8-1.5-1.2l0,0c-0.3-0.3-0.6-0.5-1-0.7l0,0c-0.7-0.5-1.5-1-2.2-1.6c-0.2-0.3-0.6-0.3-0.8-0.6l0,0
	c-0.5-0.4-1.1-0.6-1.5-1.1l0,0c-0.2-0.1-0.4-0.1-0.5-0.3l0,0c-0.2-0.1-0.4-0.2-0.6-0.3c-0.2-0.2-0.5-0.3-0.7-0.5
	c-0.3-0.2-0.7-0.3-0.9-0.6l0,0c-0.5-0.2-0.9-0.5-1.3-0.8c-0.2-0.1-0.4-0.2-0.6-0.3c-0.2-0.1-0.4-0.1-0.6-0.3c-0.1,0-0.2-0.1-0.2-0.1
	c-1.4-0.7-2.8-1.6-4.3-2.3c-0.1-0.1-0.3-0.1-0.4-0.3l0,0c-0.9-0.4-1.8-0.8-2.6-1.3c-0.2-0.1-0.3-0.1-0.5-0.2c-1.2-0.5-2.4-1-3.6-1.5
	c-0.1-0.1-0.3-0.1-0.4-0.2l0,0c-0.2-0.1-0.3-0.1-0.5-0.2l0,0c-0.3-0.2-0.6-0.2-0.9-0.3l0,0c-0.3-0.1-0.6-0.2-0.9-0.3l0,0
	c-0.2-0.1-0.4-0.1-0.6-0.2l0,0c-0.8-0.2-1.6-0.5-2.3-0.8c-0.2-0.1-0.4-0.1-0.6-0.2c-0.1,0-0.2-0.1-0.3-0.1c-0.2-0.1-0.5-0.1-0.7-0.2
	l0,0c-0.2-0.1-0.5-0.1-0.7-0.2c-0.4-0.1-0.7-0.2-1.1-0.3c-1.2-0.4-2.3-0.6-3.5-1l0,0c-0.2-0.1-0.3,0-0.5-0.1
	c-0.1-0.1-0.3,0.1-0.5-0.1c-0.3-0.1-0.6-0.1-0.8-0.2l0,0c-0.2-0.1-0.4,0.1-0.6-0.1l0,0c-0.3-0.1-0.6-0.1-0.8-0.2l0,0
	c-0.2-0.1-0.4,0.1-0.6-0.1l0,0c-2.5-0.5-5-1-7.5-1.4l0,0c-0.3-0.1-0.6,0.1-0.8-0.1l0,0c-0.2-0.1-0.5,0.1-0.7-0.1l0,0
	c-0.3-0.2-0.7,0.1-1.1-0.1l0,0c-0.6-0.1-1.3-0.1-1.9-0.2l0,0c-2.4-0.2-4.7-0.4-7.1-0.4c-1.9,0-3.8-0.1-5.8,0
	c-2.3,0.1-4.6,0.2-6.8,0.4c-1.8,0.2-3.6,0.4-5.4,0.6l0,0c-0.5,0.1-1.1,0.2-1.6,0.3l0,0c-1.3,0.2-2.6,0.5-3.9,0.8
	c-1.6,0.3-3.3,0.7-4.9,1.1l0,0c-0.3,0.1-0.7,0.1-1.1,0.3c-0.2,0-0.3,0-0.4,0.1c-0.3,0.1-0.5,0.2-0.8,0.2c-0.2-0.1-0.3,0.2-0.5,0.2
	c-1.3,0.5-2.6,0.8-3.9,1.2C80,25.9,79.7,26,79.5,26l0,0c-0.4,0.2-0.9,0.3-1.3,0.5l0,0c-1.2,0.5-2.4,1-3.6,1.3l0,0
	c-0.3,0.2-0.6,0.3-0.9,0.4l0,0c-0.3,0.2-0.7,0.4-1.1,0.5l0,0c-0.2,0.1-0.4,0.2-0.6,0.2l0,0c-0.7,0.2-1.2,0.7-1.9,0.8l0,0
	c-0.6,0.3-1.2,0.6-1.8,0.8c-0.1,0-0.3,0-0.2-0.2c2.3-2,4.7-4,7.1-5.8c2.9-2.1,5.9-4,9-5.8c1.4-0.8,2.9-1.5,4.4-2.3
	c1.8-0.9,3.6-1.7,5.5-2.4c1.7-0.7,3.4-1.3,5.1-1.9c1.9-0.6,3.8-1.2,5.8-1.7c2.2-0.6,4.5-1,6.7-1.5c1.5-0.3,3.1-0.5,4.6-0.7
	c1.4-0.2,2.8-0.3,4.2-0.4c1.2-0.1,2.4-0.1,3.6-0.2c1.6,0,3.2,0,4.8,0c2.8,0.1,5.6,0.3,8.4,0.6c2.6,0.3,5.1,0.7,7.6,1.2
	c7.1,1.4,13.8,3.7,20.3,6.8c5.9,2.8,11.4,6.2,16.6,10.3c4.2,3.3,8.1,7,11.7,11c1.9,2.2,3.7,4.4,5.4,6.7c2.1,2.9,4,5.9,5.8,9
	c0.8,1.4,1.5,2.9,2.3,4.4c1.1,2.3,2.1,4.6,3,6.9c0.9,2.3,1.6,4.6,2.3,6.9c0.5,1.7,1,3.5,1.4,5.2c0.7,2.9,1.2,5.7,1.5,8.7
	c0.3,2,0.4,4,0.5,6c0,1.1,0.2,2.2,0.1,3.3c0.1,0.6,0,1.3,0,2c0,0.7,0.1,1.3,0,2c0,2.2-0.2,4.4-0.4,6.6c-0.4,3.5-0.9,7-1.7,10.5
	C213.5,117.1,213.2,118.4,212.9,119.6z"/>
<linearGradient id="SVGID_1_" gradientUnits="userSpaceOnUse" x1="100.8536" y1="-112.9203" x2="-14.585" y2="-329.455" gradientTransform="matrix(1 0 0 -1 0 26.8071)">
	<stop  offset="0" style="stop-color:#E42F28"/>
	<stop  offset="1" style="stop-color:#B32025"/>
</linearGradient>
<path class="st1" d="M199,116.6c0.1,0.8,0.3,1.5,0.4,2.3c0.3,2.2,0.7,4.5,0.9,6.7c0.2,2.4,0.3,4.8,0.4,7.2c0,2.5,0,5-0.2,7.6
	c-0.1,1.8-0.3,3.7-0.6,5.5c-0.3,2.2-0.7,4.4-1.2,6.6c-0.5,2.1-0.9,4.3-1.6,6.3c-0.9,2.8-1.9,5.5-2.9,8.2c-0.6,1.6-1.4,3.1-2.1,4.6
	c-0.8,1.7-1.7,3.4-2.6,5c-1.3,2.2-2.7,4.3-4.1,6.4c-1.5,2.1-3,4.2-4.6,6.1c-1.8,2.1-3.7,4-5.6,5.9c-1.1,1.2-2.3,2.3-3.6,3.3
	c-1.6,1.3-3.1,2.6-4.8,3.8c-1.6,1.2-3.3,2.4-5,3.4c-2.1,1.3-4.2,2.5-6.4,3.6c-2.5,1.3-5,2.4-7.6,3.6c-1.5,0.7-3.1,1.1-4.6,1.7
	c-1.8,0.6-3.5,1.2-5.3,1.7c-1.5,0.4-3,0.8-4.5,1.1c-1.8,0.4-3.6,0.7-5.4,1c-1.3,0.2-2.7,0.4-4,0.5c-2.2,0.2-4.3,0.4-6.5,0.5
	c-1.5,0.1-3,0.1-4.5,0.1c-1.6,0-3.3,0-4.9-0.1c-1.9-0.1-3.8-0.3-5.7-0.5c-1.9-0.2-3.9-0.5-5.8-0.8c-1.7-0.3-3.5-0.7-5.2-1.1
	c-2.4-0.6-4.8-1.2-7.2-1.9c-1.9-0.6-3.8-1.3-5.7-2.1c-1.5-0.6-3.1-1.2-4.5-1.8c-1.8-0.8-3.5-1.6-5.3-2.5c-1.9-1-3.9-2-5.8-3.1
	c-1.9-1.1-3.7-2.3-5.5-3.5c-1.5-1-2.9-2-4.3-3c-1-0.7-2-1.5-2.9-2.3c-1.9-1.6-3.8-3.2-5.6-4.9c-1.6-1.5-3.2-3.2-4.7-4.8
	c-1.4-1.5-2.8-2.9-4-4.5c-1.6-1.9-3-3.9-4.5-5.9c-1.3-1.8-2.6-3.7-3.7-5.6c-1.1-1.8-2.1-3.7-3.1-5.6c-0.8-1.5-1.6-3-2.3-4.5
	c-0.9-1.9-1.7-3.9-2.5-5.9c-0.6-1.4-1.1-2.9-1.6-4.3c-0.6-1.9-1.1-3.8-1.6-5.7c-0.5-2.1-1.1-4.1-1.5-6.2c-0.5-2.9-0.8-5.8-1.2-8.6
	c-0.4-3.5-0.5-6.9-0.4-10.4c0.1-2.6,0.3-5.1,0.6-7.7c0.2-2,0.5-3.9,0.9-5.9c0.4-2.1,0.8-4.2,1.3-6.3c0.6-2.3,1.4-4.5,2.1-6.7
	c0.5-1.4,1-2.7,1.5-4c0.5-1.3,1.1-2.6,1.7-3.8c1-2,2-4,3.1-5.9c1.3-2.2,2.7-4.3,4.2-6.4c1.4-2.1,3-4,4.5-6c0.5-0.6,1-1.1,1.5-1.7
	c1.1-1.2,2.2-2.4,3.4-3.6c1.5-1.5,3.1-2.9,4.8-4.3c1.8-1.5,3.6-3.1,5.6-4.4c2.6-1.8,5.2-3.4,7.9-5c2.2-1.2,4.5-2.3,6.8-3.3
	c2.2-1,4.5-1.9,6.8-2.8c0,0,0.1,0,0.2,0c-0.9,0.5-1.7,1-2.5,1.4c-4.2,2.4-8.1,5.3-11.7,8.5c-4.3,3.8-8.1,8-11.4,12.6
	c-3.5,4.9-6.4,10.2-8.7,15.8c-2.4,5.9-3.9,11.9-4.8,18.2c-0.7,5.1-0.9,10.3-0.5,15.5c0.3,4.4,0.9,8.7,1.9,13
	c0.8,3.2,1.7,6.4,2.8,9.6c1.5,4.2,3.3,8.2,5.4,12.1c1.8,3.4,3.9,6.6,6.1,9.7c2.9,4,6.1,7.8,9.6,11.3c0.1,0.1,0.1,0.1,0.3,0.2
	c0.1-0.3,22.6-67.2,22.6-67.2l61,40.9c0,0-51,47-51,47c0,0,1.1,0.4,1.6,0.6c6.2,2.2,12.5,3.7,19,4.5c5.5,0.7,11,0.9,16.4,0.4
	c3.3-0.3,6.5-0.7,9.8-1.2c2.3-0.4,4.5-1,6.7-1.6c4.6-1.2,9-2.9,13.2-4.9c5.9-2.8,11.3-6.3,16.2-10.5c4-3.4,7.6-7.1,10.8-11.3
	c3-3.9,5.7-8.1,7.9-12.6c2.5-4.9,4.3-10.1,5.7-15.4c1.1-4.3,1.8-8.6,2-13C199,122.6,198.9,119.6,199,116.6
	C199,116.6,199,116.6,199,116.6L199,116.6z"/>
<g>
	<g id="XMLID_1_">
		<g>
			<path class="st2" d="M206,128.2L206,128.2c0,1.2-0.1,2.4,0,3.6c-0.2,0.5,0,1.1-0.1,1.7c-0.1,1.5-0.2,3-0.3,4.6
				c-0.2,1.5-0.3,3.1-0.5,4.6c-0.1,0.7-0.2,1.4-0.3,2.1c-0.1,0.7-0.4,1.5-0.3,2.2c0,0.3-0.1,0.5-0.2,0.8c-0.6,3.2-1.4,6.3-2.3,9.4
				c-0.4,1.5-0.9,3-1.4,4.4c-0.4,1.2-0.9,2.4-1.3,3.7c-0.4,1.3-1.1,2.5-1.6,3.7c-0.8,2-1.8,3.9-2.8,5.9c-1.4,2.7-2.9,5.3-4.5,7.9
				c-0.9,1.4-1.8,2.8-2.8,4.1c-0.7,1-1.5,2-2.3,3c-0.7,0.9-1.3,1.8-2,2.6c-0.9,1-1.7,2.1-2.7,3.1c-1,1.2-2.1,2.3-3.2,3.4
				c-0.9,1-1.9,1.9-2.9,2.8c-0.8,0.8-1.6,1.6-2.5,2.3c-1.3,1.1-2.6,2.3-4,3.3c-0.8,0.6-1.5,1.2-2.3,1.8c-1.2,1-2.5,1.8-3.8,2.7
				c-1.5,1-3,1.9-4.6,2.8c-1.9,1.1-3.8,2.2-5.8,3.2c-2.5,1.3-5.2,2.4-7.8,3.5c-1.8,0.7-3.6,1.3-5.4,2c-1.8,0.6-3.6,1.1-5.4,1.7
				c-2.1,0.6-4.2,1.1-6.3,1.5c-1.6,0.3-3.3,0.6-5,0.9c-2.6,0.4-5.2,0.7-7.8,0.9c-2.1,0.2-4.2,0.2-6.4,0.3c-2.1,0-4.1-0.1-6.2-0.2
				c-1.3-0.1-2.7-0.2-4-0.3c-1.6-0.2-3.3-0.4-4.9-0.6c-0.5,0-1-0.2-1.5-0.3c-1.1-0.2-2.2-0.4-3.4-0.6c-2.7-0.5-5.4-1.2-8.1-2
				c-1.5-0.4-3-0.9-4.6-1.4c-1.2-0.4-2.4-0.9-3.7-1.3c-1.1-0.4-2.1-0.9-3.1-1.3c-1.2-0.5-2.3-1-3.5-1.5c-0.6-0.2-1.1-0.6-1.7-0.8
				c-3.1-1.5-6-3.2-8.9-5c-1.8-1.2-3.7-2.4-5.4-3.7c-1.6-1.2-3.2-2.4-4.8-3.7c-1-0.8-2-1.7-2.9-2.5c-2-1.9-4-3.7-5.9-5.7
				c-1-1-2-2-2.9-3.1c-1-1.3-2-2.4-3-3.7c-1.1-1.4-2.2-2.8-3.2-4.2c-0.7-1.1-1.5-2.1-2.2-3.2c-1.1-1.8-2.2-3.6-3.2-5.4
				c-1.1-1.9-2.1-3.8-3-5.8c-0.9-1.8-1.6-3.7-2.4-5.5c-0.8-1.8-1.3-3.6-2-5.4c-0.6-1.8-1.2-3.5-1.6-5.3c-0.5-1.8-1-3.6-1.3-5.4
				c-0.4-1.9-0.7-3.8-1-5.8c-0.4-2.6-0.6-5.2-0.9-7.8c-0.2-1.4-0.1-2.9-0.2-4.3c0.1-0.5,0-1.1,0-1.6c0-1.1,0-2.3,0-3.4
				c0-0.8,0-1.6,0.1-2.5c0.1-1.2,0.1-2.4,0.3-3.6c0.2-1.1,0.2-2.2,0.4-3.2c0.1-1.2,0.3-2.3,0.5-3.5c0.1-0.7,0.3-1.4,0.3-2.2
				c0-0.3,0.1-0.6,0.2-0.9c0.6-3.1,1.4-6.1,2.2-9.2c0.4-1.5,1-3,1.4-4.6c0.4-1.2,0.9-2.5,1.3-3.7c0.4-1.1,0.9-2.1,1.3-3.1
				c0.5-1.1,1-2.3,1.5-3.4c0.2-0.6,0.5-1.1,0.8-1.6c1.6-3.2,3.3-6.3,5.2-9.2c1.6-2.5,3.3-5,5.2-7.3c1.3-1.7,2.6-3.4,4.1-5
				c1-1.2,2.1-2.3,3.2-3.4c1.9-2.1,4-4,6.1-5.9c1.2-1.1,2.5-2.2,3.9-3.2c0.8-0.5,1.5-1.1,2.3-1.7c1-0.8,2.2-1.5,3.2-2.3
				c1.2-0.9,2.5-1.6,3.7-2.5c1.1-0.7,2.3-1.3,3.5-2c1.4-0.9,2.9-1.5,4.3-2.3c1.4-0.8,2.9-1.4,4.3-2c1.4-0.6,2.8-1.2,4.2-1.7
				c1.3-0.5,2.5-0.9,3.8-1.4c1-0.4,2.1-0.7,3.2-1c1.7-0.5,3.4-1,5.2-1.4c1.4-0.4,2.8-0.7,4.2-0.9c1.4-0.3,2.8-0.5,4.2-0.7
				c2.3-0.4,4.6-0.6,6.9-0.8c1.4-0.1,2.7-0.2,4.1-0.2c2-0.1,4-0.1,6-0.1c2.2,0.1,4.4,0.2,6.6,0.4c2,0.2,4,0.4,5.9,0.7
				c1.6,0.2,3.2,0.6,4.8,0.9c2.8,0.5,5.5,1.3,8.3,2c1.5,0.4,2.9,0.9,4.4,1.4c1.3,0.4,2.5,0.9,3.7,1.3c1.1,0.4,2.1,0.9,3.1,1.3
				c1.2,0.5,2.3,1,3.5,1.5c0.6,0.2,1.1,0.5,1.6,0.8c3.1,1.5,6.1,3.2,9,5.1c1.8,1.2,3.6,2.4,5.4,3.7c1.6,1.2,3.2,2.4,4.8,3.7
				c1,0.8,2,1.7,3,2.6c1.3,1.2,2.5,2.3,3.8,3.6c1.7,1.7,3.4,3.4,4.9,5.3c1,1.2,2.1,2.4,3,3.7c0.9,1.2,1.8,2.3,2.6,3.4
				c0.9,1.3,1.9,2.6,2.7,4c0.7,1.2,1.4,2.3,2.2,3.5c0.3,0.5,0.5,1,0.8,1.5c1.2,1.9,2.1,3.9,3.1,5.9c0.9,1.9,1.7,3.9,2.5,5.8
				c0.8,1.8,1.4,3.7,2.1,5.6c0.4,1.1,0.7,2.2,1,3.3c0.4,1.4,0.8,2.8,1.1,4.2c0.4,1.6,0.8,3.1,1.1,4.7c0.4,1.9,0.7,3.9,0.9,5.9
				c0.3,2.1,0.5,4.1,0.7,6.2C206,124.5,205.9,126.3,206,128.2z M169.7,191.2c18.8-19.3,27.2-42.6,24.9-69.5
				c-1.8-21.1-10.5-39.3-25.6-54.1c-17.1-16.7-37.8-25.3-61.7-25.3c-22.9,0-43,8-59.6,23.8c-18.2,17.3-27.1,38.7-27.6,63.6
				c0.5,24.2,8.7,45,25.8,61.9s37.9,25.6,62,25.6C132,217.1,152.9,208.4,169.7,191.2z"/>
		</g>
	</g>
</g>
<g id="Layer_2_1_">
	<g>
		
			<linearGradient id="SVGID_2_" gradientUnits="userSpaceOnUse" x1="98.7455" y1="623.5847" x2="46.4545" y2="570.7065" gradientTransform="matrix(0.9818 -0.1897 -0.1897 -0.9818 151.2605 724.1973)">
			<stop  offset="0" style="stop-color:#EF3C31"/>
			<stop  offset="0.4222" style="stop-color:#E22826"/>
			<stop  offset="0.8457" style="stop-color:#ED3F35"/>
		</linearGradient>
		<path class="st3" d="M142.2,138.8c0.5,2.6-1.2,5.2-3.9,5.7l-44.5,8.6c-2.6,0.5-5.2-1.2-5.7-3.9l-8.6-44.5
			c-0.5-2.6,1.2-5.2,3.9-5.7l44.5-8.6c2.6-0.5,5.2,1.2,5.7,3.9L142.2,138.8z"/>
	</g>
	<g>
		<path class="st4" d="M137.3,138c0.2,1.1-0.5,2.1-1.5,2.3l-41.1,7.9c-1.1,0.2-2.1-0.5-2.3-1.5l-7.9-41.1c-0.2-1.1,0.5-2.1,1.5-2.3
			l41.1-7.9c1.1-0.2,2.1,0.5,2.3,1.5L137.3,138z"/>
	</g>
</g>
</svg>
