<?xml version="1.0" encoding="utf-8"?>
<!-- Generator: Adobe Illustrator 21.0.2, SVG Export Plug-In . SVG Version: 6.00 Build 0)  -->
<svg version="1.1" xmlns="http://www.w3.org/2000/svg" xmlns:xlink="http://www.w3.org/1999/xlink" x="0px" y="0px"
	 viewBox="0 0 949 160" style="enable-background:new 0 0 949 160;" xml:space="preserve">
<style type="text/css">
	.st0{display:none;}
	.st1{display:inline;fill:#232323;}
	.st2{display:inline;fill-rule:evenodd;clip-rule:evenodd;fill:#B21217;}
	.st3{display:inline;fill-rule:evenodd;clip-rule:evenodd;fill:url(#SVGID_1_);stroke:url(#SVGID_2_);stroke-miterlimit:10;}
	.st4{display:inline;}
	.st5{fill:#0096FE;}
	.st6{display:inline;fill:#FFFFFF;stroke:url(#SVGID_3_);stroke-width:4;stroke-miterlimit:10;}
	.st7{fill:url(#SVGID_4_);}
	.st8{fill:url(#SVGID_5_);}
	.st9{fill:url(#SVGID_6_);}
	.st10{display:inline;fill:url(#SVGID_7_);}
	.st11{display:inline;fill:url(#SVGID_8_);}
	.st12{display:inline;fill:url(#SVGID_9_);}
	.st13{display:inline;fill:#0096FE;}
	.st14{fill:#E52D27;}
	.st15{fill-rule:evenodd;clip-rule:evenodd;fill:#E52D27;}
	.st16{fill:url(#SVGID_10_);}
	.st17{display:none;fill:url(#SVGID_11_);}
	.st18{display:none;fill:#FFFFFF;}
	.st19{fill:url(#SVGID_12_);}
	.st20{fill:#FFFFFF;}
</style>
<g id="Bitnova1.0" class="st0">
	<polygon class="st1" points="478,196 36,196 47.4,159 478,159 	"/>
	
		<text transform="matrix(1 0 0 1 57.5308 185.9053)" style="display:inline;fill:#FFFFFF; font-family:'HelveticaNeueLTStd-Lt'; font-size:27.0192px;">Tecnología versátil para tu negocio</text>
	<path class="st2" d="M-80.4,82.7c-0.1,0-0.1,0.3-0.2,0.1l0,0c0-0.5,0.1-0.9,0-1.4c0-0.1,0-0.2,0-0.4c0.1-1.1,0-2.2-0.1-3.2
		c-0.1-1.7-0.3-3.4-0.5-5.1c-0.2-1.5-0.4-3-0.7-4.5l0,0c-0.1-0.4-0.2-0.9-0.3-1.3c-0.1-0.1-0.1-0.2-0.1-0.4
		c-0.3-1.2-0.6-2.4-0.9-3.6l0,0c-0.2-0.4-0.2-0.9-0.4-1.3l0,0c-0.2-0.5-0.4-1-0.4-1.5c-0.2-0.1,0-0.3-0.1-0.4
		c-0.1-0.1,0-0.2-0.1-0.3l0,0c-0.3-0.6-0.4-1.2-0.6-1.8l0,0c-0.2-0.3-0.2-0.7-0.4-1l0,0c-0.1-0.2-0.1-0.4-0.2-0.5
		c-0.1-0.2-0.1-0.3-0.2-0.5c-0.2-0.3-0.3-0.7-0.4-1.1l0,0c-0.5-1.1-0.9-2.3-1.4-3.4l0,0c-0.3-0.6-0.6-1.3-0.9-1.9l0,0
		c-0.2-0.3-0.3-0.7-0.5-1c0,0,0-0.1,0-0.1c-0.4-0.7-0.8-1.4-1.1-2.1l0,0c-0.3-0.5-0.5-1-0.8-1.4c-0.1-0.2-0.2-0.4-0.3-0.5
		c-0.2-0.3-0.4-0.7-0.5-1l0,0c-0.1-0.2-0.3-0.4-0.4-0.6c0-0.1-0.1-0.1-0.1-0.2c-0.6-0.9-1.2-1.8-1.8-2.7c0,0,0-0.1-0.1-0.1
		c-0.1-0.1-0.2-0.3-0.3-0.4l0,0c-0.1-0.1-0.2-0.2-0.3-0.4l0,0c-0.3-0.3-0.5-0.6-0.7-1l0,0c-0.5-0.7-1.1-1.3-1.5-2l0,0
		c-0.5-0.6-1-1.1-1.4-1.8l0,0c-0.2-0.1-0.3-0.2-0.4-0.4l0,0c-0.3-0.2-0.5-0.5-0.7-0.8c0,0-0.1-0.1-0.1-0.1c-0.1,0-0.1-0.2-0.2-0.3
		l0,0c-0.2-0.1-0.4-0.3-0.5-0.5c0,0-0.1-0.1-0.1-0.1c-0.3-0.2-0.5-0.6-0.7-0.8c0,0-0.1-0.1-0.1-0.1c-0.5-0.6-1.1-1.2-1.7-1.8
		c-0.1-0.1-0.2-0.2-0.3-0.3c-0.3-0.2-0.5-0.6-0.8-0.8l0,0c-0.3-0.2-0.5-0.4-0.7-0.7l0,0c-0.6-0.4-1-1-1.6-1.4
		c-0.1-0.1-0.3-0.3-0.5-0.4c-0.2-0.1-0.3-0.3-0.5-0.5l0,0c-0.4-0.3-0.8-0.6-1.2-1l0,0c-0.2-0.2-0.5-0.3-0.6-0.5l0,0
		c-0.1-0.1-0.2-0.2-0.4-0.3l0,0c-0.4-0.3-0.8-0.6-1.2-0.9l0,0c-0.2-0.2-0.5-0.4-0.7-0.5l0,0c-0.6-0.4-1.1-0.8-1.7-1.3
		c-0.2-0.2-0.5-0.2-0.6-0.4l0,0c-0.3-0.3-0.8-0.5-1.1-0.8l0,0c-0.1-0.1-0.3-0.1-0.4-0.3l0,0c-0.2-0.1-0.3-0.2-0.5-0.3
		c-0.2-0.1-0.4-0.2-0.5-0.4c-0.2-0.2-0.5-0.3-0.7-0.5l0,0c-0.4-0.1-0.7-0.4-1-0.6c-0.2-0.1-0.3-0.2-0.5-0.3
		c-0.1-0.1-0.3-0.1-0.4-0.3c-0.1,0-0.1-0.1-0.2-0.1c-1.1-0.6-2.1-1.3-3.3-1.8c-0.1,0-0.2-0.1-0.3-0.2l0,0c-0.7-0.3-1.3-0.6-2-1
		c-0.1-0.1-0.2-0.1-0.4-0.2c-0.9-0.4-1.8-0.8-2.7-1.2c-0.1,0-0.2-0.1-0.3-0.2l0,0c-0.1-0.1-0.2-0.1-0.4-0.2h0
		c-0.2-0.1-0.5-0.1-0.7-0.3l0,0c-0.2-0.1-0.5-0.1-0.7-0.3l0,0c-0.1-0.1-0.3-0.1-0.4-0.2l0,0c-0.6-0.2-1.2-0.4-1.8-0.6
		c-0.2-0.1-0.3-0.1-0.5-0.1c-0.1,0-0.1-0.1-0.2-0.1c-0.2-0.1-0.4-0.1-0.5-0.2l0,0c-0.2,0-0.4-0.1-0.5-0.2c-0.3-0.1-0.5-0.2-0.8-0.3
		c-0.9-0.3-1.8-0.5-2.6-0.8l0,0c-0.1,0-0.3,0-0.4-0.1c-0.1-0.1-0.3,0-0.4-0.1c-0.2-0.1-0.4-0.1-0.6-0.2l0,0c-0.1-0.1-0.3,0-0.4-0.1
		l0,0c-0.2,0-0.4-0.1-0.6-0.2l0,0c-0.1-0.1-0.3,0-0.5-0.1l0,0c-1.9-0.4-3.8-0.8-5.7-1.2l0,0c-0.2-0.1-0.4,0-0.6-0.1l0,0
		c-0.2-0.1-0.4,0-0.5-0.1l0,0c-0.3-0.1-0.6,0.1-0.8-0.1l0,0c-0.5-0.1-1-0.1-1.4-0.2l0,0c-1.8-0.2-3.6-0.3-5.4-0.4
		c-1.5-0.1-2.9-0.1-4.4-0.1c-1.7,0-3.5,0.1-5.2,0.2c-1.4,0.1-2.7,0.3-4.1,0.4l0,0c-0.4,0.1-0.8,0.1-1.3,0.2l0,0c-1,0.2-2,0.4-3,0.5
		c-1.3,0.2-2.5,0.5-3.7,0.8l0,0c-0.3,0.1-0.6,0.1-0.8,0.2c-0.1,0-0.2,0-0.3,0.1c-0.2,0.1-0.4,0.2-0.6,0.2c-0.1-0.1-0.2,0.1-0.4,0.1
		c-1,0.3-2,0.6-3,0.9c-0.2,0.1-0.4,0.1-0.6,0.2l0,0c-0.3,0.2-0.7,0.2-1,0.3l0,0c-0.9,0.4-1.8,0.7-2.8,1l0,0
		c-0.2,0.2-0.5,0.2-0.7,0.3l0,0c-0.3,0.1-0.5,0.3-0.8,0.4l0,0c-0.1,0.1-0.3,0.1-0.5,0.2l0,0c-0.5,0.2-0.9,0.5-1.4,0.6l0,0
		c-0.4,0.2-0.9,0.4-1.3,0.6c-0.1,0-0.2,0-0.2-0.1c1.8-1.5,3.6-3,5.5-4.3c2.2-1.6,4.5-3,6.9-4.3c1.1-0.6,2.2-1.1,3.4-1.7
		c1.4-0.7,2.8-1.3,4.2-1.8c1.3-0.5,2.6-1,3.9-1.4c1.5-0.5,2.9-0.9,4.4-1.2c1.7-0.4,3.4-0.8,5.1-1.1c1.2-0.2,2.4-0.3,3.5-0.5
		c1.1-0.1,2.1-0.2,3.2-0.3c0.9-0.1,1.8-0.1,2.7-0.1c1.2,0,2.4,0,3.6,0c2.1,0.1,4.3,0.2,6.4,0.5c1.9,0.3,3.9,0.6,5.8,1
		c5.4,1.2,10.5,3,15.4,5.4c4.5,2.2,8.7,4.8,12.6,8c3.2,2.6,6.1,5.4,8.8,8.5c1.4,1.7,2.8,3.4,4.1,5.2c1.6,2.2,3,4.5,4.3,6.9
		c0.6,1.1,1.1,2.2,1.7,3.4c0.8,1.7,1.6,3.5,2.2,5.3c0.6,1.7,1.2,3.5,1.7,5.3c0.4,1.3,0.7,2.7,1,4c0.5,2.2,0.8,4.4,1.1,6.6
		c0.2,1.5,0.3,3.1,0.3,4.6c0,0.8,0.1,1.7,0,2.5c0.1,0.5,0,1,0,1.5c0,0.5,0,1,0,1.5c0,1.7-0.2,3.4-0.4,5.1c-0.3,2.7-0.8,5.3-1.4,8
		C-80,80.8-80.2,81.8-80.4,82.7z"/>
	<linearGradient id="SVGID_1_" gradientUnits="userSpaceOnUse" x1="-127.5429" y1="51.1514" x2="-205.4345" y2="143.979">
		<stop  offset="0" style="stop-color:#E52D27"/>
		<stop  offset="1" style="stop-color:#B31217"/>
	</linearGradient>
	<linearGradient id="SVGID_2_" gradientUnits="userSpaceOnUse" x1="-127.1022" y1="50.6262" x2="-205.7559" y2="144.362">
		<stop  offset="0" style="stop-color:#E52D27"/>
		<stop  offset="1" style="stop-color:#B31217"/>
	</linearGradient>
	<path class="st3" d="M-90.2,82.5c0.1,0.6,0.3,1.2,0.3,1.8c0.2,1.7,0.5,3.5,0.7,5.2c0.2,1.8,0.3,3.7,0.3,5.6c0,1.9,0,3.9-0.1,5.8
		c-0.1,1.4-0.2,2.8-0.5,4.2c-0.3,1.7-0.6,3.4-0.9,5.1c-0.3,1.6-0.7,3.3-1.2,4.9c-0.7,2.1-1.4,4.2-2.2,6.3c-0.5,1.2-1.1,2.4-1.6,3.5
		c-0.6,1.3-1.3,2.6-2,3.9c-1,1.7-2.1,3.3-3.2,4.9c-1.1,1.6-2.3,3.2-3.6,4.7c-1.4,1.6-2.9,3.1-4.4,4.6c-0.9,0.9-1.8,1.7-2.8,2.6
		c-1.2,1-2.4,2-3.7,2.9c-1.3,0.9-2.5,1.8-3.8,2.6c-1.6,1-3.3,1.9-4.9,2.8c-1.9,1-3.9,1.9-5.9,2.8c-1.2,0.5-2.4,0.9-3.6,1.3
		c-1.4,0.5-2.7,0.9-4.1,1.3c-1.2,0.3-2.3,0.6-3.5,0.8c-1.4,0.3-2.8,0.6-4.1,0.8c-1,0.2-2.1,0.3-3.1,0.4c-1.7,0.2-3.3,0.3-5,0.4
		c-1.2,0.1-2.3,0.1-3.5,0.1c-1.3,0-2.5,0-3.8-0.1c-1.5-0.1-2.9-0.2-4.4-0.4c-1.5-0.2-3-0.4-4.5-0.6c-1.3-0.2-2.7-0.5-4-0.9
		c-1.9-0.5-3.7-0.9-5.6-1.5c-1.5-0.5-3-1-4.4-1.6c-1.2-0.4-2.4-0.9-3.5-1.4c-1.4-0.6-2.7-1.3-4.1-1.9c-1.5-0.8-3-1.5-4.4-2.4
		c-1.4-0.9-2.8-1.8-4.2-2.7c-1.1-0.8-2.2-1.5-3.3-2.3c-0.8-0.6-1.5-1.2-2.3-1.8c-1.5-1.2-2.9-2.5-4.3-3.8c-1.3-1.2-2.5-2.4-3.7-3.7
		c-1.1-1.1-2.1-2.3-3.1-3.5c-1.2-1.5-2.3-3-3.4-4.5c-1-1.4-2-2.8-2.9-4.3c-0.9-1.4-1.6-2.9-2.4-4.3c-0.6-1.1-1.2-2.3-1.7-3.5
		c-0.7-1.5-1.3-3-1.9-4.5c-0.4-1.1-0.9-2.2-1.2-3.3c-0.5-1.4-0.9-2.9-1.3-4.4c-0.4-1.6-0.8-3.2-1.1-4.8c-0.4-2.2-0.6-4.4-0.9-6.7
		c-0.3-2.7-0.4-5.4-0.3-8c0.1-2,0.2-3.9,0.4-5.9c0.2-1.5,0.4-3,0.7-4.5c0.3-1.6,0.6-3.2,1-4.8c0.5-1.7,1.1-3.5,1.6-5.2
		c0.4-1,0.7-2.1,1.1-3.1c0.4-1,0.8-2,1.3-2.9c0.8-1.5,1.5-3.1,2.4-4.5c1-1.7,2.1-3.4,3.2-5c1.1-1.6,2.3-3.1,3.5-4.7
		c0.4-0.5,0.8-0.9,1.2-1.3c0.9-0.9,1.7-1.9,2.6-2.8c1.2-1.1,2.4-2.2,3.7-3.3c1.4-1.2,2.8-2.4,4.3-3.4c2-1.4,4-2.6,6.1-3.8
		c1.7-1,3.5-1.8,5.2-2.6c1.7-0.8,3.5-1.5,5.3-2.2c0,0,0.1,0,0.2,0c-0.7,0.4-1.3,0.7-1.9,1.1c-3.2,1.9-6.2,4.1-9,6.5
		c-3.3,2.9-6.2,6.1-8.8,9.7c-2.7,3.8-5,7.9-6.7,12.2c-1.8,4.5-3,9.2-3.7,14.1c-0.5,4-0.7,8-0.4,11.9c0.2,3.4,0.7,6.7,1.5,10
		c0.6,2.5,1.3,5,2.2,7.4c1.1,3.2,2.5,6.3,4.2,9.3c1.4,2.6,3,5.1,4.7,7.5c2.2,3.1,4.7,6,7.5,8.7c0,0.1,0.1,0.1,0.2,0.2
		c0.1-0.2,0.2-0.4,0.2-0.5c2.1-6.3,4.1-12.6,6.2-18.8c1.7-5.1,3.4-10.2,5.1-15.3c1.8-5.5,3.6-11,5.4-16.4c0.2-0.5,0.5-1,0.7-1.5
		c16,9.4,31.9,18.8,47.8,28.3c-13.4,13.5-26.9,26.9-40.3,40.4c0.4,0.2,0.8,0.3,1.3,0.5c4.8,1.7,9.6,2.9,14.6,3.5
		c4.2,0.5,8.5,0.7,12.7,0.3c2.5-0.2,5.1-0.5,7.6-0.9c1.7-0.3,3.5-0.8,5.2-1.2c3.5-0.9,6.9-2.2,10.2-3.8c4.5-2.2,8.7-4.9,12.5-8.1
		c3.1-2.6,5.9-5.5,8.4-8.7c2.3-3,4.4-6.3,6.1-9.7c1.9-3.8,3.4-7.8,4.4-11.9c0.8-3.3,1.4-6.7,1.6-10.1c0.1-2.3,0.1-4.5,0.1-6.8
		C-90.3,82.6-90.3,82.5-90.2,82.5C-90.3,82.5-90.3,82.5-90.2,82.5z"/>
	<g class="st4">
		<g id="XMLID_3_">
			<g>
				<path class="st5" d="M-116.5,29.3c1.3,0.9,2.5,1.9,3.7,2.9c0.8,0.6,1.6,1.3,2.3,2c1,0.9,2,1.8,2.9,2.7c1.3,1.3,2.6,2.7,3.8,4.1
					c0.8,0.9,1.6,1.9,2.3,2.9c0.7,0.9,1.4,1.8,2,2.7c0.7,1,1.4,2,2.1,3.1c0.6,0.9,1.1,1.8,1.7,2.7c0.2,0.4,0.4,0.8,0.6,1.2
					c0.9,1.5,1.6,3,2.4,4.5c0.7,1.5,1.3,3,2,4.5c0.6,1.4,1.1,2.9,1.6,4.3c0.3,0.8,0.5,1.7,0.8,2.5c0.3,1.1,0.6,2.2,0.9,3.3
					c0.3,1.2,0.6,2.4,0.8,3.6c0.3,1.5,0.5,3,0.7,4.5c0.2,1.6,0.4,3.2,0.5,4.8c0.1,1.4,0.1,2.9,0.1,4.3c0,0,0,0,0,0
					c0,0.9-0.1,1.8,0,2.7c-0.2,0.4,0,0.9-0.1,1.3c-0.1,1.2-0.1,2.4-0.2,3.5c-0.1,1.2-0.2,2.4-0.4,3.5c-0.1,0.5-0.2,1.1-0.2,1.6
					c-0.1,0.6-0.3,1.1-0.3,1.7c0,0.2-0.1,0.4-0.1,0.6c-0.4,2.4-1.1,4.9-1.7,7.2c-0.3,1.2-0.7,2.3-1.1,3.4c-0.3,1-0.7,1.9-1,2.8
					c-0.3,1-0.8,1.9-1.2,2.9c-0.6,1.5-1.4,3-2.1,4.5c-1.1,2.1-2.3,4.1-3.5,6.1c-0.7,1.1-1.4,2.1-2.1,3.2c-0.6,0.8-1.2,1.6-1.8,2.3
					c-0.5,0.7-1,1.4-1.6,2c-0.7,0.8-1.3,1.6-2.1,2.4c-0.8,0.9-1.6,1.7-2.5,2.6c-0.7,0.8-1.5,1.4-2.2,2.1c-0.6,0.6-1.3,1.2-1.9,1.8
					c-1,0.8-2,1.7-3.1,2.5c-0.6,0.4-1.2,0.9-1.8,1.4c-0.9,0.7-1.9,1.4-2.9,2.1c-1.1,0.8-2.3,1.5-3.5,2.2c-1.5,0.9-2.9,1.7-4.4,2.5
					c-2,1-4,1.9-6,2.7c-1.4,0.6-2.8,1-4.1,1.5c-1.4,0.5-2.8,0.9-4.2,1.3c-1.6,0.4-3.2,0.8-4.8,1.1c-1.3,0.2-2.6,0.5-3.8,0.7
					c-2,0.3-4,0.5-6,0.7c-1.6,0.2-3.3,0.2-4.9,0.2c-1.6,0-3.2-0.1-4.8-0.1c-1-0.1-2.1-0.2-3.1-0.3c-1.3-0.1-2.5-0.3-3.8-0.4
					c-0.4,0-0.8-0.1-1.2-0.2c-0.9-0.2-1.7-0.3-2.6-0.5c-2.1-0.4-4.2-0.9-6.3-1.5c-1.2-0.3-2.4-0.7-3.5-1.1c-1-0.3-1.9-0.7-2.9-1
					c-0.8-0.3-1.6-0.7-2.4-1c-0.9-0.4-1.8-0.8-2.7-1.2c-0.5-0.2-0.9-0.4-1.3-0.7c-2.4-1.1-4.7-2.5-6.9-3.9c-1.4-0.9-2.8-1.8-4.2-2.9
					c-1.3-0.9-2.5-1.9-3.7-2.9c-0.8-0.6-1.5-1.3-2.3-2c-1.6-1.4-3.1-2.9-4.5-4.4c-0.8-0.8-1.6-1.6-2.3-2.4c-0.8-1-1.6-1.9-2.3-2.9
					c-0.8-1.1-1.7-2.2-2.4-3.3c-0.6-0.8-1.1-1.7-1.7-2.5c-0.9-1.4-1.7-2.8-2.5-4.2c-0.8-1.5-1.6-2.9-2.3-4.5
					c-0.7-1.4-1.2-2.8-1.8-4.3c-0.6-1.4-1-2.8-1.6-4.2c-0.5-1.4-0.9-2.7-1.3-4.1c-0.4-1.4-0.7-2.8-1-4.2c-0.3-1.5-0.5-3-0.8-4.5
					c-0.3-2-0.5-4-0.7-6c-0.1-1.1-0.1-2.2-0.1-3.3c0.1-0.4,0-0.8,0-1.2c0-0.9,0-1.8,0-2.7c0-0.6,0-1.3,0.1-1.9
					c0.1-0.9,0.1-1.9,0.2-2.8c0.1-0.8,0.2-1.7,0.3-2.5c0.1-0.9,0.3-1.8,0.4-2.7c0.1-0.6,0.2-1.1,0.2-1.7c0-0.2,0.1-0.5,0.1-0.7
					c0.4-2.4,1.1-4.7,1.7-7.1c0.3-1.2,0.7-2.3,1.1-3.5c0.3-1,0.7-1.9,1-2.9c0.3-0.8,0.7-1.6,1-2.4c0.4-0.9,0.8-1.8,1.2-2.7
					c0.2-0.4,0.4-0.8,0.6-1.3c1.2-2.5,2.5-4.8,4-7.1c1.2-1.9,2.5-3.8,4-5.6c1-1.3,2-2.6,3.1-3.9c0.8-0.9,1.6-1.7,2.4-2.6
					c1.5-1.6,3.1-3.1,4.7-4.5c1-0.9,1.9-1.7,3-2.4c0.6-0.4,1.2-0.9,1.7-1.3c0.8-0.6,1.7-1.2,2.5-1.8c0.9-0.7,1.9-1.3,2.9-1.9
					c0.9-0.6,1.8-1,2.7-1.6c1.1-0.7,2.2-1.2,3.3-1.8c1.1-0.6,2.2-1.1,3.3-1.6c1.1-0.5,2.1-0.9,3.2-1.3c1-0.4,1.9-0.7,2.9-1.1
					c0.8-0.3,1.6-0.6,2.4-0.8c1.3-0.4,2.7-0.8,4-1.1c1.1-0.3,2.2-0.5,3.3-0.7c1.1-0.2,2.1-0.4,3.2-0.5c1.8-0.3,3.6-0.5,5.4-0.6
					c1-0.1,2.1-0.1,3.1-0.2c1.5-0.1,3.1-0.1,4.6,0c1.7,0,3.4,0.1,5.1,0.3c1.5,0.2,3.1,0.3,4.6,0.5c1.2,0.2,2.5,0.4,3.7,0.7
					c2.2,0.4,4.3,1,6.4,1.6c1.1,0.3,2.3,0.7,3.4,1.1c1,0.3,1.9,0.7,2.9,1c0.8,0.3,1.6,0.7,2.4,1c0.9,0.4,1.8,0.8,2.7,1.2
					c0.4,0.2,0.8,0.4,1.3,0.6c2.4,1.2,4.7,2.5,7,3.9C-119.3,27.4-117.9,28.3-116.5,29.3z M-113.7,43.1
					c-13.2-12.9-29.2-19.5-47.7-19.5c-17.7,0-33.2,6.2-46.1,18.4c-14,13.3-20.9,29.9-21.3,49.1c0.4,18.7,6.7,34.7,20,47.8
					c13.2,13.1,29.3,19.8,47.9,19.7c18.6,0,34.8-6.8,47.8-20.1c14.5-14.9,21-32.9,19.2-53.7C-95.3,68.6-102,54.5-113.7,43.1z"/>
			</g>
			<g>
			</g>
		</g>
	</g>
	<linearGradient id="SVGID_3_" gradientUnits="userSpaceOnUse" x1="-164.8473" y1="111.2536" x2="-151.6202" y2="58.2023">
		<stop  offset="0" style="stop-color:#E52D27"/>
		<stop  offset="1" style="stop-color:#B31217"/>
	</linearGradient>
	<path class="st6" d="M-135.2,95.7c0.4,1.6-0.5,3.2-2.1,3.6l-31.8,8.4c-1.6,0.4-3.2-0.5-3.6-2.1l-8.4-31.8c-0.4-1.6,0.5-3.2,2.1-3.6
		l31.8-8.4c1.6-0.4,3.2,0.5,3.6,2.1L-135.2,95.7z"/>
	<g class="st4">
		<linearGradient id="SVGID_4_" gradientUnits="userSpaceOnUse" x1="-39.4922" y1="103.1255" x2="-3.1099" y2="103.1255">
			<stop  offset="0" style="stop-color:#E52D27"/>
			<stop  offset="1" style="stop-color:#B31217"/>
		</linearGradient>
		<path class="st7" d="M-39.5,70.8h8h21.1l7.3,8.1V91l-7.3,8.1l7.3,8.1v20.2l-7.3,8.1h-29.1V70.8z M-24.9,95h7.3V78.9h-7.3V95z
			 M-24.9,127.4h7.3v-24.3h-7.3V127.4z"/>
		<linearGradient id="SVGID_5_" gradientUnits="userSpaceOnUse" x1="4.1665" y1="107.1677" x2="33.2725" y2="107.1677">
			<stop  offset="0" style="stop-color:#E52D27"/>
			<stop  offset="1" style="stop-color:#B31217"/>
		</linearGradient>
		<path class="st8" d="M4.2,103.1V95H26h7.3v8.1H26v24.3h7.3v8.1H4.2v-8.1h7.3v-24.3H4.2z M11.4,78.9H26V87H11.4V78.9z"/>
		<linearGradient id="SVGID_6_" gradientUnits="userSpaceOnUse" x1="40.5488" y1="103.1255" x2="84.2075" y2="103.1255">
			<stop  offset="0" style="stop-color:#E52D27"/>
			<stop  offset="1" style="stop-color:#B31217"/>
		</linearGradient>
		<path class="st9" d="M47.8,70.8h14.6V95h10.9v8.1H62.4v24.3h7.4l-0.1-8.1h14.6v8.1l-7.3,8.1H55.1l-7.3-8.1v-24.3h-7.3V95h7.3V70.8
			z"/>
	</g>
	<g class="st4">
		<path class="st5" d="M135.9,70.8v12.1l7.3,8.1V70.8h14.6v64.7h-14.6v-32.3l-7.3-8.1v40.4h-14.6V70.8H135.9z"/>
		<path class="st5" d="M172.2,135.5l-7.3-8.1v-24.3l7.3-8.1h21.8l7.3,8.1v12.1h-14.6v-12.1h-7.3v24.3h7.2l0.1-12.1h14.6v12.1
			l-7.3,8.1H172.2z"/>
		<path class="st5" d="M245,95v24.3l-14.6,16.2h-7.3l-14.6-16.2V95h14.6v32.3h7.3V95H245z"/>
		<path class="st5" d="M281.4,95l7.3,8.1v32.3h-29.1l-7.3-8.1v-8.1l7.3-8.1h14.6v-8.1h-18.2V95H281.4z M266.8,127.4h7.3v-8.1h-7.3
			L266.8,127.4z"/>
		<path class="st5" d="M303.2,70.8H325l7.3,8.1V87h-14.6v-8.1h-7.3V95H325l7.3,8.1v24.3l-7.3,8.1h-21.8l-7.3-8.1v-8.1h14.6v8.1h7.3
			v-24.3h-14.6l-7.3-8.1V78.9L303.2,70.8z"/>
		<path class="st5" d="M346.9,135.5l-7.3-8.1v-24.3l7.3-8.1h21.8l7.3,8.1v12.1h-14.6v-12.1h-7.3v24.3h7.2l0.1-12.1H376v12.1
			l-7.3,8.1H346.9z"/>
		<path class="st5" d="M390.5,103.1h-7.3V95h7.3V78.9l7.3-8.1h21.8l7.3,8.1V87h-14.6l0.1-8.1h-7.4V95H416v8.1h-10.9v32.3h-14.6
			V103.1z"/>
		<path class="st5" d="M441.5,70.8H456V95h10.9v8.1H456v24.3h7.4l-0.1-8.1h14.6v8.1l-7.3,8.1h-21.8l-7.3-8.1v-24.3h-7.3V95h7.3V70.8
			z"/>
	</g>
</g>
<g id="Layer_2">
	<g id="Layer_1_1_">
		<g class="st0">
			
				<linearGradient id="SVGID_7_" gradientUnits="userSpaceOnUse" x1="24.6133" y1="-751.1401" x2="71.7133" y2="-751.1401" gradientTransform="matrix(1 0 0 -1 0 -644.1929)">
				<stop  offset="0" style="stop-color:#E52D27"/>
				<stop  offset="1" style="stop-color:#B31217"/>
			</linearGradient>
			<path class="st10" d="M24.6,65H35h27.3l9.4,10.5v15.7l-9.4,10.5l9.4,10.5v26.2l-9.4,10.5H24.6V65L24.6,65z M43.5,96.4h9.4V75.5
				h-9.4V96.4z M43.5,138.3h9.4v-31.4h-9.4V138.3z"/>
			
				<linearGradient id="SVGID_8_" gradientUnits="userSpaceOnUse" x1="81.1133" y1="-756.3401" x2="118.8133" y2="-756.3401" gradientTransform="matrix(1 0 0 -1 0 -644.1929)">
				<stop  offset="0" style="stop-color:#E52D27"/>
				<stop  offset="1" style="stop-color:#B31217"/>
			</linearGradient>
			<path class="st11" d="M81.1,106.9V96.4h28.3h9.4v10.5h-9.4v31.4h9.4v10.5H81.1v-10.5h9.4v-31.4H81.1z M90.6,75.5h18.8V86H90.6
				V75.5z"/>
			
				<linearGradient id="SVGID_9_" gradientUnits="userSpaceOnUse" x1="128.2523" y1="-751.0901" x2="184.7741" y2="-751.0901" gradientTransform="matrix(1 0 0 -1 0 -644.1929)">
				<stop  offset="0" style="stop-color:#E52D27"/>
				<stop  offset="1" style="stop-color:#B31217"/>
			</linearGradient>
			<path class="st12" d="M137.7,65h18.8v31.4h14.1v10.5h-14.1v31.4h9.6l-0.2-10.5h18.8v10.5l-9.4,10.5h-28.2l-9.4-10.5v-31.4h-9.4
				V96.4h9.4V65L137.7,65z"/>
		</g>
		<g class="st0">
			<path class="st13" d="M251.6,65v15.7l9.4,10.5V65h18.8v83.7h-18.7v-41.9l-9.4-10.5v52.3h-18.8V64.9L251.6,65L251.6,65z"/>
			<path class="st13" d="M298.7,148.7l-9.4-10.5v-31.4l9.4-10.5H327l9.4,10.5v15.8h-18.8v-15.7h-9.4v31.4h9.3l0.1-15.7h18.8v15.7
				l-9.4,10.5L298.7,148.7L298.7,148.7z"/>
			<path class="st13" d="M392.9,96.4v31.4l-18.8,20.9h-9.4l-18.8-20.9V96.4h18.8v41.9h9.4V96.4H392.9L392.9,96.4z"/>
			<path class="st13" d="M440,96.4l9.4,10.5v41.9h-37.7l-9.4-10.5v-10.5l9.4-10.5h18.8v-10.5h-23.4V96.3L440,96.4L440,96.4z
				 M421.2,138.3h9.4v-10.5h-9.5L421.2,138.3z"/>
			<path class="st13" d="M468.3,65h28.3l9.4,10.5V86h-18.9V75.5h-9.4v20.9h18.8l9.4,10.5v31.4l-9.4,10.5h-28.3l-9.4-10.5v-10.5h18.8
				v10.5h9.4v-31.4h-18.8l-9.4-10.5V75.5L468.3,65z"/>
			<path class="st13" d="M524.8,148.7l-9.4-10.5v-31.4l9.4-10.5h28.3l9.4,10.5v15.8h-18.8v-15.7h-9.4v31.4h9.3l0.1-15.7h18.8v15.7
				l-9.4,10.5L524.8,148.7L524.8,148.7z"/>
			<path class="st13" d="M581.3,106.9h-9.4V96.4h9.4V75.5l9.4-10.5H619l9.4,10.5V86h-18.8l0.2-10.5h-9.6v20.9h14.1v10.5h-14.1v41.9
				h-18.8L581.3,106.9L581.3,106.9z"/>
			<path class="st13" d="M647.3,65h18.8v31.4h14.1v10.5h-14.1v31.4h9.6l-0.2-10.5h18.8v10.5l-9.4,10.5h-28.3l-9.4-10.5v-31.4h-9.4
				V96.4h9.4L647.3,65L647.3,65z"/>
		</g>
		<g id="Layer_2_2_">
			<g>
				<path class="st14" d="M17.9,143.4V25.5H57c13,0,23.2,2.7,30.6,8c7.4,5.4,11,13.4,11,24.1c0,5.4-1.5,10.1-4.6,14.3
					c-3.1,4.2-7.4,7.4-12.7,9.4c7,1.5,12.4,5,16.2,10.1c3.8,5.2,5.6,11.2,5.6,18.1c0,11.1-3.6,19.5-10.8,25.2
					c-7.3,5.7-17.2,8.7-29.9,8.7H17.9z M37.5,75.2h21.7c6.1,0,11-1.4,14.4-4.3c3.6-2.9,5.4-7,5.4-12.2c0-5.9-1.9-10.2-5.6-13
					c-3.7-2.8-9.2-4.2-16.3-4.2H37.5L37.5,75.2L37.5,75.2z M37.5,89.7v37.7h24.7c6.8,0,12-1.5,15.7-4.6c3.7-3.1,5.5-7.5,5.5-13.4
					c0-6.2-1.5-11.1-4.6-14.5c-3.1-3.4-7.9-5.2-14.4-5.2H37.5z"/>
				<path class="st14" d="M142.4,34.4h-19.6V17.1h19.6V34.4z M142.4,143.4h-19.6V55.8h19.6V143.4z"/>
				<path class="st14" d="M188.9,34.6v21.3h15.7v14.5h-15.7v48.4c0,3.6,0.8,6.2,2.3,7.8c1.5,1.5,3.7,2.3,6.2,2.3
					c1,0,2.2-0.1,3.2-0.3s2-0.4,2.9-0.8l2.2,14.4c-1.7,0.9-3.7,1.7-6,2.2s-4.7,0.8-7.1,0.8c-7.3,0-12.9-2.2-16.9-6.4
					c-4.1-4.2-6.1-10.8-6.1-19.9V70.5h-13.4V56h13.4V34.6H188.9z"/>
				<path class="st5" d="M343.7,143.4h-19.6l-52.2-86l-0.5,0.1v85.7h-19.6V25.5h19.6l52.2,85.9l0.5-0.1V25.5h19.6L343.7,143.4
					L343.7,143.4z"/>
				<path class="st5" d="M363.3,98.8c0-13,3.6-23.7,10.7-32c7.3-8.4,17.1-12.5,29.3-12.5c12.6,0,22.4,4.2,29.6,12.5
					c7.1,8.3,10.7,19,10.7,32v1.7c0,13.1-3.6,23.8-10.7,32.2c-7.1,8.3-16.9,12.4-29.3,12.4c-12.5,0-22.3-4.2-29.6-12.5
					c-7.1-8.3-10.7-19-10.7-32.1V98.8z M383.1,100.4c0,8.5,1.7,15.4,5,20.9c3.3,5.4,8.4,8,15.5,8c6.9,0,12-2.7,15.4-8
					c3.4-5.4,5.2-12.4,5.2-20.9v-1.7c0-8.3-1.8-15.2-5.2-20.6c-3.4-5.5-8.5-8.2-15.5-8.2c-6.9,0-12,2.7-15.4,8.2
					c-3.3,5.5-5,12.4-5,20.6V100.4z"/>
				<path class="st5" d="M490,113.7l1.4,7.1h0.5l1.5-7.1l17.3-57.8H531l-31.1,87.5h-17.1l-31.2-87.5h20.3L490,113.7z"/>
				<path class="st5" d="M594.8,143.4c-0.8-2.2-1.3-4.3-1.8-6.5s-0.8-4.2-0.9-6.4c-2.7,4.1-6.2,7.5-10.6,10.3
					c-4.3,2.8-9.3,4.2-14.8,4.2c-9.2,0-16.1-2.3-21-7c-5-4.7-7.3-11.1-7.3-19.4c0-8.4,3.3-15,10.1-19.7c6.6-4.7,16.1-7.1,28.3-7.1
					h15.3v-7.6c0-4.6-1.4-8.2-4.1-10.7c-2.7-2.5-6.5-3.8-11.6-3.8c-4.5,0-8,1-10.7,3.2c-2.7,2.2-3.9,5-3.9,8.3h-19l-0.1-0.5
					c-0.4-6.9,2.7-13,9.3-18.3c6.5-5.4,15-8,25.6-8c10.2,0,18.5,2.5,24.7,7.8c6.2,5.2,9.4,12.6,9.4,22.3v38.9
					c0,3.6,0.3,7.1,0.8,10.4c0.5,3.3,1.3,6.6,2.3,9.7h-20L594.8,143.4L594.8,143.4z M570.7,129.2c5,0,9.4-1.3,13.4-3.7
					c3.9-2.4,6.6-5.4,7.9-8.5v-13h-15.7c-5.7,0-10.2,1.4-13.4,4.2c-3.2,2.8-4.8,6.1-4.8,9.9c0,3.3,1.1,6,3.3,8
					C563.6,128.3,566.7,129.2,570.7,129.2z"/>
				<path class="st5" d="M698.7,113c0-4.8-1.8-8.9-5.5-12c-3.7-3.1-10.1-5.9-19.2-8.4c-13.1-3.4-23.3-8-30.3-13.8
					c-7.1-5.7-10.6-13.1-10.6-22.4c0-9.4,3.9-17.3,11.7-23.4c7.9-6.1,18-9.2,30.3-9.2c13,0,23.3,3.4,31.2,10.4
					c7.9,7,11.6,15.4,11.3,25.1l-0.1,0.5h-18.9c0-6-2-11-6.1-14.7c-4.1-3.7-9.9-5.6-17.6-5.6c-7.1,0-12.7,1.5-16.6,4.7
					c-3.8,3.1-5.7,7.1-5.7,12.1c0,4.5,2,8.2,6.2,11.1c4.2,2.9,11.1,5.7,20.8,8.4c12.6,3.4,22.3,8,28.9,14c6.6,6,9.8,13.6,9.8,22.9
					c0,9.8-3.9,17.6-11.7,23.4c-7.9,5.7-18.2,8.7-31,8.7c-12.2,0-23.1-3.3-32.4-9.8s-13.8-15.5-13.5-26.8l0.1-0.5h19
					c0,7.1,2.4,12.5,7.4,16.1c5,3.6,11.5,5.4,19.4,5.4c7.3,0,13-1.4,16.9-4.3C696.6,122,698.7,118,698.7,113z"/>
				<path class="st5" d="M732.8,98.8c0-13,3.6-23.7,10.7-32c7.3-8.4,17.1-12.5,29.3-12.5c12.6,0,22.4,4.2,29.6,12.5
					c7.1,8.3,10.7,19,10.7,32v1.7c0,13.1-3.6,23.8-10.7,32.2c-7.1,8.3-16.9,12.4-29.3,12.4c-12.5,0-22.3-4.2-29.6-12.5
					c-7.1-8.3-10.7-19-10.7-32.1V98.8z M752.4,100.4c0,8.5,1.7,15.4,5,20.9c3.3,5.4,8.4,8,15.5,8c6.9,0,12-2.7,15.4-8
					c3.4-5.4,5.2-12.4,5.2-20.9v-1.7c0-8.3-1.8-15.2-5.2-20.6c-3.4-5.5-8.5-8.2-15.5-8.2c-6.9,0-12,2.7-15.4,8.2
					c-3.3,5.5-5,12.4-5,20.6V100.4z"/>
				<path class="st5" d="M836.6,143.4v-73h-13.4V55.8h13.4V45.6c0-9.7,2.7-17.1,7.9-22.3c5.2-5.2,12.6-7.9,22.2-7.9
					c1.9,0,3.8,0.1,5.7,0.4c1.9,0.3,4.1,0.8,6.5,1.3l-2,15.2c-1-0.3-2.3-0.4-3.6-0.5s-2.7-0.3-4.2-0.3c-4.2,0-7.5,1.3-9.6,3.7
					c-2.2,2.4-3.2,5.9-3.2,10.4v10.2h17.8v14.5h-17.8v73H836.6z"/>
				<path class="st5" d="M912.8,34.6v21.3h15.7v14.5h-15.7v48.4c0,3.6,0.8,6.2,2.3,7.8c1.5,1.5,3.7,2.3,6.2,2.3c1,0,2.2-0.1,3.2-0.3
					c1-0.1,2-0.4,2.9-0.8l2.2,14.4c-1.7,0.9-3.7,1.7-6,2.2s-4.7,0.8-7.1,0.8c-7.3,0-12.9-2.2-16.9-6.4c-4.1-4.2-6.1-10.8-6.1-19.9
					V70.5h-13.4V56h13.4V34.6H912.8z"/>
			</g>
		</g>
		<g>
			<path class="st15" d="M-35.6,81.1c-0.1,0-0.1,0.4-0.3,0.1l0,0c0.1-0.6,0.1-1.2-0.1-1.8c0-0.2,0-0.3,0-0.5
				c0.1-1.4-0.1-2.8-0.2-4.2c-0.2-2.2-0.5-4.4-0.8-6.7c-0.3-2-0.6-4-1-6l0,0c-0.1-0.6-0.3-1.1-0.4-1.7c-0.1-0.1-0.1-0.3-0.1-0.5
				c-0.4-1.6-0.8-3.1-1.2-4.7l0,0c-0.3-0.6-0.3-1.2-0.5-1.7l0,0c-0.2-0.6-0.5-1.2-0.6-1.9c-0.2-0.1,0-0.4-0.2-0.5
				c-0.1-0.1,0-0.2-0.1-0.3l0,0c-0.4-0.7-0.6-1.6-0.8-2.3l0,0c-0.3-0.4-0.3-0.9-0.5-1.3l0,0c-0.1-0.2-0.1-0.5-0.3-0.7
				c-0.1-0.2-0.2-0.4-0.2-0.6c-0.2-0.5-0.4-0.9-0.6-1.4l0,0c-0.7-1.4-1.3-3-1.9-4.4l0,0c-0.5-0.8-0.9-1.7-1.2-2.5l0,0
				c-0.3-0.4-0.4-0.9-0.7-1.3c0,0,0-0.1,0-0.1c-0.5-0.9-1.1-1.8-1.5-2.8l0,0c-0.4-0.6-0.7-1.3-1.1-1.8c-0.1-0.2-0.2-0.5-0.4-0.7
				c-0.3-0.4-0.5-0.9-0.7-1.3l0,0c-0.2-0.2-0.3-0.5-0.5-0.8c0-0.1-0.1-0.2-0.1-0.3c-0.8-1.1-1.6-2.3-2.4-3.5c0,0-0.1-0.1-0.1-0.1
				c-0.2-0.2-0.2-0.4-0.4-0.6l0,0c-0.2-0.1-0.3-0.3-0.3-0.5l0,0c-0.3-0.4-0.7-0.8-1-1.3l0,0c-0.6-0.9-1.4-1.7-2-2.6l0,0
				c-0.7-0.7-1.3-1.5-1.9-2.3l0,0c-0.2-0.1-0.4-0.3-0.5-0.6l0,0c-0.4-0.3-0.6-0.7-1-1c0,0-0.1-0.1-0.1-0.1c-0.2,0-0.2-0.2-0.2-0.3
				l0,0c-0.3-0.2-0.5-0.4-0.7-0.7c0,0-0.1-0.1-0.1-0.1c-0.4-0.3-0.6-0.7-1-1c0,0-0.1-0.1-0.1-0.1c-0.7-0.8-1.5-1.5-2.2-2.3
				c-0.1-0.1-0.2-0.2-0.4-0.4c-0.4-0.3-0.6-0.8-1-1.1l0,0c-0.4-0.3-0.7-0.6-1-0.9l0,0c-0.8-0.5-1.4-1.3-2.1-1.8
				c-0.2-0.2-0.4-0.4-0.6-0.6C-71,6.4-71.2,6.2-71.4,6l0,0c-0.5-0.4-1.1-0.8-1.5-1.3l0,0c-0.3-0.2-0.6-0.4-0.8-0.7l0,0
				c-0.2-0.1-0.3-0.2-0.5-0.4l0,0c-0.6-0.3-1-0.8-1.5-1.2l0,0c-0.3-0.3-0.6-0.5-1-0.7l0,0c-0.7-0.5-1.5-1-2.2-1.6
				c-0.2-0.3-0.6-0.3-0.8-0.6l0,0c-0.5-0.4-1.1-0.6-1.5-1.1l0,0c-0.2-0.1-0.4-0.1-0.5-0.3l0,0c-0.2-0.1-0.4-0.2-0.6-0.3
				c-0.2-0.2-0.5-0.3-0.7-0.5c-0.3-0.2-0.7-0.3-0.9-0.6l0,0c-0.5-0.2-0.9-0.5-1.3-0.8c-0.2-0.1-0.4-0.2-0.6-0.3
				c-0.2-0.1-0.4-0.1-0.6-0.3c-0.1,0-0.2-0.1-0.2-0.1c-1.4-0.7-2.8-1.6-4.3-2.3c-0.1-0.1-0.3-0.1-0.4-0.3l0,0
				c-0.9-0.4-1.8-0.8-2.6-1.3c-0.2-0.1-0.3-0.1-0.5-0.2c-1.2-0.5-2.4-1-3.6-1.5c-0.1-0.1-0.3-0.1-0.4-0.2l0,0
				c-0.2-0.1-0.3-0.1-0.5-0.2l0,0c-0.3-0.2-0.6-0.2-0.9-0.3l0,0c-0.3-0.1-0.6-0.2-0.9-0.3l0,0c-0.2-0.1-0.4-0.1-0.6-0.2l0,0
				c-0.8-0.2-1.6-0.5-2.3-0.8c-0.2-0.1-0.4-0.1-0.6-0.2c-0.1,0-0.2-0.1-0.3-0.1c-0.2-0.1-0.5-0.1-0.7-0.2l0,0
				c-0.2-0.1-0.5-0.1-0.7-0.2c-0.4-0.1-0.7-0.2-1.1-0.3c-1.2-0.4-2.3-0.6-3.5-1l0,0c-0.2-0.1-0.3,0-0.5-0.1
				c-0.1-0.1-0.3,0.1-0.5-0.1c-0.3-0.1-0.6-0.1-0.8-0.2l0,0c-0.2-0.1-0.4,0.1-0.6-0.1l0,0c-0.3-0.1-0.6-0.1-0.8-0.2l0,0
				c-0.2-0.1-0.4,0.1-0.6-0.1l0,0c-2.5-0.5-5-1-7.5-1.4l0,0c-0.3-0.1-0.6,0.1-0.8-0.1l0,0c-0.2-0.1-0.5,0.1-0.7-0.1l0,0
				c-0.3-0.2-0.7,0.1-1.1-0.1l0,0c-0.6-0.1-1.3-0.1-1.9-0.2l0,0c-2.4-0.2-4.7-0.4-7.1-0.4c-1.9,0-3.8-0.1-5.8,0
				c-2.3,0.1-4.6,0.2-6.8,0.4c-1.8,0.2-3.6,0.4-5.4,0.6l0,0c-0.5,0.1-1.1,0.2-1.6,0.3l0,0c-1.3,0.2-2.6,0.5-3.9,0.8
				c-1.6,0.3-3.3,0.7-4.9,1.1l0,0c-0.3,0.1-0.7,0.1-1.1,0.3c-0.2,0-0.3,0-0.4,0.1c-0.3,0.1-0.5,0.2-0.8,0.2
				c-0.2-0.1-0.3,0.2-0.5,0.2c-1.3,0.5-2.6,0.8-3.9,1.2c-0.3,0.1-0.5,0.2-0.8,0.2l0,0c-0.4,0.2-0.9,0.3-1.3,0.5l0,0
				c-1.2,0.5-2.4,1-3.6,1.3l0,0c-0.3,0.2-0.6,0.3-0.9,0.4l0,0c-0.3,0.2-0.7,0.4-1.1,0.5l0,0c-0.2,0.1-0.4,0.2-0.6,0.2l0,0
				c-0.7,0.2-1.2,0.7-1.9,0.8l0,0c-0.6,0.3-1.2,0.6-1.8,0.8c-0.1,0-0.3,0-0.2-0.2c2.3-2,4.7-4,7.1-5.8c2.9-2.1,5.9-4,9-5.8
				c1.4-0.8,2.9-1.5,4.4-2.3c1.8-0.9,3.6-1.7,5.5-2.4c1.7-0.7,3.4-1.3,5.1-1.9c1.9-0.6,3.8-1.2,5.8-1.7c2.2-0.6,4.5-1,6.7-1.5
				c1.5-0.3,3.1-0.5,4.6-0.7c1.4-0.2,2.8-0.3,4.2-0.4c1.2-0.1,2.4-0.1,3.6-0.2c1.6,0,3.2,0,4.8,0c2.8,0.1,5.6,0.3,8.4,0.6
				c2.6,0.3,5.1,0.7,7.6,1.2c7.1,1.4,13.8,3.7,20.3,6.8c5.9,2.8,11.4,6.2,16.6,10.3c4.2,3.3,8.1,7,11.7,11c1.9,2.2,3.7,4.4,5.4,6.7
				c2.1,2.9,4,5.9,5.8,9c0.8,1.4,1.5,2.9,2.3,4.4c1.1,2.3,2.1,4.6,3,6.9c0.9,2.3,1.6,4.6,2.3,6.9c0.5,1.7,1,3.5,1.4,5.2
				c0.7,2.9,1.2,5.7,1.5,8.7c0.3,2,0.4,4,0.5,6c0,1.1,0.2,2.2,0.1,3.3c0.1,0.6,0,1.3,0,2c0,0.7,0.1,1.3,0,2c0,2.2-0.2,4.4-0.4,6.6
				c-0.4,3.5-0.9,7-1.7,10.5C-35,78.6-35.3,79.9-35.6,81.1z"/>
			
				<linearGradient id="SVGID_10_" gradientUnits="userSpaceOnUse" x1="-147.6469" y1="-745.4198" x2="-263.0855" y2="-961.9545" gradientTransform="matrix(1 0 0 -1 0 -644.1929)">
				<stop  offset="0" style="stop-color:#E52D27"/>
				<stop  offset="1" style="stop-color:#B31217"/>
			</linearGradient>
			<path class="st16" d="M-49.5,78.1c0.1,0.8,0.3,1.5,0.4,2.3c0.3,2.2,0.7,4.5,0.9,6.7c0.2,2.4,0.3,4.8,0.4,7.2c0,2.5,0,5-0.2,7.6
				c-0.1,1.8-0.3,3.7-0.6,5.5c-0.3,2.2-0.7,4.4-1.2,6.6c-0.5,2.1-0.9,4.3-1.6,6.3c-0.9,2.8-1.9,5.5-2.9,8.2
				c-0.6,1.6-1.4,3.1-2.1,4.6c-0.8,1.7-1.7,3.4-2.6,5c-1.3,2.2-2.7,4.3-4.1,6.4c-1.5,2.1-3,4.2-4.6,6.1c-1.8,2.1-3.7,4-5.6,5.9
				c-1.1,1.2-2.3,2.3-3.6,3.3c-1.6,1.3-3.1,2.6-4.8,3.8c-1.6,1.2-3.3,2.4-5,3.4c-2.1,1.3-4.2,2.5-6.4,3.6c-2.5,1.3-5,2.4-7.6,3.6
				c-1.5,0.7-3.1,1.1-4.6,1.7c-1.8,0.6-3.5,1.2-5.3,1.7c-1.5,0.4-3,0.8-4.5,1.1c-1.8,0.4-3.6,0.7-5.4,1c-1.3,0.2-2.7,0.4-4,0.5
				c-2.2,0.2-4.3,0.4-6.5,0.5c-1.5,0.1-3,0.1-4.5,0.1c-1.6,0-3.3,0-4.9-0.1c-1.9-0.1-3.8-0.3-5.7-0.5c-1.9-0.2-3.9-0.5-5.8-0.8
				c-1.7-0.3-3.5-0.7-5.2-1.1c-2.4-0.6-4.8-1.2-7.2-1.9c-1.9-0.6-3.8-1.3-5.7-2.1c-1.5-0.6-3.1-1.2-4.5-1.8
				c-1.8-0.8-3.5-1.6-5.3-2.5c-1.9-1-3.9-2-5.8-3.1c-1.9-1.1-3.7-2.3-5.5-3.5c-1.5-1-2.9-2-4.3-3c-1-0.7-2-1.5-2.9-2.3
				c-1.9-1.6-3.8-3.2-5.6-4.9c-1.6-1.5-3.2-3.2-4.7-4.8c-1.4-1.5-2.8-2.9-4-4.5c-1.6-1.9-3-3.9-4.5-5.9c-1.3-1.8-2.6-3.7-3.7-5.6
				c-1.1-1.8-2.1-3.7-3.1-5.6c-0.8-1.5-1.6-3-2.3-4.5c-0.9-1.9-1.7-3.9-2.5-5.9c-0.6-1.4-1.1-2.9-1.6-4.3c-0.6-1.9-1.1-3.8-1.6-5.7
				c-0.5-2.1-1.1-4.1-1.5-6.2c-0.5-2.9-0.8-5.8-1.2-8.6c-0.4-3.5-0.5-6.9-0.4-10.4c0.1-2.6,0.3-5.1,0.6-7.7c0.2-2,0.5-3.9,0.9-5.9
				c0.4-2.1,0.8-4.2,1.3-6.3c0.6-2.3,1.4-4.5,2.1-6.7c0.5-1.4,1-2.7,1.5-4c0.5-1.3,1.1-2.6,1.7-3.8c1-2,2-4,3.1-5.9
				c1.3-2.2,2.7-4.3,4.2-6.4c1.4-2.1,3-4,4.5-6c0.5-0.6,1-1.1,1.5-1.7c1.1-1.2,2.2-2.4,3.4-3.6c1.5-1.5,3.1-2.9,4.8-4.3
				c1.8-1.5,3.6-3.1,5.6-4.4c2.6-1.8,5.2-3.4,7.9-5c2.2-1.2,4.5-2.3,6.8-3.3c2.2-1,4.5-1.9,6.8-2.8c0,0,0.1,0,0.2,0
				c-0.9,0.5-1.7,1-2.5,1.4c-4.2,2.4-8.1,5.3-11.7,8.5c-4.3,3.8-8.1,8-11.4,12.6c-3.5,4.9-6.4,10.2-8.7,15.8
				c-2.4,5.9-3.9,11.9-4.8,18.2c-0.7,5.1-0.9,10.3-0.5,15.5c0.3,4.4,0.9,8.7,1.9,13c0.8,3.2,1.7,6.4,2.8,9.6
				c1.5,4.2,3.3,8.2,5.4,12.1c1.8,3.4,3.9,6.6,6.1,9.7c2.9,4,6.1,7.8,9.6,11.3c0.1,0.1,0.1,0.1,0.3,0.2c0.1-0.3,22.6-67.2,22.6-67.2
				l61,40.9c0,0-51,47-51,47c0,0,1.1,0.4,1.6,0.6c6.2,2.2,12.5,3.7,19,4.5c5.5,0.7,11,0.9,16.4,0.4c3.3-0.3,6.5-0.7,9.8-1.2
				c2.3-0.4,4.5-1,6.7-1.6c4.6-1.2,9-2.9,13.2-4.9c5.9-2.8,11.3-6.3,16.2-10.5c4-3.4,7.6-7.1,10.8-11.3c3-3.9,5.7-8.1,7.9-12.6
				c2.5-4.9,4.3-10.1,5.7-15.4c1.1-4.3,1.8-8.6,2-13C-49.5,84.1-49.6,81.1-49.5,78.1C-49.5,78.1-49.5,78.1-49.5,78.1L-49.5,78.1z"/>
			<g>
				<g id="XMLID_1_">
					<g>
						<path class="st5" d="M-42.5,89.7L-42.5,89.7c0,1.2-0.1,2.4,0,3.6c-0.2,0.5,0,1.1-0.1,1.7c-0.1,1.5-0.2,3-0.3,4.6
							c-0.2,1.5-0.3,3.1-0.5,4.6c-0.1,0.7-0.2,1.4-0.3,2.1c-0.1,0.7-0.4,1.5-0.3,2.2c0,0.3-0.1,0.5-0.2,0.8
							c-0.6,3.2-1.4,6.3-2.3,9.4c-0.4,1.5-0.9,3-1.4,4.4c-0.4,1.2-0.9,2.4-1.3,3.7c-0.4,1.3-1.1,2.5-1.6,3.7c-0.8,2-1.8,3.9-2.8,5.9
							c-1.4,2.7-2.9,5.3-4.5,7.9c-0.9,1.4-1.8,2.8-2.8,4.1c-0.7,1-1.5,2-2.3,3c-0.7,0.9-1.3,1.8-2,2.6c-0.9,1-1.7,2.1-2.7,3.1
							c-1,1.2-2.1,2.3-3.2,3.4c-0.9,1-1.9,1.9-2.9,2.8c-0.8,0.8-1.6,1.6-2.5,2.3c-1.3,1.1-2.6,2.3-4,3.3c-0.8,0.6-1.5,1.2-2.3,1.8
							c-1.2,1-2.5,1.8-3.8,2.7c-1.5,1-3,1.9-4.6,2.8c-1.9,1.1-3.8,2.2-5.8,3.2c-2.5,1.3-5.2,2.4-7.8,3.5c-1.8,0.7-3.6,1.3-5.4,2
							c-1.8,0.6-3.6,1.1-5.4,1.7c-2.1,0.6-4.2,1.1-6.3,1.5c-1.6,0.3-3.3,0.6-5,0.9c-2.6,0.4-5.2,0.7-7.8,0.9
							c-2.1,0.2-4.2,0.2-6.4,0.3c-2.1,0-4.1-0.1-6.2-0.2c-1.3-0.1-2.7-0.2-4-0.3c-1.6-0.2-3.3-0.4-4.9-0.6c-0.5,0-1-0.2-1.5-0.3
							c-1.1-0.2-2.2-0.4-3.4-0.6c-2.7-0.5-5.4-1.2-8.1-2c-1.5-0.4-3-0.9-4.6-1.4c-1.2-0.4-2.4-0.9-3.7-1.3c-1.1-0.4-2.1-0.9-3.1-1.3
							c-1.2-0.5-2.3-1-3.5-1.5c-0.6-0.2-1.1-0.6-1.7-0.8c-3.1-1.5-6-3.2-8.9-5c-1.8-1.2-3.7-2.4-5.4-3.7c-1.6-1.2-3.2-2.4-4.8-3.7
							c-1-0.8-2-1.7-2.9-2.5c-2-1.9-4-3.7-5.9-5.7c-1-1-2-2-2.9-3.1c-1-1.3-2-2.4-3-3.7c-1.1-1.4-2.2-2.8-3.2-4.2
							c-0.7-1.1-1.5-2.1-2.2-3.2c-1.1-1.8-2.2-3.6-3.2-5.4c-1.1-1.9-2.1-3.8-3-5.8c-0.9-1.8-1.6-3.7-2.4-5.5s-1.3-3.6-2-5.4
							c-0.6-1.8-1.2-3.5-1.6-5.3c-0.5-1.8-1-3.6-1.3-5.4c-0.4-1.9-0.7-3.8-1-5.8c-0.4-2.6-0.6-5.2-0.9-7.8c-0.2-1.4-0.1-2.9-0.2-4.3
							c0.1-0.5,0-1.1,0-1.6c0-1.1,0-2.3,0-3.4c0-0.8,0-1.6,0.1-2.5c0.1-1.2,0.1-2.4,0.3-3.6c0.2-1.1,0.2-2.2,0.4-3.2
							c0.1-1.2,0.3-2.3,0.5-3.5c0.1-0.7,0.3-1.4,0.3-2.2c0-0.3,0.1-0.6,0.2-0.9c0.6-3.1,1.4-6.1,2.2-9.2c0.4-1.5,1-3,1.4-4.6
							c0.4-1.2,0.9-2.5,1.3-3.7c0.4-1.1,0.9-2.1,1.3-3.1c0.5-1.1,1-2.3,1.5-3.4c0.2-0.6,0.5-1.1,0.8-1.6c1.6-3.2,3.3-6.3,5.2-9.2
							c1.6-2.5,3.3-5,5.2-7.3c1.3-1.7,2.6-3.4,4.1-5c1-1.2,2.1-2.3,3.2-3.4c1.9-2.1,4-4,6.1-5.9c1.2-1.1,2.5-2.2,3.9-3.2
							c0.8-0.5,1.5-1.1,2.3-1.7c1-0.8,2.2-1.5,3.2-2.3c1.2-0.9,2.5-1.6,3.7-2.5c1.1-0.7,2.3-1.3,3.5-2c1.4-0.9,2.9-1.5,4.3-2.3
							c1.4-0.8,2.9-1.4,4.3-2c1.4-0.6,2.8-1.2,4.2-1.7c1.3-0.5,2.5-0.9,3.8-1.4c1-0.4,2.1-0.7,3.2-1c1.7-0.5,3.4-1,5.2-1.4
							c1.4-0.4,2.8-0.7,4.2-0.9c1.4-0.3,2.8-0.5,4.2-0.7c2.3-0.4,4.6-0.6,6.9-0.8c1.4-0.1,2.7-0.2,4.1-0.2c2-0.1,4-0.1,6-0.1
							c2.2,0.1,4.4,0.2,6.6,0.4c2,0.2,4,0.4,5.9,0.7c1.6,0.2,3.2,0.6,4.8,0.9c2.8,0.5,5.5,1.3,8.3,2c1.5,0.4,2.9,0.9,4.4,1.4
							c1.3,0.4,2.5,0.9,3.7,1.3c1.1,0.4,2.1,0.9,3.1,1.3c1.2,0.5,2.3,1,3.5,1.5c0.6,0.2,1.1,0.5,1.6,0.8c3.1,1.5,6.1,3.2,9,5.1
							c1.8,1.2,3.6,2.4,5.4,3.7c1.6,1.2,3.2,2.4,4.8,3.7c1,0.8,2,1.7,3,2.6c1.3,1.2,2.5,2.3,3.8,3.6c1.7,1.7,3.4,3.4,4.9,5.3
							c1,1.2,2.1,2.4,3,3.7c0.9,1.2,1.8,2.3,2.6,3.4c0.9,1.3,1.9,2.6,2.7,4c0.7,1.2,1.4,2.3,2.2,3.5c0.3,0.5,0.5,1,0.8,1.5
							c1.2,1.9,2.1,3.9,3.1,5.9c0.9,1.9,1.7,3.9,2.5,5.8c0.8,1.8,1.4,3.7,2.1,5.6c0.4,1.1,0.7,2.2,1,3.3c0.4,1.4,0.8,2.8,1.1,4.2
							c0.4,1.6,0.8,3.1,1.1,4.7c0.4,1.9,0.7,3.9,0.9,5.9c0.3,2.1,0.5,4.1,0.7,6.2C-42.5,86-42.6,87.8-42.5,89.7z M-78.8,152.7
							c18.8-19.3,27.2-42.6,24.9-69.5c-1.8-21.1-10.5-39.3-25.6-54.1c-17.1-16.7-37.8-25.3-61.7-25.3c-22.9,0-43,8-59.6,23.8
							c-18.2,17.3-27.1,38.7-27.6,63.6c0.5,24.2,8.7,45,25.8,61.9s37.9,25.6,62,25.6C-116.5,178.6-95.6,169.9-78.8,152.7z"/>
					</g>
				</g>
			</g>
			
				<linearGradient id="SVGID_11_" gradientUnits="userSpaceOnUse" x1="-121.0003" y1="139.5358" x2="-153.0566" y2="81.6523" gradientTransform="matrix(1 0 0 -1 0 194)">
				<stop  offset="0" style="stop-color:#F52D27"/>
				<stop  offset="0.5351" style="stop-color:#E32217"/>
				<stop  offset="0.8811" style="stop-color:#EC3E34"/>
			</linearGradient>
			<path class="st17" d="M-104.1,97.6c0.5,2.3-0.8,4.6-2.9,5.1l-44.7,11.8c-2.3,0.5-4.6-0.8-5.1-2.9l-11.9-44.7
				c-0.5-2.3,0.8-4.6,2.9-5.1l44.7-11.8c2.3-0.5,4.6,0.8,5.1,2.9L-104.1,97.6z"/>
			<path class="st18" d="M-109.5,95.1c0.5,1.9-0.6,3.8-2.4,4.2l-37.2,9.9c-1.9,0.5-3.8-0.6-4.2-2.4l-9.9-37.2
				c-0.5-1.9,0.6-3.8,2.4-4.2l37.2-9.9c1.9-0.5,3.8,0.6,4.2,2.4L-109.5,95.1z"/>
		</g>
	</g>
	<g id="Layer_2_1_">
		<g>
			
				<linearGradient id="SVGID_12_" gradientUnits="userSpaceOnUse" x1="-200.9366" y1="50.5356" x2="-253.2276" y2="-2.3427" gradientTransform="matrix(0.9818 -0.1897 -0.1897 -0.9818 88.2804 66.2275)">
				<stop  offset="0" style="stop-color:#FF3228"/>
				<stop  offset="0.4222" style="stop-color:#E32217"/>
				<stop  offset="0.8457" style="stop-color:#EC3E34"/>
			</linearGradient>
			<path class="st19" d="M-106.3,100.3c0.5,2.6-1.2,5.2-3.9,5.7l-44.5,8.6c-2.6,0.5-5.2-1.2-5.7-3.9l-8.6-44.5
				c-0.5-2.6,1.2-5.2,3.9-5.7l44.5-8.6c2.6-0.5,5.2,1.2,5.7,3.9L-106.3,100.3z"/>
		</g>
		<g>
			<path class="st20" d="M-111.2,99.5c0.2,1.1-0.5,2.1-1.5,2.3l-41.1,7.9c-1.1,0.2-2.1-0.5-2.3-1.5l-7.9-41.1
				c-0.2-1.1,0.5-2.1,1.5-2.3l41.1-7.9c1.1-0.2,2.1,0.5,2.3,1.5L-111.2,99.5z"/>
		</g>
	</g>
</g>
</svg>
