<?xml version="1.0" encoding="utf-8"?>
<!-- Generator: Adobe Illustrator 21.0.2, SVG Export Plug-In . SVG Version: 6.00 Build 0)  -->
<svg version="1.1" id="Layer_1" xmlns="http://www.w3.org/2000/svg" xmlns:xlink="http://www.w3.org/1999/xlink" x="0px" y="0px"
	 viewBox="0 0 415.8 295.1" style="enable-background:new 0 0 415.8 295.1;" xml:space="preserve">
<style type="text/css">
	.st0{fill:#FFFFFF;}
	.st1{fill:#6CAEDF;}
	.st2{fill:#F37255;}
	.st3{fill:#666666;}
</style>
<g>
	<g>
		<path class="st0" d="M204.6,189.1c-28.1,0-50.9-22.8-50.9-50.9s22.8-50.9,50.9-50.9s50.9,22.8,50.9,50.9S232.7,189.1,204.6,189.1z
			"/>
	</g>
</g>
<g>
	<path class="st1" d="M185.5,106.6c5.7-3.3,11.8-5,18.5-5c6.7,0,12.9,1.7,18.5,5c5.7,3.3,10.1,7.8,13.4,13.4c3.3,5.7,5,11.8,5,18.5
		s-1.7,12.9-5,18.5c-3.3,5.7-7.8,10.1-13.4,13.4c-5.7,3.3-11.8,5-18.5,5c-6.7,0-12.9-1.7-18.5-5c-5.7-3.3-10.1-7.8-13.4-13.4
		c-3.3-5.7-5-11.8-5-18.5s1.6-12.9,5-18.5C175.4,114.3,179.9,109.9,185.5,106.6z M217.2,126.6c-0.1,0-0.2,0.2-0.5,0.5
		c-0.2,0.3-0.5,0.4-0.6,0.5c0.1,0,0.1-0.1,0.2-0.2c0.1-0.2,0.2-0.3,0.2-0.5c0.1-0.2,0.1-0.3,0.2-0.3c0.2-0.2,0.5-0.5,1.1-0.7
		c0.4-0.2,1.3-0.4,2.5-0.6c1.1-0.3,1.9-0.1,2.5,0.5c-0.1-0.1,0.1-0.3,0.5-0.6c0.4-0.4,0.6-0.5,0.7-0.6c0.1-0.1,0.3-0.1,0.7-0.2
		c0.4-0.1,0.6-0.2,0.7-0.4l0.1-1.1c-0.4,0-0.7-0.1-0.8-0.3c-0.2-0.3-0.3-0.6-0.3-1c0,0.1-0.1,0.2-0.3,0.4c0-0.2-0.1-0.4-0.2-0.4
		c-0.1,0-0.3,0-0.6,0c-0.2,0.1-0.4,0.1-0.4,0c-0.3-0.1-0.6-0.2-0.7-0.4c-0.2-0.1-0.3-0.4-0.4-0.8c-0.1-0.4-0.2-0.6-0.2-0.7
		c-0.1-0.2-0.2-0.3-0.5-0.5s-0.4-0.4-0.5-0.5c0-0.1-0.1-0.2-0.1-0.3c0-0.1-0.1-0.2-0.1-0.3c0-0.1-0.1-0.2-0.2-0.3
		c-0.1-0.1-0.2-0.1-0.3-0.1s-0.2,0.1-0.3,0.2c-0.1,0.2-0.2,0.3-0.4,0.5s-0.2,0.2-0.2,0.2c-0.1-0.1-0.2-0.1-0.3-0.1
		c-0.1,0-0.2,0-0.2,0c0,0-0.1,0.1-0.2,0.1c-0.1,0.1-0.2,0.1-0.2,0.2c-0.1,0.1-0.2,0.1-0.4,0.1c-0.2,0-0.3,0.1-0.4,0.1
		c0.5-0.2,0.5-0.3,0-0.5c-0.3-0.1-0.6-0.2-0.8-0.1c0.3-0.1,0.4-0.3,0.4-0.6c0-0.3-0.2-0.5-0.4-0.7h0.2c0-0.1-0.2-0.3-0.4-0.4
		c-0.2-0.1-0.5-0.3-0.8-0.4s-0.5-0.2-0.6-0.3c-0.3-0.2-0.8-0.3-1.6-0.5s-1.4-0.2-1.6,0c-0.2,0.2-0.2,0.4-0.2,0.5
		c0,0.1,0.1,0.4,0.2,0.7c0.1,0.3,0.2,0.5,0.2,0.6c0,0.2-0.1,0.4-0.3,0.6c-0.2,0.2-0.3,0.4-0.3,0.6c0,0.2,0.2,0.5,0.7,0.7
		c0.4,0.3,0.6,0.6,0.5,1c-0.1,0.3-0.4,0.5-0.8,0.8c-0.4,0.3-0.7,0.4-0.8,0.6c-0.2,0.3-0.2,0.6-0.1,0.9c0.1,0.3,0.3,0.6,0.5,0.8
		c0.1,0.1,0.1,0.1,0.1,0.2c0,0.1-0.1,0.1-0.2,0.2c-0.1,0.1-0.2,0.1-0.3,0.2s-0.2,0.1-0.3,0.2l-0.1,0.1c-0.4,0.2-0.7,0.1-1-0.3
		c-0.3-0.4-0.5-0.8-0.6-1.2c-0.2-0.8-0.5-1.3-0.8-1.4c-0.7-0.3-1.2-0.2-1.4,0c-0.2-0.4-0.8-0.8-2-1.2c-0.8-0.3-1.7-0.4-2.8-0.2
		c0.2,0,0.2-0.3,0-0.7c-0.2-0.5-0.5-0.7-0.9-0.6c0.1-0.2,0.2-0.5,0.2-0.8c0-0.4,0-0.6,0-0.6c0.1-0.4,0.3-0.8,0.6-1.1
		c0,0,0.1-0.2,0.3-0.4s0.3-0.5,0.5-0.6c0.1-0.2,0.1-0.3,0-0.3c1.1,0.1,1.9,0,2.4-0.5c0.2-0.2,0.3-0.4,0.6-0.8
		c0.2-0.4,0.4-0.7,0.5-0.8c0.3-0.2,0.5-0.3,0.7-0.3c0.2,0,0.4,0.1,0.7,0.3c0.3,0.2,0.5,0.2,0.7,0.2c0.4,0,0.7-0.1,0.7-0.5
		c0-0.4-0.1-0.7-0.4-1c0.4,0,0.4-0.2,0.1-0.8c-0.1-0.2-0.3-0.4-0.4-0.4c-0.4-0.1-0.8,0-1.3,0.2c-0.3,0.1-0.2,0.3,0.1,0.4
		c0,0-0.2,0.1-0.5,0.5c-0.3,0.4-0.5,0.6-0.8,0.8c-0.3,0.2-0.5,0.1-0.8-0.2c0,0-0.1-0.2-0.3-0.6c-0.1-0.4-0.3-0.6-0.5-0.6
		c-0.3,0-0.5,0.2-0.8,0.7c0.1-0.3-0.1-0.5-0.5-0.7c-0.4-0.2-0.8-0.4-1.2-0.4c0.6-0.4,0.5-0.8-0.4-1.3c-0.2-0.1-0.6-0.2-1-0.2
		c-0.4,0-0.7,0-0.9,0.2c-0.2,0.2-0.2,0.4-0.3,0.6c0,0.1,0.1,0.3,0.2,0.4c0.2,0.1,0.3,0.2,0.5,0.3c0.2,0.1,0.3,0.1,0.6,0.2
		c0.2,0.1,0.3,0.1,0.4,0.1c0.4,0.3,0.6,0.5,0.4,0.7c-0.1,0-0.2,0.1-0.4,0.2c-0.2,0.1-0.4,0.2-0.6,0.2c-0.2,0.1-0.3,0.1-0.3,0.2
		c-0.1,0.1-0.1,0.4,0,0.7s0.1,0.5-0.1,0.7c-0.2-0.2-0.3-0.4-0.4-0.8c-0.1-0.4-0.2-0.7-0.3-0.8c0.2,0.3-0.2,0.4-1.2,0.3l-0.5,0
		c-0.1,0-0.4,0-0.8,0.1c-0.4,0.1-0.7,0.1-1,0c-0.3,0-0.5-0.2-0.6-0.4c-0.1-0.3-0.1-0.6,0-1c0-0.1,0.1-0.2,0.2-0.1
		c-0.1-0.1-0.3-0.2-0.5-0.5c-0.2-0.2-0.4-0.3-0.5-0.4c-1.5,0.5-3,1.1-4.5,2c0.2,0,0.4,0,0.6,0c0.2-0.1,0.4-0.2,0.6-0.3
		c0.3-0.1,0.4-0.2,0.5-0.3c1.1-0.4,1.8-0.6,2-0.3l0.2-0.2c0.4,0.5,0.8,0.9,1,1.2c-0.2-0.1-0.7-0.1-1.4,0c-0.6,0.2-1,0.4-1.1,0.6
		c0.2,0.4,0.3,0.7,0.2,0.9c-0.1-0.1-0.3-0.3-0.6-0.5c-0.2-0.2-0.5-0.4-0.7-0.5c-0.2-0.1-0.5-0.2-0.7-0.2c-0.5,0-0.9,0-1.1,0
		c-4.7,2.6-8.4,6.1-11.3,10.7c0.2,0.2,0.4,0.4,0.6,0.4c0.1,0,0.2,0.2,0.2,0.4c0,0.3,0.1,0.4,0.1,0.5c0,0.1,0.2,0,0.6-0.1
		c0.3,0.3,0.3,0.6,0.1,0.9c0,0,0.7,0.4,2.1,1.3c0.6,0.5,0.9,0.9,1,1c0.1,0.4-0.1,0.6-0.5,0.9c0-0.1-0.2-0.2-0.4-0.4
		c-0.3-0.2-0.4-0.3-0.4-0.2c-0.1,0.2-0.1,0.5,0,0.9c0.1,0.4,0.3,0.6,0.5,0.6c-0.2,0-0.4,0.3-0.5,0.8c-0.1,0.5-0.1,1.1-0.1,1.7
		c0,0.6,0,1,0,1.1l0.1,0c-0.1,0.4,0,0.9,0.3,1.7c0.3,0.7,0.6,1,1,0.9c-0.4,0.1-0.1,0.8,1,2.1c0.2,0.3,0.3,0.4,0.4,0.4
		c0.1,0.1,0.3,0.2,0.6,0.4c0.3,0.2,0.5,0.3,0.7,0.5c0.2,0.1,0.4,0.3,0.5,0.5c0.1,0.2,0.3,0.5,0.5,1.1c0.2,0.6,0.4,0.9,0.7,1.1
		c-0.1,0.2,0.1,0.5,0.5,1c0.4,0.4,0.5,0.8,0.5,1.1c0,0-0.1,0-0.1,0c0,0-0.1,0-0.1,0c0.1,0.2,0.3,0.4,0.7,0.7
		c0.4,0.2,0.6,0.4,0.7,0.6c0,0.1,0.1,0.3,0.1,0.5c0,0.2,0.1,0.4,0.1,0.5c0.1,0.1,0.2,0.2,0.4,0.1c0.1-0.6-0.3-1.6-1.2-3
		c-0.5-0.8-0.8-1.3-0.8-1.4c-0.1-0.2-0.2-0.4-0.3-0.7c-0.1-0.3-0.2-0.6-0.2-0.7c0.1,0,0.2,0,0.3,0.1c0.1,0,0.3,0.1,0.4,0.2
		c0.1,0.1,0.3,0.1,0.4,0.2s0.1,0.1,0.1,0.1c-0.1,0.2-0.1,0.5,0.1,0.8c0.2,0.3,0.4,0.6,0.6,0.9c0.2,0.3,0.5,0.6,0.8,0.9
		c0.3,0.4,0.5,0.6,0.6,0.6c0.2,0.2,0.4,0.5,0.7,0.9c0.3,0.4,0.3,0.6,0,0.6c0.3,0,0.6,0.2,1,0.5c0.4,0.3,0.6,0.6,0.8,0.9
		c0.2,0.3,0.3,0.7,0.4,1.3c0.1,0.6,0.2,1,0.2,1.2c0.1,0.2,0.2,0.4,0.4,0.6c0.2,0.2,0.4,0.4,0.6,0.5c0.2,0.1,0.4,0.2,0.8,0.4
		s0.5,0.3,0.6,0.3c0.2,0.1,0.5,0.2,0.9,0.5c0.4,0.3,0.8,0.5,1,0.6c0.3,0.1,0.6,0.2,0.8,0.2c0.2,0,0.4,0,0.7-0.1
		c0.3-0.1,0.5-0.1,0.6-0.2c0.5-0.1,0.9,0.2,1.4,0.7c0.4,0.5,0.8,0.9,1,1c1.2,0.6,2,0.8,2.6,0.5c-0.1,0-0.1,0.2,0,0.4
		c0.1,0.2,0.2,0.5,0.4,0.7c0.2,0.3,0.3,0.5,0.4,0.7c0.1,0.2,0.2,0.3,0.3,0.4c0.2,0.2,0.4,0.4,0.9,0.7c0.4,0.3,0.7,0.5,0.9,0.7
		c0.2-0.1,0.3-0.3,0.3-0.4c-0.1,0.3,0,0.6,0.3,1c0.3,0.4,0.6,0.5,0.9,0.5c0.4-0.1,0.7-0.6,0.7-1.5c-1,0.5-1.8,0.2-2.4-0.9
		c0,0,0-0.1-0.1-0.3c-0.1-0.1-0.1-0.3-0.2-0.4c0-0.1-0.1-0.3-0.1-0.4c0-0.1,0-0.3,0-0.4c0-0.1,0.1-0.1,0.2-0.1
		c0.3,0,0.4-0.1,0.5-0.2c0-0.1,0-0.3-0.1-0.6c-0.1-0.3-0.2-0.5-0.2-0.6c0-0.3-0.2-0.6-0.5-1c-0.3-0.4-0.5-0.6-0.6-0.7
		c-0.2,0.3-0.4,0.4-0.8,0.4c-0.4,0-0.6-0.2-0.8-0.4c0,0,0,0.1-0.1,0.3c0,0.1-0.1,0.2-0.1,0.3c-0.4,0-0.7,0-0.7,0
		c0-0.1,0.1-0.4,0.1-0.8s0.1-0.8,0.2-1.1c0-0.1,0.1-0.3,0.3-0.6s0.3-0.5,0.4-0.7c0.1-0.2,0.2-0.4,0.2-0.6c0-0.2,0-0.3-0.2-0.5
		c-0.2-0.1-0.5-0.2-0.8-0.1c-0.6,0-1,0.4-1.2,1c0,0.1-0.1,0.3-0.1,0.5c-0.1,0.2-0.1,0.4-0.2,0.6c-0.1,0.1-0.2,0.2-0.4,0.3
		c-0.2,0.1-0.6,0.1-1.2,0.1c-0.5,0-0.9-0.1-1.2-0.2c-0.4-0.3-0.8-0.7-1.1-1.4c-0.3-0.7-0.5-1.3-0.5-1.8c0-0.3,0-0.7,0.1-1.3
		c0.1-0.5,0.1-0.9,0.1-1.2c0-0.3-0.1-0.7-0.3-1.2c0.1-0.1,0.2-0.2,0.4-0.5s0.4-0.4,0.5-0.5c0.1,0,0.1-0.1,0.2-0.1c0.1,0,0.2,0,0.2,0
		c0.1,0,0.1,0,0.2-0.1c0.1-0.1,0.1-0.2,0.1-0.3c0,0-0.1-0.1-0.2-0.1c-0.1-0.1-0.2-0.1-0.2-0.1c0.2,0.1,0.7,0.1,1.4-0.1
		c0.7-0.1,1.1-0.1,1.3,0.1c0.5,0.4,0.8,0.3,1.1-0.1c0,0,0-0.2-0.1-0.5s-0.1-0.5,0-0.6c0.2,0.9,0.6,1,1.4,0.4
		c0.1,0.1,0.3,0.2,0.7,0.2c0.4,0.1,0.7,0.1,0.8,0.2c0.1,0.1,0.2,0.2,0.3,0.3c0.1,0.1,0.2,0.2,0.3,0.2c0,0,0.1,0,0.2,0
		c0.1,0,0.2-0.2,0.4-0.3c0.3,0.4,0.5,0.8,0.6,1.2c0.4,1.3,0.7,2,0.9,2.1c0.2,0.1,0.4,0.1,0.5,0.1c0.1,0,0.2-0.2,0.2-0.5
		c0-0.3,0-0.5,0-0.7c0-0.2,0-0.4-0.1-0.6l0-0.4c0-0.3,0-0.6,0-0.9l0-0.4c-0.5-0.1-0.8-0.3-0.9-0.6c-0.1-0.3-0.1-0.6,0.1-0.9
		c0.2-0.3,0.4-0.6,0.7-0.9c0,0,0.2-0.1,0.4-0.2c0.2-0.1,0.5-0.2,0.7-0.3c0.3-0.1,0.5-0.3,0.6-0.4c0.7-0.6,0.9-1.2,0.7-1.7
		c0.2,0,0.4-0.1,0.5-0.4c0,0-0.1,0-0.2-0.1c-0.1-0.1-0.2-0.2-0.4-0.2c-0.1-0.1-0.2-0.1-0.2-0.1c0.3-0.2,0.3-0.4,0.1-0.8
		c0.2-0.1,0.3-0.3,0.4-0.5c0.1-0.3,0.2-0.4,0.4-0.5c0.3,0.4,0.6,0.4,1,0.1c0.3-0.3,0.3-0.5,0-0.8c0.2-0.2,0.5-0.4,1-0.5
		c0.5-0.1,0.8-0.3,0.9-0.5c0.2,0.1,0.4,0,0.4-0.1c0-0.1,0-0.3,0-0.6c0-0.3,0-0.4,0.1-0.6c0.1-0.2,0.4-0.3,0.7-0.4s0.6-0.2,0.6-0.2
		l0.8-0.5c0.1-0.1,0.1-0.2,0-0.2c0.6,0.1,1.1-0.1,1.5-0.5c0.3-0.4,0.2-0.7-0.3-1c0.1-0.2,0-0.3-0.1-0.5c-0.2-0.1-0.4-0.2-0.7-0.3
		c0.1,0,0.3,0,0.6,0s0.4,0,0.5-0.1c0.5-0.3,0.4-0.6-0.3-0.8C218.7,125.9,218.1,126.1,217.2,126.6z M209.4,168.8
		c6.6-1.2,12.2-4.2,16.9-9.1c-0.1-0.1-0.3-0.2-0.6-0.2c-0.3,0-0.5-0.1-0.6-0.2c-0.6-0.2-1-0.4-1.2-0.4c0-0.2,0-0.4-0.1-0.6
		c-0.1-0.2-0.2-0.3-0.4-0.4c-0.1-0.1-0.3-0.2-0.6-0.4s-0.4-0.3-0.5-0.3c-0.1-0.1-0.2-0.2-0.3-0.3s-0.3-0.2-0.3-0.3
		c-0.1,0-0.2-0.1-0.4-0.2c-0.2-0.1-0.3-0.1-0.4-0.1c-0.1,0-0.3,0-0.5,0l-0.1,0c-0.1,0-0.2,0.1-0.3,0.1c-0.1,0-0.2,0.1-0.3,0.1
		c-0.1,0-0.2,0.1-0.2,0.1s0,0.1,0,0.1c-0.7-0.5-1.2-0.9-1.7-1.1c-0.2,0-0.3-0.1-0.5-0.3c-0.2-0.1-0.4-0.3-0.5-0.3
		c-0.1-0.1-0.3-0.1-0.5-0.1c-0.2,0-0.4,0.1-0.6,0.3c-0.2,0.2-0.3,0.4-0.3,0.7c0,0.3-0.1,0.5-0.1,0.6c-0.2-0.2-0.2-0.4,0-0.8
		s0.3-0.7,0.1-0.9c-0.1-0.2-0.3-0.3-0.5-0.2c-0.2,0-0.4,0.1-0.6,0.2c-0.1,0.1-0.3,0.2-0.6,0.4c-0.2,0.2-0.4,0.3-0.4,0.3
		c-0.1,0-0.2,0.1-0.4,0.3c-0.2,0.1-0.3,0.3-0.4,0.4c-0.1,0.1-0.2,0.3-0.3,0.6c-0.1,0.3-0.2,0.4-0.2,0.5c-0.1-0.1-0.2-0.2-0.6-0.3
		c-0.3-0.1-0.5-0.2-0.5-0.3c0.1,0.3,0.1,0.9,0.2,1.7c0.1,0.8,0.1,1.4,0.2,1.8c0.2,1,0,1.8-0.6,2.3c-0.9,0.8-1.3,1.4-1.4,1.9
		c-0.1,0.7,0.1,1.1,0.6,1.2c0,0.2-0.1,0.6-0.4,1c-0.3,0.4-0.4,0.8-0.3,1C209.3,168.2,209.3,168.5,209.4,168.8z"/>
</g>
<g>
	<g>
		<path class="st2" d="M204.6,232c-51.7,0-93.8-42.1-93.8-93.8s42.1-93.8,93.8-93.8s93.8,42.1,93.8,93.8S256.4,232,204.6,232z
			 M204.6,60.8c-42.7,0-77.4,34.7-77.4,77.4s34.7,77.4,77.4,77.4s77.4-34.7,77.4-77.4S247.3,60.8,204.6,60.8z"/>
	</g>
</g>
<g>
	<g>
		<path class="st3" d="M204.6,249.3c-61.3,0-111.1-49.8-111.1-111.1S143.3,27.1,204.6,27.1s111.1,49.8,111.1,111.1
			S265.9,249.3,204.6,249.3z M204.6,39.1c-54.6,0-99.1,44.4-99.1,99.1s44.4,99.1,99.1,99.1s99.1-44.4,99.1-99.1
			S259.2,39.1,204.6,39.1z"/>
	</g>
</g>
<g>
	<g>
		<path class="st1" d="M204.6,208.9c-39,0-70.7-31.7-70.7-70.7s31.7-70.7,70.7-70.7s70.7,31.7,70.7,70.7S243.6,208.9,204.6,208.9z
			 M204.6,79.9c-32.2,0-58.3,26.2-58.3,58.3s26.2,58.3,58.3,58.3s58.3-26.2,58.3-58.3S236.8,79.9,204.6,79.9z"/>
	</g>
</g>
<g>
	<path class="st1" d="M126.1,53.8l-21,3c-6.5,0.9-12.6-3.6-13.6-10.2l-3-21C87.6,19.1,92.1,13,98.7,12l21-3
		c6.5-0.9,12.6,3.6,13.6,10.2l3,21C137.2,46.8,132.6,52.9,126.1,53.8z"/>
	<path class="st0" d="M103.4,57.7c-2.7,0-5.4-0.9-7.6-2.6c-2.7-2-4.5-5-5-8.4l-3-21c-0.5-3.4,0.4-6.7,2.4-9.4c2-2.7,5-4.5,8.4-5
		l21-3c7-1,13.4,3.8,14.4,10.8l3,21c0.5,3.4-0.4,6.7-2.4,9.4c-2,2.7-5,4.5-8.4,5h0l-21,3C104.6,57.6,104,57.7,103.4,57.7z
		 M121.4,9.6c-0.5,0-1.1,0-1.6,0.1l-21,3c-3,0.4-5.6,2-7.4,4.4c-1.8,2.4-2.6,5.4-2.1,8.3l3,21c0.4,3,2,5.6,4.4,7.4
		c2.4,1.8,5.4,2.6,8.3,2.1l21-3c3-0.4,5.6-2,7.4-4.4c1.8-2.4,2.6-5.4,2.1-8.3l-3-21C131.7,13.7,126.9,9.6,121.4,9.6z"/>
</g>
<g>
	<path class="st1" d="M37.3,79.8l-3.8-0.2c-3.7-0.2-6.6-3.4-6.4-7.1l0.2-3.8c0.2-3.7,3.4-6.6,7.1-6.4l3.8,0.2
		c3.7,0.2,6.6,3.4,6.4,7.1l-0.2,3.8C44.2,77.1,41,80,37.3,79.8z"/>
	<path class="st0" d="M37.7,80.5c-0.1,0-0.2,0-0.4,0l-3.8-0.2c-2-0.1-3.8-1-5.2-2.5c-1.3-1.5-2-3.4-1.9-5.4l0.2-3.8
		c0.2-4.1,3.7-7.3,7.8-7.1l3.8,0.2c2,0.1,3.8,1,5.2,2.5c1.3,1.5,2,3.4,1.9,5.4l-0.2,3.8c-0.1,2-1,3.8-2.5,5.2
		C41.3,79.8,39.5,80.5,37.7,80.5z M34.1,63.1c-3.2,0-5.9,2.5-6,5.7l-0.2,3.8c-0.1,1.6,0.5,3.1,1.6,4.3s2.6,1.9,4.2,2l3.8,0.2
		c1.6,0.1,3.1-0.5,4.3-1.6c1.2-1.1,1.9-2.6,2-4.2l0.2-3.8c0.1-1.6-0.5-3.1-1.6-4.3s-2.6-1.9-4.2-2l-3.8-0.2
		C34.3,63.1,34.2,63.1,34.1,63.1z"/>
</g>
<g>
	<path class="st2" d="M185.7,94.1L154.1,67c-5-4.3-5.6-11.9-1.3-16.9l27.1-31.7c4.3-5,11.9-5.6,16.9-1.3l31.7,27.1
		c5,4.3,5.6,11.9,1.3,16.9l-27.1,31.7C198.4,97.8,190.7,98.4,185.7,94.1z"/>
	<path class="st0" d="M193.5,98.2c-3,0-6.1-1-8.6-3.2l-31.7-27.1c-5.5-4.7-6.2-13.1-1.4-18.6l27.1-31.7c4.7-5.5,13.1-6.2,18.6-1.4
		l31.7,27.1c2.7,2.3,4.3,5.5,4.6,9s-0.8,6.9-3.1,9.6l-27.1,31.7C201,96.7,197.3,98.2,193.5,98.2z M186.5,93.2
		c4.5,3.9,11.3,3.3,15.2-1.2l27.1-31.7c1.9-2.2,2.8-5,2.5-7.8c-0.2-2.9-1.5-5.5-3.7-7.4L196,18.1c-4.5-3.9-11.3-3.3-15.2,1.2
		l-27.1,31.7c-3.9,4.5-3.3,11.3,1.2,15.2L186.5,93.2z"/>
</g>
<g>
	<path class="st3" d="M61.2,81l-3.9-3.1c-4.3-3.4-5.1-9.7-1.7-14l3.1-3.9c3.4-4.3,9.7-5.1,14-1.7l5.9,4.7c3.2,2.5,3.8,7.2,1.2,10.4
		l-4.7,5.9C71.8,83.7,65.5,84.4,61.2,81z"/>
	<path class="st0" d="M67.4,83.9c-2.3,0-4.7-0.8-6.6-2.3l-3.9-3.1c-2.2-1.8-3.7-4.3-4-7.2s0.5-5.7,2.2-7.9l3.1-3.9
		c3.7-4.6,10.4-5.4,15.1-1.8l5.9,4.7c3.5,2.8,4.1,7.9,1.4,11.5l-4.7,5.9C73.7,82.5,70.5,83.9,67.4,83.9z M61.6,80.4
		c4,3.2,9.8,2.5,13-1.5l4.7-5.9c2.3-2.9,1.8-7.1-1.1-9.4l-5.9-4.7c-4-3.2-9.8-2.5-13,1.5l-3.1,3.9c-1.5,1.9-2.2,4.4-1.9,6.8
		c0.3,2.5,1.5,4.7,3.5,6.2L61.6,80.4z"/>
</g>
<g>
	<path class="st1" d="M29.5,146.2l-0.4-1.9c-0.5-2.1,0.9-4.1,2.9-4.6l1.9-0.4c2.1-0.5,4.1,0.9,4.6,2.9l0.4,1.9
		c0.5,2.1-0.9,4.1-2.9,4.6l-1.9,0.4C32,149.6,30,148.3,29.5,146.2z"/>
	<path class="st0" d="M33.3,150c-0.9,0-1.7-0.2-2.5-0.7c-1-0.7-1.7-1.7-2-2.9l-0.4-1.9c-0.5-2.5,1-4.9,3.5-5.5l1.9-0.4
		c2.5-0.5,4.9,1,5.5,3.5l0.4,1.9c0.5,2.5-1,4.9-3.5,5.5l-1.9,0.4C33.9,150,33.6,150,33.3,150z M30.2,146.1c0.2,0.8,0.7,1.5,1.4,2
		c0.7,0.4,1.5,0.6,2.3,0.4l1.9-0.4c1.7-0.4,2.7-2,2.4-3.7l-0.4-1.9c-0.4-1.7-2-2.7-3.7-2.4l-1.9,0.4c-1.7,0.4-2.7,2-2.4,3.7
		L30.2,146.1z"/>
</g>
<g>
	<path class="st1" d="M27.2,117.7l-1.4,0.2c-3.1,0.4-6-1.7-6.4-4.8l-0.2-1.4c-0.4-3.1,1.7-6,4.8-6.4l1.4-0.2c3.1-0.4,6,1.7,6.4,4.8
		l0.2,1.4C32.5,114.3,30.3,117.2,27.2,117.7z"/>
	<path class="st0" d="M25,118.7c-3.1,0-5.9-2.3-6.4-5.5l-0.2-1.4c-0.2-1.7,0.2-3.4,1.2-4.8s2.5-2.3,4.2-2.5l1.4-0.2
		c1.7-0.2,3.4,0.2,4.8,1.2c1.4,1,2.3,2.5,2.5,4.2l0.2,1.4c0.2,1.7-0.2,3.4-1.2,4.8c-1,1.4-2.5,2.3-4.2,2.5l-1.4,0.2
		C25.6,118.6,25.3,118.7,25,118.7z M26.2,105.6c-0.2,0-0.5,0-0.7,0.1l-1.4,0.2c-1.3,0.2-2.5,0.9-3.3,1.9s-1.1,2.4-0.9,3.7l0.2,1.4
		c0.4,2.7,2.9,4.6,5.6,4.2l1.4-0.2c1.3-0.2,2.5-0.9,3.3-1.9c0.8-1.1,1.1-2.4,0.9-3.7l-0.2-1.4C30.8,107.4,28.6,105.6,26.2,105.6z"/>
</g>
<g>
	<path class="st3" d="M13.3,132.7l-0.8-1.3c-1.6-2.8-0.7-6.4,2.1-8.1l1.3-0.8c2.8-1.6,6.4-0.7,8.1,2.1l0.8,1.3
		c1.6,2.8,0.7,6.4-2.1,8.1l-1.3,0.8C18.6,136.4,14.9,135.5,13.3,132.7z"/>
	<path class="st0" d="M18.4,136.3c-2.3,0-4.5-1.2-5.7-3.3l-0.8-1.3c-0.9-1.5-1.1-3.3-0.7-5c0.4-1.7,1.5-3.2,3.1-4l1.3-0.8
		c1.5-0.9,3.3-1.1,5-0.7c1.7,0.4,3.2,1.5,4,3.1l0.8,1.3c0.9,1.5,1.1,3.3,0.7,5c-0.4,1.7-1.5,3.2-3.1,4l-1.3,0.8
		C20.7,136,19.5,136.3,18.4,136.3z M13.9,132.3c1.4,2.5,4.6,3.3,7.1,1.9l1.3-0.8c2.5-1.4,3.3-4.6,1.9-7.1l-0.8-1.3
		c-0.7-1.2-1.8-2-3.2-2.4c-1.3-0.4-2.7-0.2-3.9,0.5L15,124c-1.2,0.7-2,1.8-2.4,3.2c-0.4,1.3-0.2,2.7,0.5,3.9L13.9,132.3z"/>
</g>
<g>
	<path class="st3" d="M39.9,106.6l-1.8-0.1c-3.8-0.3-6.7-3.6-6.4-7.4l0.1-1.8c0.3-3.8,3.6-6.7,7.4-6.4L41,91
		c3.8,0.3,6.7,3.6,6.4,7.4l-0.1,1.8C47,104,43.7,106.9,39.9,106.6z"/>
	<path class="st0" d="M40.4,107.4c-0.2,0-0.4,0-0.6,0l-1.8-0.1c-2-0.1-3.9-1.1-5.2-2.6c-1.3-1.6-2-3.5-1.9-5.6l0.1-1.8
		c0.1-2,1.1-3.9,2.6-5.2c1.6-1.3,3.5-2,5.6-1.9l1.8,0.1c2,0.1,3.9,1.1,5.2,2.6c1.3,1.6,2,3.5,1.9,5.6l-0.1,1.8
		C47.7,104.3,44.4,107.4,40.4,107.4z M38.7,91.6c-1.5,0-2.9,0.5-4.1,1.5c-1.3,1.1-2,2.6-2.1,4.2l-0.1,1.8c-0.1,1.6,0.4,3.3,1.5,4.5
		c1.1,1.3,2.6,2,4.2,2.1l1.8,0.1c1.6,0.1,3.2-0.4,4.5-1.5c1.3-1.1,2-2.6,2.1-4.2l0.1-1.8c0.1-1.6-0.4-3.3-1.5-4.5
		c-1.1-1.3-2.6-2-4.2-2.1l-1.8-0.1C39,91.6,38.9,91.6,38.7,91.6z"/>
</g>
<g>
	<path class="st3" d="M19.8,150.1l-1-0.1c-2.1-0.2-3.7-2-3.5-4l0.1-1c0.2-2.1,2-3.7,4-3.5l1,0.1c2.1,0.2,3.7,2,3.5,4l-0.1,1
		C23.7,148.7,21.9,150.3,19.8,150.1z"/>
	<path class="st0" d="M20.1,150.9c-0.1,0-0.2,0-0.3,0l-1-0.1c-1.2-0.1-2.3-0.6-3.1-1.6c-0.8-0.9-1.2-2.1-1.1-3.3l0.1-1
		c0.2-2.5,2.3-4.4,4.8-4.2l1,0.1c1.2,0.1,2.3,0.6,3.1,1.6s1.2,2.1,1.1,3.3l-0.1,1C24.4,149.1,22.4,150.9,20.1,150.9z M19.9,149.4
		c1.7,0.1,3.1-1.1,3.3-2.8l0.1-1c0.1-0.8-0.2-1.6-0.7-2.2s-1.3-1-2.1-1.1l-1-0.1c-1.7-0.1-3.1,1.1-3.3,2.8l-0.1,1
		c-0.1,0.8,0.2,1.6,0.7,2.2c0.5,0.6,1.3,1,2.1,1.1L19.9,149.4z"/>
</g>
<g>
	<path class="st2" d="M44.3,117.1l-1.8-0.4c-4-0.8-7.9,1.8-8.7,5.8l-0.4,1.8c-0.8,4,1.8,7.9,5.8,8.7l1.8,0.4c4,0.8,7.9-1.8,8.7-5.8
		l0.4-1.8C50.9,121.8,48.3,117.9,44.3,117.1z"/>
	<path class="st0" d="M42.5,134.2c-0.5,0-1.1-0.1-1.6-0.2l-1.8-0.4c-2.1-0.4-3.9-1.7-5.1-3.5c-1.2-1.8-1.6-4-1.2-6.1l0.4-1.8
		c0.9-4.4,5.2-7.2,9.5-6.3l1.8,0.4c2.1,0.4,3.9,1.7,5.1,3.5c1.2,1.8,1.6,4,1.2,6.1l-0.4,1.8C49.6,131.6,46.3,134.2,42.5,134.2z
		 M41,117.3c-3.1,0-5.9,2.2-6.5,5.3l-0.4,1.8c-0.4,1.7,0,3.5,1,5c1,1.5,2.5,2.5,4.2,2.8l1.8,0.4c1.7,0.4,3.5,0,5-1s2.5-2.5,2.8-4.2
		l0.4-1.8c0.7-3.6-1.6-7.1-5.2-7.8l-1.8-0.4C41.9,117.3,41.4,117.3,41,117.3z"/>
</g>
<g>
	<path class="st2" d="M21.4,87.2l-1.1-0.2c-2.4-0.5-4.9,1.1-5.3,3.5l-0.2,1.1c-0.5,2.4,1.1,4.9,3.5,5.3l1.1,0.2
		c2.4,0.5,4.9-1.1,5.3-3.5l0.2-1.1C25.4,90.1,23.8,87.6,21.4,87.2z"/>
	<path class="st0" d="M20.3,98c-0.3,0-0.7,0-1.1-0.1l-1.1-0.2c-2.8-0.6-4.7-3.4-4.1-6.2l0.2-1.1c0.3-1.4,1.1-2.6,2.3-3.3
		c1.2-0.8,2.6-1.1,4-0.8l1.1,0.2c1.4,0.3,2.6,1.1,3.3,2.3c0.8,1.2,1.1,2.6,0.8,4l-0.2,1.1c-0.3,1.4-1.1,2.6-2.3,3.3
		C22.3,97.7,21.3,98,20.3,98z M19.4,87.6c-1.8,0-3.4,1.2-3.7,3l-0.2,1.1c-0.4,2.1,0.9,4.1,3,4.5l1.1,0.2c2.1,0.4,4.1-0.9,4.5-3
		l0.2-1.1c0.4-2.1-0.9-4.1-3-4.5l-1.1-0.2C19.9,87.6,19.6,87.6,19.4,87.6z"/>
</g>
<g>
	<path class="st3" d="M31,167.1l-0.9-0.2c-1.9-0.4-3.2-2.3-2.8-4.2l0.2-0.9c0.4-1.9,2.3-3.2,4.2-2.8l0.9,0.2
		c1.9,0.4,3.2,2.3,2.8,4.2l-0.2,0.9C34.8,166.2,32.9,167.5,31,167.1z"/>
	<path class="st0" d="M31.7,167.9c-0.3,0-0.6,0-0.9-0.1l-0.9-0.2c-2.3-0.5-3.8-2.8-3.4-5.1l0.2-0.9c0.5-2.3,2.8-3.8,5.1-3.4l0.9,0.2
		c2.3,0.5,3.8,2.8,3.4,5.1l-0.2,0.9C35.5,166.5,33.7,167.9,31.7,167.9z M31.1,166.4c1.5,0.3,3.1-0.7,3.4-2.2l0.2-0.9
		c0.3-1.5-0.7-3.1-2.2-3.4l-0.9-0.2c-1.5-0.3-3.1,0.7-3.4,2.2l-0.2,0.9c-0.3,1.5,0.7,3.1,2.2,3.4L31.1,166.4z"/>
</g>
<g>
	<path class="st2" d="M23.7,160.5l-1-0.2c-1.2-0.2-1.9-1.4-1.7-2.5l0.2-1c0.2-1.2,1.4-1.9,2.5-1.7l1,0.2c1.2,0.2,1.9,1.4,1.7,2.5
		l-0.2,1C26,160,24.8,160.8,23.7,160.5z"/>
	<path class="st0" d="M24.1,161.3c-0.2,0-0.4,0-0.6-0.1l-1-0.2c-0.8-0.2-1.4-0.6-1.8-1.2s-0.6-1.4-0.4-2.2l0.2-1
		c0.3-1.6,1.8-2.6,3.4-2.2l1,0.2c1.6,0.3,2.6,1.8,2.2,3.4l-0.2,1c-0.2,0.8-0.6,1.4-1.2,1.8C25.2,161.1,24.7,161.3,24.1,161.3z
		 M23.3,155.8c-0.3,0-0.5,0.1-0.8,0.2c-0.3,0.2-0.5,0.5-0.6,0.9l-0.2,1c-0.2,0.8,0.3,1.5,1.1,1.7l1,0.2c0.4,0.1,0.7,0,1.1-0.2
		s0.5-0.5,0.6-0.9l0.2-1c0.2-0.8-0.3-1.5-1.1-1.7l-1-0.2C23.5,155.8,23.4,155.8,23.3,155.8z"/>
</g>
<g>
	<path class="st1" d="M37.2,175.3l-0.6-0.1c-1.4-0.3-2.3-1.6-2-3l0.1-0.6c0.3-1.4,1.6-2.3,3-2l0.6,0.1c1.4,0.3,2.3,1.6,2,3l-0.1,0.6
		C39.9,174.7,38.5,175.6,37.2,175.3z"/>
	<path class="st0" d="M37.7,176.1c-0.2,0-0.4,0-0.7-0.1h0l-0.6-0.1c-1.8-0.4-2.9-2.1-2.6-3.9l0.1-0.6c0.2-0.9,0.7-1.6,1.4-2.1
		c0.7-0.5,1.6-0.7,2.5-0.5l0.6,0.1c1.8,0.4,2.9,2.1,2.6,3.9l-0.1,0.6c-0.2,0.9-0.7,1.6-1.4,2.1C38.9,175.9,38.3,176.1,37.7,176.1z
		 M37.3,174.6c0.5,0.1,1,0,1.4-0.3c0.4-0.3,0.7-0.7,0.8-1.2l0.1-0.6c0.2-1-0.4-1.9-1.4-2.1l-0.6-0.1c-0.5-0.1-1,0-1.4,0.3
		s-0.7,0.7-0.8,1.2l-0.1,0.6c-0.2,1,0.4,1.9,1.4,2.1L37.3,174.6z"/>
</g>
<g>
	<path class="st2" d="M131,94l-12.6-1.7c-5-0.7-8.5-5.3-7.8-10.3l1.7-12.6c0.7-5,5.3-8.5,10.3-7.8l12.6,1.7c5,0.7,8.5,5.3,7.8,10.3
		l-1.7,12.6C140.6,91.2,135.9,94.7,131,94z"/>
	<path class="st0" d="M132.2,94.9c-0.4,0-0.9,0-1.3-0.1v0l-12.6-1.7c-2.6-0.4-4.9-1.7-6.5-3.8c-1.6-2.1-2.3-4.7-1.9-7.3l1.7-12.6
		c0.4-2.6,1.7-4.9,3.8-6.5c2.1-1.6,4.7-2.3,7.3-1.9l12.6,1.7c5.4,0.7,9.2,5.7,8.5,11.1L142,86.3C141.3,91.3,137.1,94.9,132.2,94.9z
		 M131.1,93.3c4.6,0.6,8.9-2.6,9.5-7.2l1.7-12.6c0.6-4.6-2.6-8.9-7.2-9.5l-12.6-1.7c-2.2-0.3-4.4,0.3-6.2,1.7
		c-1.8,1.4-3,3.3-3.3,5.6l-1.7,12.6c-0.3,2.2,0.3,4.4,1.7,6.2s3.3,3,5.6,3.3L131.1,93.3z"/>
</g>
<g>
	<path class="st2" d="M66.7,49.7l-9.5-1.3c-5-0.7-8.5-5.3-7.8-10.3l1.3-9.5c0.7-5,5.3-8.5,10.3-7.8l9.5,1.3c5,0.7,8.5,5.3,7.8,10.3
		L77,41.9C76.3,46.9,71.7,50.4,66.7,49.7z"/>
	<path class="st0" d="M68,50.6c-0.4,0-0.9,0-1.3-0.1l-9.5-1.3c-5.4-0.7-9.2-5.7-8.5-11.1l1.3-9.5c0.7-5.4,5.7-9.2,11.1-8.5l9.5,1.3
		c5.4,0.7,9.2,5.7,8.5,11.1L77.7,42C77.1,47,72.8,50.6,68,50.6z M59.7,21.4c-4.1,0-7.8,3.1-8.3,7.3l-1.3,9.5
		c-0.6,4.6,2.6,8.9,7.2,9.5l9.5,1.3c4.6,0.6,8.9-2.6,9.5-7.2l1.3-9.5c0.6-4.6-2.6-8.9-7.2-9.5l-9.5-1.3
		C60.5,21.5,60.1,21.4,59.7,21.4z"/>
</g>
<g>
	<path class="st1" d="M101.9,88l-9.3,2c-2.3,0.5-4.5-1-5-3.2l-2-9.3c-0.5-2.3,1-4.5,3.2-5l9.3-2c2.3-0.5,4.5,1,5,3.2l2,9.3
		C105.6,85.3,104.2,87.5,101.9,88z"/>
	<path class="st0" d="M91.7,90.9c-0.9,0-1.9-0.3-2.7-0.8c-1.1-0.7-1.9-1.8-2.2-3.1l-2-9.3c-0.6-2.7,1.1-5.3,3.8-5.9l9.3-2
		c1.3-0.3,2.6,0,3.7,0.7c1.1,0.7,1.9,1.8,2.2,3.1l2,9.3c0.3,1.3,0,2.6-0.7,3.7c-0.7,1.1-1.8,1.9-3.1,2.2l-9.3,2
		C92.4,90.9,92,90.9,91.7,90.9z M98.9,71.1c-0.3,0-0.5,0-0.8,0.1l-9.3,2c-1.9,0.4-3.1,2.3-2.7,4.2l2,9.3c0.4,1.9,2.3,3.1,4.2,2.7
		l9.3-2c0.9-0.2,1.7-0.7,2.2-1.5c0.5-0.8,0.7-1.7,0.5-2.6l-2-9.3c-0.2-0.9-0.7-1.7-1.5-2.2C100.2,71.3,99.6,71.1,98.9,71.1z"/>
</g>
<g>
	<path class="st1" d="M63.6,101.6l-5.3,1.2c-2.3,0.5-4.5-1-5-3.2L52,94.2c-0.5-2.3,1-4.5,3.2-5l5.3-1.2c2.3-0.5,4.5,1,5,3.2l1.2,5.3
		C67.3,98.8,65.8,101.1,63.6,101.6z"/>
	<path class="st0" d="M57.3,103.6c-2.3,0-4.3-1.6-4.8-3.9l-1.2-5.3c-0.6-2.7,1.1-5.3,3.8-5.9l5.3-1.2c1.3-0.3,2.6,0,3.7,0.7
		c1.1,0.7,1.9,1.8,2.2,3.1l1.2,5.3c0.6,2.7-1.1,5.3-3.8,5.9l-5.3,1.2C58.1,103.5,57.7,103.6,57.3,103.6z M61.5,88.6
		c-0.3,0-0.5,0-0.8,0.1l-5.3,1.2c-0.9,0.2-1.7,0.7-2.2,1.5c-0.5,0.8-0.7,1.7-0.5,2.6l1.2,5.3c0.4,1.9,2.3,3.1,4.2,2.7l5.3-1.2
		c0.9-0.2,1.7-0.7,2.2-1.5c0.5-0.8,0.7-1.7,0.5-2.6l-1.2-5.3c-0.2-0.9-0.7-1.7-1.5-2.2C62.8,88.8,62.1,88.6,61.5,88.6z"/>
</g>
<g>
	<path class="st2" d="M266.4,232.2l29-3.7c6.5-0.8,12.6,3.9,13.4,10.4l3.7,29c0.8,6.5-3.9,12.6-10.4,13.4l-29,3.7
		c-6.5,0.8-12.6-3.9-13.4-10.4l-3.7-29C255.1,239.1,259.8,233,266.4,232.2z"/>
	<path class="st0" d="M271.5,286c-2.8,0-5.6-0.9-7.9-2.7c-2.7-2.1-4.5-5.1-4.9-8.5l-3.7-29c-0.4-3.4,0.5-6.8,2.6-9.5
		s5.1-4.5,8.5-4.9l29-3.7c3.4-0.4,6.8,0.5,9.5,2.6c2.7,2.1,4.5,5.1,4.9,8.5l3.7,29c0.4,3.4-0.5,6.8-2.6,9.5
		c-2.1,2.7-5.1,4.5-8.5,4.9l-29,3.7C272.6,286,272.1,286,271.5,286z M266.5,233c-2.9,0.4-5.6,1.9-7.4,4.2c-1.8,2.4-2.6,5.3-2.3,8.2
		l3.7,29c0.4,2.9,1.9,5.6,4.2,7.4c2.4,1.8,5.3,2.6,8.2,2.3l29-3.7c2.9-0.4,5.6-1.9,7.4-4.2s2.6-5.3,2.3-8.2l-3.7-29
		c-0.4-2.9-1.9-5.6-4.2-7.4c-2.4-1.8-5.3-2.6-8.2-2.3L266.5,233z"/>
</g>
<g>
	<path class="st1" d="M372.3,202.9l6.8,0.4c3.7,0.2,6.5,3.5,6.3,7.2l-0.4,6.8c-0.2,3.7-3.5,6.5-7.2,6.3l-6.8-0.4
		c-3.7-0.2-6.5-3.5-6.3-7.2l0.4-6.8C365.4,205.5,368.6,202.7,372.3,202.9z"/>
	<path class="st0" d="M378.3,224.6c-0.2,0-0.3,0-0.5,0l-6.8-0.4c-2-0.1-3.9-1-5.2-2.6s-2-3.5-1.9-5.5l0.4-6.8c0.1-2,1-3.9,2.6-5.2
		c1.5-1.3,3.5-2,5.5-1.9l6.8,0.4c2,0.1,3.9,1,5.2,2.6s2,3.5,1.9,5.5l-0.4,6.8C385.6,221.5,382.3,224.6,378.3,224.6z M371.9,203.8
		c-1.4,0-2.8,0.5-3.9,1.5c-1.2,1-1.9,2.5-2,4l-0.4,6.8c-0.1,1.6,0.4,3.1,1.5,4.3s2.5,1.9,4,2l6.8,0.4c3.3,0.2,6.1-2.3,6.3-5.5
		l0.4-6.8c0.1-1.6-0.4-3.1-1.5-4.3s-2.5-1.9-4-2l-6.8-0.4C372.2,203.8,372,203.8,371.9,203.8z"/>
</g>
<g>
	<path class="st1" d="M217.3,187.5l19.4,34.5c3.2,5.8,1.2,13.1-4.6,16.3l-34.5,19.4c-5.8,3.2-13.1,1.2-16.3-4.6l-19.4-34.5
		c-3.2-5.8-1.2-13.1,4.6-16.3l34.5-19.4C206.7,179.7,214,181.7,217.3,187.5z"/>
	<path class="st0" d="M191.8,260.7c-1.2,0-2.4-0.2-3.7-0.5c-3.5-1-6.3-3.2-8.1-6.3l-19.4-34.5c-3.6-6.5-1.3-14.7,5.1-18.3l34.5-19.4
		c6.5-3.6,14.7-1.3,18.3,5.1l19.4,34.5c1.8,3.1,2.2,6.7,1.2,10.2c-1,3.5-3.2,6.3-6.3,8.1L198.3,259
		C196.3,260.1,194.1,260.7,191.8,260.7z M206.8,182.8c-1.8,0-3.5,0.4-5.2,1.4l-34.5,19.4c-5.1,2.9-6.9,9.3-4,14.4l19.4,34.5
		c1.4,2.4,3.6,4.2,6.4,5c2.7,0.8,5.6,0.4,8-1l34.5-19.4c2.4-1.4,4.2-3.6,5-6.4c0.8-2.7,0.4-5.6-1-8L216,188.2
		C214.1,184.7,210.5,182.8,206.8,182.8z"/>
</g>
<g>
	<path class="st3" d="M344.1,200l7.3,6c4.3,3.5,4.9,9.8,1.4,14.1l-6,7.3c-3.5,4.3-9.8,4.9-14.1,1.4l-9.3-7.6
		c-3.2-2.6-3.6-7.3-1.1-10.5l7.6-9.3C333.5,197.2,339.8,196.5,344.1,200z"/>
	<path class="st0" d="M339.1,231.8c-2.5,0-4.9-0.8-6.8-2.4l-9.3-7.6c-1.7-1.4-2.8-3.4-3-5.6c-0.2-2.2,0.4-4.4,1.8-6.1l7.6-9.3
		c3.8-4.6,10.6-5.3,15.3-1.5l7.3,6c2.2,1.8,3.6,4.4,3.9,7.3s-0.6,5.7-2.4,8l-6,7.3c-1.8,2.2-4.4,3.6-7.3,3.9
		C339.8,231.8,339.4,231.8,339.1,231.8z M337.8,198.6c-2.7,0-5.3,1.1-7.1,3.4l-7.6,9.3c-2.3,2.8-1.9,7,0.9,9.2l9.3,7.6
		c1.9,1.5,4.3,2.2,6.7,2c2.4-0.2,4.6-1.4,6.2-3.3l6-7.3c1.5-1.9,2.2-4.3,2-6.7c-0.2-2.4-1.4-4.6-3.3-6.2l-7.3-6
		C341.8,199.3,339.8,198.6,337.8,198.6z"/>
</g>
<g>
	<path class="st1" d="M383.8,124.2l0.7,3.6c0.4,2.1-0.9,4.1-3,4.5l-3.6,0.7c-2.1,0.4-4.1-0.9-4.5-3l-0.7-3.6c-0.4-2.1,0.9-4.1,3-4.5
		l3.6-0.7C381.4,120.8,383.4,122.2,383.8,124.2z"/>
	<path class="st0" d="M377.2,134c-0.9,0-1.8-0.3-2.6-0.8c-1-0.7-1.8-1.8-2-3l-0.7-3.6c-0.5-2.5,1.1-5,3.7-5.5l3.6-0.7
		c2.5-0.5,5,1.1,5.5,3.7l0.7,3.6c0.2,1.2,0,2.5-0.7,3.5c-0.7,1.1-1.8,1.8-3,2l-3.6,0.7C377.8,134,377.5,134,377.2,134z M380.1,122
		c-0.2,0-0.4,0-0.6,0.1l-3.6,0.7c-1.6,0.3-2.7,1.9-2.3,3.5l0.7,3.6c0.2,0.8,0.6,1.4,1.3,1.9c0.7,0.4,1.5,0.6,2.2,0.4l3.6-0.7
		c0.8-0.2,1.4-0.6,1.9-1.3c0.4-0.7,0.6-1.5,0.4-2.2l-0.7-3.6C382.7,123,381.5,122,380.1,122z"/>
</g>
<g>
	<path class="st1" d="M385.2,158.7l3.7-0.5c3.1-0.4,6,1.8,6.4,4.9l0.5,3.7c0.4,3.1-1.8,6-4.9,6.4l-3.7,0.5c-3.1,0.4-6-1.8-6.4-4.9
		l-0.5-3.7C379.8,162,382.1,159.1,385.2,158.7z"/>
	<path class="st0" d="M386.3,174.6c-3.3,0-6.1-2.4-6.5-5.7l-0.5-3.7c-0.2-1.7,0.3-3.4,1.3-4.8c1.1-1.4,2.6-2.3,4.3-2.5l3.7-0.5
		c1.7-0.2,3.4,0.3,4.8,1.3c1.4,1.1,2.3,2.6,2.5,4.3l0.5,3.7c0.5,3.6-2.1,6.9-5.7,7.3l-3.7,0.5C386.9,174.6,386.6,174.6,386.3,174.6z
		 M385.3,159.6c-1.3,0.2-2.4,0.8-3.2,1.8c-0.8,1-1.1,2.3-1,3.6l0.5,3.7c0.3,2.6,2.8,4.5,5.4,4.2l3.7-0.5c1.3-0.2,2.4-0.8,3.2-1.8
		c0.8-1,1.1-2.3,1-3.6l-0.5-3.7c-0.2-1.3-0.8-2.4-1.8-3.2c-1-0.8-2.3-1.1-3.6-1L385.3,159.6z"/>
</g>
<g>
	<path class="st3" d="M402.3,140.3l1.9,3.4c1.6,2.8,0.6,6.4-2.2,8l-3.4,1.9c-2.8,1.6-6.4,0.6-8-2.2l-1.9-3.4c-1.6-2.8-0.6-6.4,2.2-8
		l3.4-1.9C397.1,136.4,400.7,137.4,402.3,140.3z"/>
	<path class="st0" d="M395.7,155.2c-0.6,0-1.2-0.1-1.8-0.3c-1.7-0.5-3.2-1.6-4.1-3.2l-1.9-3.4c-0.9-1.6-1.1-3.4-0.6-5.1
		c0.5-1.7,1.6-3.2,3.2-4.1l3.4-1.9c1.6-0.9,3.4-1.1,5.1-0.6c1.7,0.5,3.2,1.6,4.1,3.2l1.9,3.4c0.9,1.6,1.1,3.4,0.6,5.1
		c-0.5,1.7-1.6,3.2-3.2,4.1l-3.4,1.9C398,154.9,396.9,155.2,395.7,155.2z M397.2,138.1c-0.9,0-1.7,0.2-2.5,0.6l-3.4,1.9
		c-1.2,0.7-2,1.7-2.4,3s-0.2,2.7,0.5,3.8l1.9,3.4c0.7,1.2,1.7,2,3,2.4c1.3,0.4,2.7,0.2,3.8-0.5l3.4-1.9c1.2-0.7,2-1.7,2.4-3
		c0.4-1.3,0.2-2.7-0.5-3.8l-1.9-3.4c-0.7-1.2-1.7-2-3-2.4C398.1,138.2,397.6,138.1,397.2,138.1z"/>
</g>
<g>
	<path class="st3" d="M369.8,171.3l4.5,0.4c3.8,0.3,6.6,3.7,6.3,7.5l-0.4,4.5c-0.3,3.8-3.7,6.6-7.5,6.3l-4.5-0.4
		c-3.8-0.3-6.6-3.7-6.3-7.5l0.4-4.5C362.6,173.8,366,170.9,369.8,171.3z"/>
	<path class="st0" d="M373.3,190.9c-0.2,0-0.5,0-0.7,0l-4.5-0.4c-4.3-0.4-7.5-4.2-7.1-8.5l0.4-4.5c0.2-2.1,1.2-3.9,2.8-5.3
		c1.6-1.3,3.6-2,5.7-1.8l4.5,0.4c2.1,0.2,3.9,1.2,5.3,2.8s2,3.6,1.8,5.7l-0.4,4.5C380.7,187.9,377.3,190.9,373.3,190.9z
		 M369.2,172.1c-1.4,0-2.8,0.5-3.9,1.4c-1.3,1-2,2.5-2.2,4.1l-0.4,4.5c-0.3,3.3,2.2,6.3,5.5,6.6l4.5,0.4c3.3,0.3,6.3-2.2,6.6-5.5
		l0.4-4.5c0.1-1.6-0.4-3.2-1.4-4.4c-1-1.3-2.5-2-4.1-2.2l-4.5-0.4C369.5,172.1,369.4,172.1,369.2,172.1z"/>
</g>
<g>
	<path class="st3" d="M394.8,120.4l2.5,0.2c2.1,0.2,3.6,2,3.4,4.1l-0.2,2.5c-0.2,2.1-2,3.6-4.1,3.4l-2.5-0.2c-2.1-0.2-3.6-2-3.4-4.1
		l0.2-2.5C390.9,121.8,392.8,120.3,394.8,120.4z"/>
	<path class="st0" d="M396.7,131.5c-0.1,0-0.3,0-0.4,0l-2.5-0.2c-2.5-0.2-4.4-2.5-4.2-5l0.2-2.5c0.2-2.5,2.5-4.4,5-4.2l2.5,0.2
		c2.5,0.2,4.4,2.5,4.2,5l-0.2,2.5c-0.1,1.2-0.7,2.3-1.6,3.1C398.9,131.2,397.8,131.5,396.7,131.5z M394.5,121.3
		c-0.7,0-1.3,0.2-1.9,0.7c-0.6,0.5-1,1.2-1,2l-0.2,2.5c-0.1,1.6,1,3,2.7,3.2l2.5,0.2c1.6,0.1,3-1,3.2-2.7l0.2-2.5
		c0.1-1.6-1-3-2.7-3.2l-2.5-0.2C394.7,121.3,394.6,121.3,394.5,121.3z"/>
</g>
<g>
	<path class="st2" d="M364.7,158.7l4.7,1c4,0.9,7.9-1.7,8.8-5.6l1-4.7c0.9-4-1.7-7.9-5.6-8.8l-4.7-1c-4-0.9-7.9,1.7-8.8,5.6l-1,4.7
		C358.2,153.9,360.8,157.8,364.7,158.7z"/>
	<path class="st0" d="M371,160.8c-0.6,0-1.2-0.1-1.8-0.2l-4.7-1c-4.4-1-7.2-5.4-6.3-9.8l1-4.7c1-4.4,5.4-7.2,9.8-6.3l4.7,1
		c2.1,0.5,4,1.8,5.2,3.6c1.2,1.9,1.6,4.1,1.1,6.2l-1,4.7C378.2,158.2,374.8,160.8,371,160.8z M364.9,157.9l4.7,1
		c3.5,0.8,7-1.5,7.8-5l1-4.7c0.4-1.7,0.1-3.4-0.9-4.9c-0.9-1.5-2.4-2.5-4.1-2.9l-4.7-1c-3.5-0.8-7,1.5-7.8,5l-1,4.7
		C359.2,153.6,361.4,157.1,364.9,157.9L364.9,157.9z"/>
</g>
<g>
	<path class="st2" d="M391.6,194.5l2.9,0.6c2.4,0.5,4.9-1,5.4-3.5l0.6-2.9c0.5-2.4-1-4.9-3.5-5.4l-2.9-0.6c-2.4-0.5-4.9,1-5.4,3.5
		l-0.6,2.9C387.6,191.5,389.2,194,391.6,194.5z"/>
	<path class="st0" d="M395.5,196.1c-0.4,0-0.8,0-1.2-0.1l-2.9-0.6c-2.9-0.6-4.7-3.5-4.1-6.4l0.6-2.9c0.3-1.4,1.1-2.6,2.4-3.4
		c1.2-0.8,2.7-1,4.1-0.7l2.9,0.6c2.9,0.6,4.7,3.5,4.1,6.4l-0.6,2.9C400.2,194.4,398,196.1,395.5,196.1z M393.2,183.5
		c-1.7,0-3.2,1.2-3.6,2.9l-0.6,2.9c-0.4,2,0.8,3.9,2.8,4.4l2.9,0.6c1,0.2,1.9,0,2.8-0.5c0.8-0.5,1.4-1.3,1.6-2.3l0.6-2.9
		c0.4-2-0.8-3.9-2.8-4.4l-2.9-0.6C393.8,183.5,393.5,183.5,393.2,183.5z"/>
</g>
<g>
	<path class="st3" d="M382.1,100.2l2.3,0.5c1.9,0.4,3.2,2.3,2.7,4.3l-0.5,2.3c-0.4,1.9-2.3,3.2-4.3,2.7l-2.3-0.5
		c-1.9-0.4-3.2-2.3-2.7-4.3l0.5-2.3C378.2,101,380.1,99.7,382.1,100.2z"/>
	<path class="st0" d="M383.1,110.9c-0.3,0-0.6,0-1-0.1l-2.3-0.5c-1.2-0.3-2.1-0.9-2.8-2c-0.6-1-0.9-2.2-0.6-3.3l0.5-2.3
		c0.5-2.4,2.9-3.9,5.3-3.4l2.3,0.5c1.2,0.3,2.1,0.9,2.8,2c0.6,1,0.9,2.2,0.6,3.3l-0.5,2.3C387,109.5,385.1,110.9,383.1,110.9z
		 M381.3,100.9c-1.3,0-2.4,0.9-2.7,2.1l-0.5,2.3c-0.2,0.7,0,1.4,0.4,2.1c0.4,0.6,1,1,1.7,1.2l2.3,0.5c0.7,0.2,1.4,0,2.1-0.4
		c0.6-0.4,1-1,1.2-1.7l0.5-2.3c0.2-0.7,0-1.4-0.4-2.1c-0.4-0.6-1-1-1.7-1.2l-2.3-0.5C381.7,101,381.5,100.9,381.3,100.9z"/>
</g>
<g>
	<path class="st2" d="M390.8,108.1l1.9,0.4c1.2,0.3,1.9,1.4,1.6,2.6l-0.4,1.9c-0.3,1.2-1.4,1.9-2.6,1.6l-1.9-0.4
		c-1.2-0.3-1.9-1.4-1.6-2.6l0.4-1.9C388.5,108.6,389.6,107.9,390.8,108.1z"/>
	<path class="st0" d="M391.8,115.5c-0.2,0-0.4,0-0.6-0.1l-1.9-0.4c-1.6-0.4-2.6-2-2.3-3.6l0.4-1.9c0.2-0.8,0.6-1.5,1.3-1.9
		c0.7-0.4,1.5-0.6,2.3-0.4l1.9,0.4c0.8,0.2,1.5,0.6,1.9,1.3s0.6,1.5,0.4,2.3l-0.4,1.9C394.4,114.6,393.2,115.5,391.8,115.5z
		 M390.3,108.9c-0.2,0-0.5,0.1-0.7,0.2c-0.3,0.2-0.5,0.5-0.6,0.8l-0.4,1.9c-0.2,0.7,0.3,1.4,1,1.5l1.9,0.4c0.7,0.1,1.4-0.3,1.5-1
		l0.4-1.9c0.1-0.3,0-0.7-0.2-1s-0.5-0.5-0.8-0.6l-1.9-0.4C390.5,108.9,390.4,108.9,390.3,108.9z"/>
</g>
<g>
	<path class="st1" d="M375.1,90.4l1.6,0.4c1.4,0.3,2.2,1.7,1.9,3l-0.4,1.6c-0.3,1.4-1.7,2.2-3,1.9l-1.6-0.4c-1.4-0.3-2.2-1.7-1.9-3
		l0.4-1.6C372.4,91,373.7,90.1,375.1,90.4z"/>
	<path class="st0" d="M375.8,98.3c-0.2,0-0.5,0-0.7-0.1l-1.6-0.4c-0.9-0.2-1.6-0.7-2.1-1.5c-0.5-0.8-0.7-1.7-0.5-2.6l0.4-1.6
		c0.2-0.9,0.7-1.6,1.5-2.1c0.8-0.5,1.7-0.7,2.6-0.5l1.6,0.4c0.9,0.2,1.6,0.7,2.1,1.5c0.5,0.8,0.7,1.7,0.5,2.6l-0.4,1.6
		C378.8,97.2,377.4,98.3,375.8,98.3z M374.5,91.2c-0.8,0-1.5,0.5-1.7,1.3l-0.4,1.6c-0.1,0.4,0,0.9,0.2,1.3c0.2,0.4,0.6,0.6,1.1,0.7
		l1.6,0.4c0.9,0.2,1.8-0.4,2-1.3l0.4-1.6c0.1-0.4,0-0.9-0.2-1.3c-0.2-0.4-0.6-0.6-1.1-0.7l-1.6-0.4
		C374.8,91.2,374.7,91.2,374.5,91.2z"/>
</g>
<g>
	<path class="st1" d="M261.9,184.2l18,2.7c5,0.8,8.4,5.4,7.7,10.4l-2.7,18c-0.8,5-5.4,8.4-10.4,7.7l-18-2.7c-5-0.8-8.4-5.4-7.7-10.4
		l2.7-18C252.2,186.9,256.9,183.4,261.9,184.2z"/>
	<path class="st0" d="M275.8,224c-0.5,0-1,0-1.5-0.1l-18-2.7c-2.6-0.4-5-1.8-6.5-4s-2.2-4.8-1.8-7.4l2.7-18
		c0.8-5.5,5.9-9.2,11.4-8.4l18,2.7c2.6,0.4,5,1.8,6.5,4s2.2,4.8,1.8,7.4l-2.7,18c-0.4,2.6-1.8,5-4,6.5
		C280,223.3,277.9,224,275.8,224z M260.5,184.9c-4,0-7.6,2.9-8.2,7l-2.7,18c-0.3,2.2,0.2,4.4,1.5,6.2s3.2,3,5.4,3.3l18,2.7
		c2.2,0.3,4.4-0.2,6.2-1.5c1.8-1.3,3-3.2,3.3-5.4l2.7-18c0.3-2.2-0.2-4.4-1.5-6.2c-1.3-1.8-3.2-3-5.4-3.3l-18-2.7
		C261.4,185,260.9,184.9,260.5,184.9z"/>
</g>
<g>
	<path class="st2" d="M336.7,237.6l14.4,2.2c5,0.8,8.4,5.4,7.7,10.4l-2.2,14.4c-0.8,5-5.4,8.4-10.4,7.7l-14.4-2.2
		c-5-0.8-8.4-5.4-7.7-10.4l2.2-14.4C327.1,240.3,331.8,236.8,336.7,237.6z"/>
	<path class="st0" d="M347.6,273.3c-0.5,0-1,0-1.5-0.1l-14.4-2.2c-2.6-0.4-5-1.8-6.5-4c-1.6-2.2-2.2-4.8-1.8-7.4l2.2-14.4
		c0.8-5.5,5.9-9.2,11.4-8.4l14.4,2.2c5.5,0.8,9.2,5.9,8.4,11.4l-2.2,14.4c-0.4,2.6-1.8,5-4,6.5C351.7,272.6,349.7,273.3,347.6,273.3
		z M335.3,238.4c-4,0-7.6,2.9-8.2,7l-2.2,14.4c-0.3,2.2,0.2,4.4,1.5,6.2s3.2,3,5.4,3.3l14.4,2.2c2.2,0.3,4.4-0.2,6.2-1.5
		c1.8-1.3,3-3.2,3.3-5.4l2.2-14.4c0.7-4.5-2.4-8.8-6.9-9.4l-14.4-2.2C336.2,238.4,335.8,238.4,335.3,238.4z"/>
</g>
<g>
	<path class="st2" d="M296.9,192.2l12.5-2.5c2.3-0.5,4.5,1,5,3.3l2.5,12.5c0.5,2.3-1,4.5-3.3,5l-12.5,2.5c-2.3,0.5-4.5-1-5-3.3
		l-2.5-12.5C293.1,194.9,294.6,192.7,296.9,192.2z"/>
	<path class="st0" d="M300.3,213.9c-2.4,0-4.5-1.7-5-4.1l-2.5-12.5c-0.6-2.8,1.2-5.4,4-6l12.5-2.5c1.3-0.3,2.7,0,3.8,0.7
		c1.1,0.8,1.9,1.9,2.2,3.2l2.5,12.5c0.3,1.3,0,2.7-0.7,3.8c-0.8,1.1-1.9,1.9-3.2,2.2l-12.5,2.5C301,213.9,300.6,213.9,300.3,213.9z
		 M297.1,193.1c-1.8,0.4-3,2.2-2.6,4l2.5,12.5c0.4,1.8,2.2,3,4,2.6l12.5-2.5c0.9-0.2,1.6-0.7,2.1-1.4c0.5-0.8,0.7-1.7,0.5-2.5
		l-2.5-12.5c-0.4-1.8-2.2-3-4-2.6L297.1,193.1z"/>
</g>
<g>
	<path class="st1" d="M342.3,177l7.8-1.6c2.3-0.5,4.5,1,5,3.3l1.6,7.8c0.5,2.3-1,4.5-3.3,5l-7.8,1.6c-2.3,0.5-4.5-1-5-3.3L339,182
		C338.5,179.7,340,177.5,342.3,177z"/>
	<path class="st0" d="M344.7,194c-2.4,0-4.5-1.7-5-4.1l-1.6-7.8c-0.3-1.3,0-2.7,0.7-3.8s1.9-1.9,3.2-2.2l7.8-1.6
		c1.3-0.3,2.7,0,3.8,0.7c1.1,0.8,1.9,1.9,2.2,3.2l1.6,7.8c0.6,2.8-1.2,5.4-4,6l-7.8,1.6C345.4,194,345.1,194,344.7,194z
		 M350.9,176.2c-0.2,0-0.4,0-0.7,0.1l-7.8,1.6c-0.9,0.2-1.6,0.7-2.1,1.4c-0.5,0.8-0.7,1.7-0.5,2.5l1.6,7.8c0.4,1.8,2.2,3,4,2.6
		l7.8-1.6c1.8-0.4,3-2.2,2.6-4l-1.6-7.8c-0.2-0.9-0.7-1.6-1.4-2.1C352.2,176.4,351.6,176.2,350.9,176.2z"/>
</g>
<g>
	<path class="st2" d="M208.4,81.5c0,0,52.5,9.1,42.5,67.6c0,0,0.3-65.2-55.7-53.4L208.4,81.5z"/>
</g>
<g>
	<path class="st1" d="M191.9,194.9c0,0-50.7-16.5-32.3-73c0,0-9.7,64.4,47.4,60.9L191.9,194.9z"/>
</g>
</svg>
