<?xml version="1.0" encoding="utf-8"?>
<!-- Generator: Adobe Illustrator 16.0.0, SVG Export Plug-In . SVG Version: 6.00 Build 0)  -->
<!DOCTYPE svg PUBLIC "-//W3C//DTD SVG 1.1//EN" "http://www.w3.org/Graphics/SVG/1.1/DTD/svg11.dtd">
<svg version="1.1" id="Layer_1" xmlns="http://www.w3.org/2000/svg" xmlns:xlink="http://www.w3.org/1999/xlink" x="0px" y="0px"
	 width="1000px" height="350px" viewBox="0 0 1000 350" enable-background="new 0 0 1000 350" xml:space="preserve">
<g>
	<path fill-rule="evenodd" clip-rule="evenodd" fill="#B21217" d="M240.499,175.939c-0.112,0.014-0.077,0.436-0.308,0.107
		l-0.008-0.011c0.058-0.605,0.127-1.211-0.045-1.814c-0.041-0.148-0.027-0.304-0.021-0.455c0.072-1.394-0.024-2.787-0.135-4.173
		c-0.174-2.197-0.406-4.392-0.684-6.579c-0.253-1.971-0.582-3.936-0.954-5.891l0.006,0.009c-0.123-0.563-0.253-1.13-0.361-1.699
		c-0.141-0.134-0.07-0.317-0.109-0.477c-0.364-1.543-0.753-3.081-1.135-4.621l0.012,0.016c-0.255-0.551-0.309-1.156-0.479-1.732
		l0.008,0.012c-0.195-0.628-0.458-1.237-0.579-1.89c-0.202-0.128-0.009-0.368-0.146-0.517c-0.112-0.09-0.021-0.241-0.103-0.341
		l-0.001-0.002c-0.373-0.734-0.531-1.543-0.786-2.319l0.01,0.013c-0.253-0.389-0.292-0.857-0.47-1.272l0.006,0.011
		c-0.126-0.209-0.102-0.474-0.249-0.675c-0.076-0.195-0.152-0.39-0.229-0.583c-0.23-0.451-0.42-0.919-0.549-1.408l0.011,0.013
		c-0.681-1.431-1.204-2.929-1.854-4.373l0.012,0.012c-0.448-0.813-0.833-1.655-1.18-2.515l0,0c-0.295-0.386-0.418-0.863-0.666-1.273
		c0.021-0.038,0.018-0.073-0.018-0.104c-0.527-0.906-1.046-1.822-1.487-2.775l0.01,0.011c-0.373-0.599-0.656-1.25-1.058-1.834
		c-0.137-0.236-0.217-0.507-0.427-0.699c-0.301-0.385-0.473-0.845-0.709-1.269l0.007,0.01c-0.192-0.237-0.335-0.507-0.479-0.773
		c-0.042-0.084-0.087-0.168-0.129-0.253c-0.809-1.114-1.529-2.286-2.285-3.436c-0.031-0.042-0.063-0.082-0.098-0.122
		c-0.162-0.166-0.209-0.405-0.359-0.58l0.001,0.003c-0.177-0.116-0.245-0.305-0.326-0.486l0.011,0.011
		c-0.328-0.413-0.704-0.786-0.936-1.267l0.004,0.003c-0.631-0.897-1.405-1.687-1.964-2.635l0.002,0.002
		c-0.649-0.737-1.312-1.468-1.839-2.303l0.004,0.004c-0.241-0.122-0.396-0.314-0.466-0.576l0.004,0.004
		c-0.405-0.257-0.626-0.68-0.929-1.027c-0.037-0.038-0.073-0.079-0.109-0.117c-0.176-0.047-0.147-0.235-0.236-0.342l0,0
		c-0.268-0.194-0.5-0.421-0.688-0.691c-0.035-0.039-0.069-0.075-0.104-0.114c-0.378-0.286-0.591-0.72-0.93-1.039
		c-0.042-0.036-0.08-0.073-0.122-0.108c-0.681-0.805-1.481-1.498-2.176-2.291c-0.118-0.117-0.234-0.235-0.354-0.354
		c-0.432-0.265-0.609-0.771-1.007-1.064l0.016,0.016c-0.346-0.272-0.66-0.576-0.94-0.917l0.004,0.004
		c-0.826-0.46-1.352-1.264-2.085-1.827c-0.193-0.192-0.388-0.385-0.583-0.577c-0.256-0.16-0.444-0.397-0.671-0.595l0.01,0.009
		c-0.537-0.383-1.054-0.786-1.498-1.276l0.011,0.008c-0.293-0.204-0.618-0.373-0.821-0.686l0.008,0.006
		c-0.185-0.079-0.321-0.223-0.468-0.354l0.01,0.009c-0.541-0.335-1.008-0.766-1.499-1.167l0.017,0.015
		c-0.297-0.255-0.627-0.464-0.932-0.709l0.017,0.017c-0.732-0.53-1.479-1.04-2.169-1.626c-0.202-0.295-0.593-0.308-0.823-0.558
		l-0.034,0.021c-0.447-0.41-1.043-0.62-1.469-1.063l0.007,0.008c-0.17-0.098-0.386-0.134-0.47-0.346l0.005,0.006
		c-0.198-0.112-0.411-0.197-0.593-0.335c-0.227-0.153-0.454-0.305-0.681-0.456c-0.279-0.241-0.66-0.327-0.915-0.6l0.011,0.007
		c-0.479-0.185-0.877-0.499-1.285-0.794c-0.2-0.112-0.396-0.224-0.593-0.338c-0.18-0.121-0.438-0.118-0.56-0.34
		c-0.075-0.041-0.149-0.079-0.224-0.119c-1.414-0.75-2.757-1.626-4.214-2.291c-0.143-0.063-0.268-0.147-0.38-0.253l0.011,0.007
		c-0.873-0.376-1.736-0.762-2.544-1.267c-0.157-0.073-0.314-0.145-0.471-0.217c-1.173-0.486-2.316-1.043-3.501-1.506
		c-0.139-0.056-0.281-0.116-0.385-0.239l0.009,0.004c-0.159-0.071-0.315-0.15-0.478-0.211h-0.001
		c-0.289-0.159-0.629-0.187-0.916-0.354l0.007,0.003c-0.297-0.146-0.637-0.182-0.923-0.354l0.009,0.004
		c-0.188-0.093-0.412-0.099-0.576-0.247l0.012,0.011c-0.795-0.197-1.537-0.547-2.304-0.823c-0.195-0.071-0.397-0.113-0.593-0.189
		c-0.081-0.041-0.165-0.079-0.247-0.117c-0.213-0.109-0.474-0.089-0.665-0.249l0.011,0.006c-0.239-0.06-0.482-0.103-0.705-0.212
		c-0.351-0.116-0.702-0.233-1.053-0.352c-1.138-0.359-2.309-0.609-3.423-1.049l0.008,0.002c-0.152-0.06-0.332,0.012-0.473-0.105
		c-0.148-0.067-0.339,0.048-0.465-0.109c-0.255-0.112-0.545-0.119-0.796-0.246l0.011,0.007c-0.171-0.137-0.423,0.06-0.578-0.14
		l0.016,0.01c-0.279-0.059-0.563-0.103-0.824-0.225l0.01,0.007c-0.174-0.128-0.421,0.057-0.583-0.133l0.016,0.011
		c-2.443-0.566-4.912-0.994-7.371-1.49l0.01,0.008c-0.257-0.142-0.562,0.052-0.813-0.125l0.01,0.008
		c-0.217-0.133-0.489,0.047-0.699-0.119l0.008,0.005c-0.332-0.157-0.714,0.079-1.038-0.133l0.014,0.011
		c-0.615-0.103-1.238-0.129-1.853-0.238l0.014,0.01c-2.334-0.204-4.663-0.43-7.006-0.517c-1.892-0.07-3.781-0.139-5.671-0.093
		c-2.247,0.054-4.494,0.132-6.74,0.313c-1.776,0.144-3.546,0.344-5.316,0.532l0.01-0.007c-0.534,0.133-1.079,0.161-1.622,0.232
		l0.013-0.007c-1.306,0.215-2.598,0.489-3.902,0.711c-1.627,0.275-3.228,0.685-4.845,1.017l0.014-0.009
		c-0.346,0.126-0.721,0.127-1.068,0.242c-0.164-0.03-0.302,0.023-0.419,0.137c-0.266,0.089-0.519,0.222-0.811,0.201
		c-0.188-0.07-0.272,0.189-0.454,0.145c-1.263,0.448-2.578,0.725-3.851,1.138c-0.25,0.083-0.501,0.16-0.756,0.221l0.008-0.007
		c-0.41,0.204-0.852,0.316-1.286,0.452l0.014-0.012c-1.178,0.461-2.357,0.915-3.566,1.283l0.011-0.009
		c-0.27,0.212-0.609,0.248-0.919,0.365l0.007-0.004c-0.343,0.171-0.683,0.345-1.049,0.454l0.011-0.007
		c-0.176,0.131-0.391,0.159-0.59,0.234l0.015-0.009c-0.646,0.206-1.188,0.656-1.859,0.807l0.015-0.012
		c-0.569,0.281-1.142,0.554-1.736,0.778c-0.118-0.01-0.258,0.004-0.22-0.188c2.284-1.977,4.646-3.851,7.104-5.611
		c2.879-2.061,5.889-3.899,8.984-5.606c1.418-0.782,2.879-1.485,4.347-2.178c1.794-0.845,3.613-1.622,5.458-2.344
		c1.662-0.647,3.343-1.245,5.044-1.787c1.884-0.605,3.785-1.141,5.703-1.618c2.194-0.545,4.41-0.979,6.637-1.371
		c1.52-0.266,3.05-0.452,4.576-0.653c1.372-0.179,2.759-0.255,4.141-0.347c1.168-0.079,2.341-0.117,3.512-0.171
		c1.566,0.004,3.133,0.008,4.7,0.014c2.761,0.137,5.521,0.313,8.266,0.668c2.521,0.329,5.022,0.766,7.506,1.298
		c6.953,1.493,13.616,3.821,19.991,6.957c5.788,2.845,11.216,6.268,16.26,10.298c4.138,3.307,7.943,6.957,11.41,10.954
		c1.865,2.151,3.611,4.395,5.268,6.715c2.057,2.879,3.902,5.881,5.604,8.972c0.786,1.428,1.477,2.91,2.188,4.378
		c1.079,2.234,2.023,4.524,2.883,6.846c0.828,2.234,1.562,4.507,2.18,6.817c0.46,1.722,0.897,3.445,1.288,5.182
		c0.637,2.822,1.083,5.678,1.408,8.549c0.226,1.979,0.388,3.97,0.44,5.965c0.012,1.082,0.161,2.16,0.052,3.244
		c0.097,0.643,0.032,1.283-0.007,1.923c-0.042,0.658,0.062,1.32-0.056,1.977c-0.014,2.192-0.225,4.374-0.475,6.546
		c-0.402,3.471-0.999,6.911-1.827,10.308C241.13,173.423,240.812,174.68,240.499,175.939z"/>
	<linearGradient id="SVGID_1_" gradientUnits="userSpaceOnUse" x1="179.5234" y1="135.0625" x2="78.6822" y2="255.2404">
		<stop  offset="0" style="stop-color:#E52D27"/>
		<stop  offset="1" style="stop-color:#B31217"/>
	</linearGradient>
	<linearGradient id="SVGID_2_" gradientUnits="userSpaceOnUse" x1="179.9688" y1="134.5317" x2="78.3608" y2="255.6234">
		<stop  offset="0" style="stop-color:#E52D27"/>
		<stop  offset="1" style="stop-color:#B31217"/>
	</linearGradient>
	<path fill-rule="evenodd" clip-rule="evenodd" fill="url(#SVGID_1_)" stroke="url(#SVGID_2_)" stroke-miterlimit="10" d="
		M227.827,175.595c0.15,0.768,0.335,1.528,0.445,2.301c0.319,2.241,0.682,4.479,0.885,6.731c0.215,2.394,0.334,4.804,0.363,7.211
		c0.033,2.521-0.031,5.047-0.163,7.565c-0.097,1.836-0.313,3.666-0.586,5.484c-0.332,2.22-0.725,4.433-1.188,6.625
		c-0.451,2.129-0.921,4.263-1.574,6.334c-0.866,2.756-1.868,5.477-2.909,8.175c-0.601,1.561-1.366,3.06-2.106,4.562
		c-0.836,1.697-1.651,3.408-2.616,5.027c-1.295,2.182-2.661,4.323-4.114,6.402c-1.463,2.088-2.982,4.159-4.643,6.094
		c-1.774,2.07-3.719,3.997-5.637,5.937c-1.14,1.153-2.328,2.259-3.566,3.303c-1.551,1.31-3.147,2.574-4.778,3.783
		c-1.621,1.198-3.269,2.371-4.98,3.429c-2.084,1.284-4.213,2.511-6.393,3.623c-2.494,1.277-5.042,2.447-7.609,3.57
		c-1.489,0.655-3.051,1.15-4.597,1.664c-1.77,0.594-3.547,1.171-5.343,1.677c-1.49,0.422-3.011,0.758-4.526,1.079
		c-1.781,0.374-3.565,0.721-5.361,1.017c-1.327,0.223-2.673,0.369-4.014,0.498c-2.165,0.207-4.335,0.41-6.508,0.541
		c-1.512,0.089-3.031,0.084-4.549,0.076c-1.626-0.01-3.257-0.022-4.878-0.129c-1.91-0.121-3.817-0.312-5.718-0.536
		c-1.936-0.232-3.871-0.501-5.788-0.837c-1.739-0.304-3.47-0.678-5.185-1.103c-2.423-0.6-4.848-1.204-7.235-1.93
		c-1.946-0.592-3.843-1.34-5.748-2.056c-1.527-0.576-3.055-1.163-4.548-1.825c-1.774-0.786-3.525-1.626-5.259-2.504
		c-1.937-0.98-3.877-1.97-5.75-3.069c-1.867-1.103-3.668-2.321-5.472-3.53c-1.458-0.976-2.886-1.992-4.301-3.026
		c-0.999-0.73-1.982-1.489-2.927-2.291c-1.894-1.601-3.804-3.186-5.616-4.878c-1.646-1.529-3.197-3.168-4.74-4.802
		c-1.387-1.466-2.767-2.942-4.041-4.506c-1.551-1.898-3.036-3.858-4.464-5.851c-1.304-1.823-2.551-3.689-3.723-5.596
		c-1.113-1.815-2.119-3.694-3.129-5.57c-0.791-1.472-1.567-2.956-2.255-4.476c-0.881-1.938-1.69-3.902-2.479-5.874
		c-0.569-1.421-1.111-2.86-1.572-4.316c-0.598-1.874-1.139-3.766-1.635-5.669c-0.538-2.063-1.099-4.135-1.46-6.23
		c-0.489-2.868-0.826-5.757-1.181-8.641c-0.426-3.458-0.482-6.938-0.385-10.414c0.074-2.555,0.3-5.11,0.566-7.653
		c0.206-1.962,0.534-3.912,0.893-5.853c0.388-2.098,0.78-4.201,1.336-6.259c0.608-2.259,1.387-4.473,2.131-6.694
		c0.454-1.354,0.951-2.693,1.487-4.017c0.521-1.288,1.072-2.568,1.691-3.812c0.988-1.981,1.963-3.979,3.088-5.885
		c1.299-2.197,2.699-4.341,4.163-6.433c1.442-2.061,3.004-4.035,4.54-6.028c0.466-0.603,1.008-1.146,1.531-1.703
		c1.122-1.2,2.207-2.439,3.395-3.575c1.54-1.472,3.126-2.902,4.761-4.271c1.82-1.525,3.646-3.063,5.596-4.41
		c2.55-1.758,5.173-3.423,7.862-4.959c2.183-1.249,4.482-2.308,6.776-3.345c2.242-1.014,4.543-1.896,6.818-2.832
		c0.043-0.017,0.104,0.004,0.239,0.011c-0.878,0.503-1.686,0.965-2.49,1.427c-4.197,2.412-8.084,5.26-11.714,8.455
		c-4.265,3.759-8.055,7.957-11.362,12.588c-3.521,4.933-6.413,10.208-8.669,15.827c-2.356,5.87-3.947,11.943-4.784,18.217
		c-0.687,5.14-0.86,10.297-0.529,15.467c0.28,4.373,0.888,8.706,1.894,12.979c0.765,3.237,1.685,6.424,2.801,9.562
		c1.481,4.17,3.286,8.192,5.383,12.09c1.814,3.373,3.854,6.611,6.094,9.717c2.902,4.03,6.118,7.796,9.648,11.293
		c0.063,0.068,0.141,0.121,0.282,0.24c0.109-0.261,0.211-0.473,0.284-0.698c2.688-8.122,5.365-16.249,8.057-24.37
		c2.185-6.598,4.389-13.187,6.571-19.782c2.348-7.087,4.674-14.182,7.028-21.267c0.22-0.664,0.582-1.277,0.913-1.992
		c20.66,12.219,41.247,24.394,61.866,36.588c-17.399,17.435-34.773,34.841-52.224,52.329c0.575,0.22,1.097,0.433,1.624,0.617
		c6.158,2.167,12.47,3.704,18.95,4.498c5.464,0.668,10.952,0.897,16.44,0.425c3.272-0.28,6.542-0.683,9.781-1.214
		c2.255-0.366,4.468-1.021,6.688-1.591c4.568-1.173,8.952-2.859,13.191-4.907c5.85-2.825,11.283-6.307,16.243-10.52
		c3.998-3.393,7.619-7.146,10.827-11.292c3.042-3.933,5.661-8.132,7.882-12.585c2.465-4.934,4.348-10.082,5.692-15.425
		c1.073-4.28,1.809-8.618,2.036-13.024c0.152-2.921,0.115-5.852,0.164-8.775c0-0.063,0-0.129,0-0.195
		C227.753,175.603,227.79,175.601,227.827,175.595z"/>
	<g>
		<g id="XMLID_3_">
			<g>
				<path fill="#0096FE" d="M234.395,185.171c0,0.016,0.026,0.028,0.035,0.048c-0.048,1.181-0.131,2.361-0.013,3.548
					c-0.227,0.549-0.025,1.114-0.07,1.676c-0.121,1.519-0.156,3.047-0.316,4.566c-0.159,1.535-0.277,3.073-0.517,4.599
					c-0.105,0.688-0.211,1.388-0.291,2.08c-0.089,0.743-0.364,1.462-0.329,2.221c0.013,0.256-0.131,0.521-0.176,0.779
					c-0.568,3.169-1.395,6.283-2.259,9.378c-0.415,1.494-0.932,2.972-1.423,4.442c-0.412,1.241-0.91,2.447-1.321,3.683
					c-0.424,1.273-1.05,2.479-1.557,3.724c-0.82,2.001-1.797,3.935-2.773,5.859c-1.366,2.693-2.929,5.284-4.502,7.859
					c-0.865,1.41-1.806,2.776-2.76,4.126c-0.734,1.037-1.542,2.023-2.317,3.031c-0.673,0.875-1.308,1.778-2.033,2.607
					c-0.896,1.031-1.739,2.103-2.658,3.118c-1.043,1.155-2.138,2.262-3.181,3.411c-0.891,0.995-1.918,1.863-2.891,2.785
					c-0.833,0.779-1.641,1.6-2.524,2.327c-1.331,1.085-2.594,2.253-3.992,3.271c-0.778,0.571-1.547,1.168-2.304,1.771
					c-1.213,0.967-2.508,1.818-3.788,2.684c-1.477,1.002-3.009,1.921-4.55,2.824c-1.896,1.116-3.81,2.179-5.753,3.19
					c-2.54,1.328-5.173,2.435-7.821,3.52c-1.768,0.715-3.568,1.328-5.358,1.982c-1.771,0.638-3.581,1.146-5.387,1.656
					c-2.068,0.58-4.161,1.075-6.273,1.486c-1.65,0.316-3.31,0.584-4.969,0.855c-2.579,0.428-5.176,0.66-7.771,0.916
					c-2.106,0.214-4.234,0.242-6.356,0.252c-2.064,0.007-4.132-0.067-6.194-0.191c-1.328-0.083-2.658-0.211-3.986-0.338
					c-1.637-0.153-3.261-0.418-4.898-0.563c-0.501-0.041-1.002-0.165-1.497-0.258c-1.12-0.198-2.24-0.443-3.354-0.645
					c-2.745-0.491-5.422-1.22-8.096-1.973c-1.529-0.428-3.044-0.929-4.554-1.438c-1.242-0.412-2.448-0.92-3.692-1.331
					c-1.059-0.351-2.064-0.865-3.092-1.312c-1.161-0.501-2.316-1.027-3.488-1.516c-0.581-0.243-1.113-0.571-1.678-0.849
					c-3.083-1.487-6.047-3.201-8.938-5.026c-1.848-1.161-3.667-2.39-5.428-3.692c-1.621-1.199-3.22-2.435-4.787-3.695
					c-1.002-0.813-1.985-1.656-2.939-2.54c-2.02-1.851-4.008-3.736-5.885-5.744c-0.979-1.043-2.036-2.029-2.917-3.149
					c-0.983-1.257-2.049-2.438-3.009-3.711c-1.06-1.407-2.17-2.789-3.168-4.241c-0.731-1.072-1.475-2.141-2.167-3.242
					c-1.117-1.768-2.16-3.58-3.204-5.393c-1.085-1.886-2.059-3.816-3.003-5.77c-0.871-1.807-1.599-3.67-2.387-5.508
					c-0.763-1.78-1.35-3.619-2.007-5.435c-0.635-1.758-1.152-3.549-1.634-5.349c-0.485-1.8-0.961-3.612-1.347-5.44
					c-0.402-1.911-0.689-3.845-1.002-5.775c-0.418-2.572-0.645-5.173-0.929-7.765c-0.156-1.43-0.131-2.881-0.188-4.323
					c0.077-0.543-0.006-1.076-0.013-1.612c-0.013-1.146,0.013-2.291,0.022-3.437c0.029-0.823,0.032-1.644,0.089-2.457
					c0.089-1.2,0.086-2.403,0.252-3.597c0.153-1.078,0.236-2.167,0.357-3.248c0.134-1.168,0.326-2.327,0.476-3.491
					c0.092-0.728,0.306-1.436,0.319-2.176c0.006-0.3,0.134-0.594,0.188-0.894c0.559-3.095,1.362-6.133,2.205-9.162
					c0.424-1.532,0.957-3.038,1.445-4.554c0.405-1.248,0.906-2.454,1.331-3.692c0.37-1.072,0.877-2.097,1.331-3.137
					c0.498-1.146,1.027-2.275,1.497-3.434c0.227-0.564,0.542-1.085,0.807-1.63c1.551-3.175,3.293-6.254,5.198-9.229
					c1.608-2.508,3.29-4.972,5.154-7.311c1.337-1.678,2.648-3.379,4.056-4.997c1.005-1.159,2.097-2.253,3.153-3.37
					c1.94-2.058,4.015-3.979,6.118-5.858c1.235-1.101,2.501-2.189,3.864-3.159c0.766-0.549,1.522-1.136,2.259-1.733
					c1.024-0.836,2.176-1.5,3.226-2.294c1.193-0.903,2.492-1.631,3.734-2.457c1.11-0.737,2.323-1.315,3.459-2.017
					c1.395-0.858,2.891-1.528,4.327-2.313c1.395-0.759,2.872-1.372,4.33-2.007c1.379-0.6,2.776-1.168,4.181-1.71
					c1.254-0.485,2.524-0.929,3.797-1.366c1.046-0.36,2.096-0.714,3.162-1.021c1.717-0.498,3.44-0.979,5.173-1.42
					c1.395-0.354,2.799-0.67,4.209-0.945c1.378-0.268,2.77-0.475,4.158-0.695c2.297-0.361,4.614-0.587,6.931-0.811
					c1.353-0.128,2.709-0.182,4.066-0.243c1.991-0.092,3.982-0.112,5.97-0.061c2.192,0.054,4.391,0.153,6.583,0.37
					c1.985,0.198,3.973,0.396,5.941,0.696c1.589,0.239,3.172,0.555,4.752,0.852c2.795,0.526,5.527,1.283,8.265,2.017
					c1.474,0.396,2.923,0.941,4.385,1.407c1.251,0.396,2.454,0.913,3.695,1.331c1.056,0.357,2.064,0.862,3.089,1.309
					c1.165,0.504,2.313,1.04,3.488,1.522c0.565,0.233,1.095,0.536,1.634,0.804c3.099,1.538,6.114,3.236,9.031,5.09
					c1.829,1.162,3.628,2.377,5.38,3.664c1.624,1.193,3.22,2.428,4.783,3.692c1.031,0.833,2.045,1.698,3.022,2.61
					c1.264,1.177,2.546,2.339,3.769,3.558c1.708,1.698,3.383,3.437,4.943,5.269c1.027,1.209,2.058,2.425,3.016,3.702
					c0.861,1.152,1.79,2.269,2.61,3.449c0.922,1.331,1.876,2.643,2.728,4.027c0.712,1.155,1.401,2.33,2.151,3.462
					c0.319,0.482,0.542,1.031,0.842,1.525c1.152,1.889,2.109,3.88,3.092,5.855c0.938,1.896,1.708,3.864,2.527,5.814
					c0.769,1.841,1.401,3.727,2.062,5.604c0.38,1.082,0.692,2.183,1.034,3.274c0.434,1.395,0.769,2.812,1.146,4.219
					c0.415,1.554,0.801,3.118,1.098,4.694c0.367,1.95,0.667,3.912,0.925,5.881c0.271,2.068,0.511,4.142,0.664,6.223
					C234.351,181.463,234.341,183.323,234.395,185.171z M198.141,248.172c18.809-19.252,27.22-42.623,24.919-69.47
					c-1.81-21.106-10.47-39.308-25.634-54.118c-17.101-16.702-37.779-25.305-61.731-25.261c-22.944,0.045-43,8.035-59.632,23.831
					c-18.148,17.238-27.099,38.663-27.609,63.532c0.476,24.159,8.734,44.981,25.838,61.936
					c17.101,16.944,37.904,25.621,61.993,25.561C160.413,274.132,181.279,265.436,198.141,248.172z"/>
			</g>
			<g>
			</g>
		</g>
	</g>
	<linearGradient id="SVGID_3_" gradientUnits="userSpaceOnUse" x1="131.3691" y1="212.3018" x2="148.2085" y2="144.7629">
		<stop  offset="0" style="stop-color:#E52D27"/>
		<stop  offset="1" style="stop-color:#B31217"/>
	</linearGradient>
	<path fill="#FFFFFF" stroke="url(#SVGID_3_)" stroke-width="4" stroke-miterlimit="10" d="M169.576,192.672
		c0.546,2.061-0.682,4.173-2.739,4.719l-41.188,10.929c-2.061,0.546-4.172-0.681-4.718-2.739l-10.93-41.189
		c-0.546-2.059,0.681-4.17,2.74-4.716l41.187-10.93c2.06-0.547,4.174,0.679,4.719,2.738L169.576,192.672z"/>
	<g>
		<linearGradient id="SVGID_4_" gradientUnits="userSpaceOnUse" x1="293.5156" y1="202.3496" x2="340.6172" y2="202.3496">
			<stop  offset="0" style="stop-color:#E52D27"/>
			<stop  offset="1" style="stop-color:#B31217"/>
		</linearGradient>
		<path fill="url(#SVGID_4_)" d="M293.516,160.482h10.363h27.318l9.42,10.467v15.7l-9.42,10.468l9.42,10.469v26.166l-9.42,10.466
			h-37.682V160.482z M312.356,191.883h9.42v-20.934h-9.42V191.883z M312.356,233.752h9.42v-31.4h-9.42V233.752z"/>
		<linearGradient id="SVGID_5_" gradientUnits="userSpaceOnUse" x1="350.0371" y1="207.584" x2="387.7188" y2="207.584">
			<stop  offset="0" style="stop-color:#E52D27"/>
			<stop  offset="1" style="stop-color:#B31217"/>
		</linearGradient>
		<path fill="url(#SVGID_5_)" d="M350.037,202.352v-10.469h28.262h9.42v10.469h-9.42v31.4h9.42v10.466h-37.682v-10.466h9.421v-31.4
			H350.037z M359.458,170.949h18.841v10.468h-18.841V170.949z"/>
		<linearGradient id="SVGID_6_" gradientUnits="userSpaceOnUse" x1="397.1396" y1="202.3496" x2="453.6611" y2="202.3496">
			<stop  offset="0" style="stop-color:#E52D27"/>
			<stop  offset="1" style="stop-color:#B31217"/>
		</linearGradient>
		<path fill="url(#SVGID_6_)" d="M406.56,160.482H425.4v31.4h14.129v10.469H425.4v31.4h9.609l-0.188-10.469h18.84v10.469
			l-9.42,10.466H415.98l-9.421-10.466v-31.4h-9.42v-10.469h9.42V160.482z"/>
	</g>
	<g>
		<path fill="#0096FE" d="M520.534,160.482v15.701l9.422,10.466v-26.167h18.841v83.735h-18.841v-41.866l-9.422-10.469v52.335
			h-18.839v-83.735H520.534z"/>
		<path fill="#0096FE" d="M567.637,244.218l-9.42-10.466v-31.4l9.42-10.469h28.261l9.422,10.469v15.7h-18.842v-15.7h-9.42v31.4
			h9.326l0.094-15.7h18.842v15.7l-9.422,10.466H567.637z"/>
		<path fill="#0096FE" d="M661.84,191.883v31.4l-18.841,20.935h-9.422l-18.84-20.935v-31.4h18.84v41.869h9.422v-41.869H661.84z"/>
		<path fill="#0096FE" d="M708.938,191.883l9.423,10.469v41.866h-37.684l-9.418-10.466v-10.469l9.418-10.466h18.843v-10.466h-23.55
			v-10.469H708.938z M690.101,233.752h9.42v-10.469h-9.516L690.101,233.752z"/>
		<path fill="#0096FE" d="M737.2,160.482h28.261l9.422,10.467v10.468h-18.842v-10.468h-9.421v20.934h18.841l9.422,10.469v31.4
			l-9.422,10.466H737.2l-9.42-10.466v-10.469h18.84v10.469h9.421v-31.4H737.2l-9.42-10.469v-20.934L737.2,160.482z"/>
		<path fill="#0096FE" d="M793.723,244.218l-9.423-10.466v-31.4l9.423-10.469h28.261l9.42,10.469v15.7h-18.843v-15.7h-9.418v31.4
			h9.327l0.091-15.7h18.843v15.7l-9.42,10.466H793.723z"/>
		<path fill="#0096FE" d="M850.243,202.352h-9.422v-10.469h9.422v-20.934l9.42-10.467h28.261l9.42,10.467v10.468h-18.84
			l0.187-10.468h-9.609v20.934h14.132v10.469h-14.132v41.866h-18.838V202.352z"/>
		<path fill="#0096FE" d="M916.185,160.482h18.842v31.4h14.129v10.469h-14.129v31.4h9.608l-0.19-10.469h18.843v10.469l-9.422,10.466
			h-28.262l-9.419-10.466v-31.4h-9.419v-10.469h9.419V160.482z"/>
	</g>
</g>
</svg>
