<?xml version="1.0" encoding="utf-8"?>
<!-- Generator: Adobe Illustrator 21.0.2, SVG Export Plug-In . SVG Version: 6.00 Build 0)  -->
<svg version="1.1" xmlns="http://www.w3.org/2000/svg" xmlns:xlink="http://www.w3.org/1999/xlink" x="0px" y="0px"
	 viewBox="0 0 1244.9 240" style="enable-background:new 0 0 1244.9 240;" xml:space="preserve">
<style type="text/css">
	.st0{display:none;}
	.st1{display:inline;fill:#232323;}
	.st2{display:inline;fill:#FFFFFF;}
	.st3{font-family:'HelveticaNeueLTStd-Lt';}
	.st4{font-size:27.0192px;}
	.st5{display:inline;fill-rule:evenodd;clip-rule:evenodd;fill:#B21217;}
	.st6{display:inline;fill-rule:evenodd;clip-rule:evenodd;fill:url(#SVGID_1_);stroke:url(#SVGID_2_);stroke-miterlimit:10;}
	.st7{display:inline;}
	.st8{fill:#0096FE;}
	.st9{display:inline;fill:#FFFFFF;stroke:url(#SVGID_3_);stroke-width:4;stroke-miterlimit:10;}
	.st10{fill:url(#SVGID_4_);}
	.st11{fill:url(#SVGID_5_);}
	.st12{fill:url(#SVGID_6_);}
	.st13{display:inline;fill:url(#SVGID_7_);}
	.st14{display:inline;fill:url(#SVGID_8_);}
	.st15{display:inline;fill:url(#SVGID_9_);}
	.st16{display:inline;fill:#0096FE;}
	.st17{fill:#E52D27;}
	.st18{fill-rule:evenodd;clip-rule:evenodd;fill:#E52D27;}
	.st19{fill:url(#SVGID_10_);}
	.st20{display:none;fill:url(#SVGID_11_);}
	.st21{display:none;fill:#FFFFFF;}
	.st22{fill:url(#SVGID_12_);}
	.st23{fill:#FFFFFF;}
</style>
<g id="Bitnova1.0" class="st0">
	<polygon class="st1" points="746.9,236 304.9,236 316.3,199 746.9,199 	"/>
	<text transform="matrix(1 0 0 1 326.417 225.9053)" class="st2 st3 st4">Tecnología versátil para tu negocio</text>
	<path class="st5" d="M188.4,122.7c-0.1,0-0.1,0.3-0.2,0.1l0,0c0-0.5,0.1-0.9,0-1.4c0-0.1,0-0.2,0-0.4c0.1-1.1,0-2.2-0.1-3.2
		c-0.1-1.7-0.3-3.4-0.5-5.1c-0.2-1.5-0.4-3-0.7-4.5l0,0c-0.1-0.4-0.2-0.9-0.3-1.3c-0.1-0.1-0.1-0.2-0.1-0.4
		c-0.3-1.2-0.6-2.4-0.9-3.6l0,0c-0.2-0.4-0.2-0.9-0.4-1.3l0,0c-0.2-0.5-0.4-1-0.4-1.5c-0.2-0.1,0-0.3-0.1-0.4
		c-0.1-0.1,0-0.2-0.1-0.3l0,0c-0.3-0.6-0.4-1.2-0.6-1.8l0,0c-0.2-0.3-0.2-0.7-0.4-1l0,0c-0.1-0.2-0.1-0.4-0.2-0.5
		c-0.1-0.2-0.1-0.3-0.2-0.5c-0.2-0.3-0.3-0.7-0.4-1.1l0,0c-0.5-1.1-0.9-2.3-1.4-3.4l0,0c-0.3-0.6-0.6-1.3-0.9-1.9l0,0
		c-0.2-0.3-0.3-0.7-0.5-1c0,0,0-0.1,0-0.1c-0.4-0.7-0.8-1.4-1.1-2.1l0,0c-0.3-0.5-0.5-1-0.8-1.4c-0.1-0.2-0.2-0.4-0.3-0.5
		c-0.2-0.3-0.4-0.7-0.5-1l0,0c-0.1-0.2-0.3-0.4-0.4-0.6c0-0.1-0.1-0.1-0.1-0.2c-0.6-0.9-1.2-1.8-1.8-2.7c0,0,0-0.1-0.1-0.1
		c-0.1-0.1-0.2-0.3-0.3-0.4l0,0c-0.1-0.1-0.2-0.2-0.3-0.4l0,0c-0.3-0.3-0.5-0.6-0.7-1l0,0c-0.5-0.7-1.1-1.3-1.5-2l0,0
		c-0.5-0.6-1-1.1-1.4-1.8l0,0c-0.2-0.1-0.3-0.2-0.4-0.4l0,0c-0.3-0.2-0.5-0.5-0.7-0.8c0,0-0.1-0.1-0.1-0.1c-0.1,0-0.1-0.2-0.2-0.3
		l0,0c-0.2-0.1-0.4-0.3-0.5-0.5c0,0-0.1-0.1-0.1-0.1c-0.3-0.2-0.5-0.6-0.7-0.8c0,0-0.1-0.1-0.1-0.1c-0.5-0.6-1.1-1.2-1.7-1.8
		c-0.1-0.1-0.2-0.2-0.3-0.3c-0.3-0.2-0.5-0.6-0.8-0.8l0,0c-0.3-0.2-0.5-0.4-0.7-0.7l0,0c-0.6-0.4-1-1-1.6-1.4
		c-0.1-0.1-0.3-0.3-0.5-0.4c-0.2-0.1-0.3-0.3-0.5-0.5l0,0c-0.4-0.3-0.8-0.6-1.2-1l0,0c-0.2-0.2-0.5-0.3-0.6-0.5l0,0
		c-0.1-0.1-0.2-0.2-0.4-0.3l0,0c-0.4-0.3-0.8-0.6-1.2-0.9l0,0c-0.2-0.2-0.5-0.4-0.7-0.5l0,0c-0.6-0.4-1.1-0.8-1.7-1.3
		c-0.2-0.2-0.5-0.2-0.6-0.4l0,0c-0.3-0.3-0.8-0.5-1.1-0.8l0,0c-0.1-0.1-0.3-0.1-0.4-0.3l0,0c-0.2-0.1-0.3-0.2-0.5-0.3
		c-0.2-0.1-0.4-0.2-0.5-0.4c-0.2-0.2-0.5-0.3-0.7-0.5l0,0c-0.4-0.1-0.7-0.4-1-0.6c-0.2-0.1-0.3-0.2-0.5-0.3
		c-0.1-0.1-0.3-0.1-0.4-0.3c-0.1,0-0.1-0.1-0.2-0.1c-1.1-0.6-2.1-1.3-3.3-1.8c-0.1,0-0.2-0.1-0.3-0.2l0,0c-0.7-0.3-1.3-0.6-2-1
		c-0.1-0.1-0.2-0.1-0.4-0.2c-0.9-0.4-1.8-0.8-2.7-1.2c-0.1,0-0.2-0.1-0.3-0.2l0,0c-0.1-0.1-0.2-0.1-0.4-0.2h0
		c-0.2-0.1-0.5-0.1-0.7-0.3l0,0c-0.2-0.1-0.5-0.1-0.7-0.3l0,0c-0.1-0.1-0.3-0.1-0.4-0.2l0,0c-0.6-0.2-1.2-0.4-1.8-0.6
		c-0.2-0.1-0.3-0.1-0.5-0.1c-0.1,0-0.1-0.1-0.2-0.1c-0.2-0.1-0.4-0.1-0.5-0.2l0,0c-0.2,0-0.4-0.1-0.5-0.2c-0.3-0.1-0.5-0.2-0.8-0.3
		c-0.9-0.3-1.8-0.5-2.6-0.8l0,0c-0.1,0-0.3,0-0.4-0.1c-0.1-0.1-0.3,0-0.4-0.1c-0.2-0.1-0.4-0.1-0.6-0.2l0,0c-0.1-0.1-0.3,0-0.4-0.1
		l0,0c-0.2,0-0.4-0.1-0.6-0.2l0,0c-0.1-0.1-0.3,0-0.5-0.1l0,0c-1.9-0.4-3.8-0.8-5.7-1.2l0,0c-0.2-0.1-0.4,0-0.6-0.1l0,0
		c-0.2-0.1-0.4,0-0.5-0.1l0,0c-0.3-0.1-0.6,0.1-0.8-0.1l0,0c-0.5-0.1-1-0.1-1.4-0.2l0,0c-1.8-0.2-3.6-0.3-5.4-0.4
		c-1.5-0.1-2.9-0.1-4.4-0.1c-1.7,0-3.5,0.1-5.2,0.2c-1.4,0.1-2.7,0.3-4.1,0.4l0,0c-0.4,0.1-0.8,0.1-1.3,0.2l0,0c-1,0.2-2,0.4-3,0.5
		c-1.3,0.2-2.5,0.5-3.7,0.8l0,0c-0.3,0.1-0.6,0.1-0.8,0.2c-0.1,0-0.2,0-0.3,0.1c-0.2,0.1-0.4,0.2-0.6,0.2c-0.1-0.1-0.2,0.1-0.4,0.1
		c-1,0.3-2,0.6-3,0.9c-0.2,0.1-0.4,0.1-0.6,0.2l0,0c-0.3,0.2-0.7,0.2-1,0.3l0,0c-0.9,0.4-1.8,0.7-2.8,1l0,0
		c-0.2,0.2-0.5,0.2-0.7,0.3l0,0c-0.3,0.1-0.5,0.3-0.8,0.4l0,0c-0.1,0.1-0.3,0.1-0.5,0.2l0,0c-0.5,0.2-0.9,0.5-1.4,0.6l0,0
		c-0.4,0.2-0.9,0.4-1.3,0.6c-0.1,0-0.2,0-0.2-0.1c1.8-1.5,3.6-3,5.5-4.3c2.2-1.6,4.5-3,6.9-4.3c1.1-0.6,2.2-1.1,3.4-1.7
		c1.4-0.7,2.8-1.3,4.2-1.8c1.3-0.5,2.6-1,3.9-1.4c1.5-0.5,2.9-0.9,4.4-1.2c1.7-0.4,3.4-0.8,5.1-1.1c1.2-0.2,2.4-0.3,3.5-0.5
		c1.1-0.1,2.1-0.2,3.2-0.3c0.9-0.1,1.8-0.1,2.7-0.1c1.2,0,2.4,0,3.6,0c2.1,0.1,4.3,0.2,6.4,0.5c1.9,0.3,3.9,0.6,5.8,1
		c5.4,1.2,10.5,3,15.4,5.4c4.5,2.2,8.7,4.8,12.6,8c3.2,2.6,6.1,5.4,8.8,8.5c1.4,1.7,2.8,3.4,4.1,5.2c1.6,2.2,3,4.5,4.3,6.9
		c0.6,1.1,1.1,2.2,1.7,3.4c0.8,1.7,1.6,3.5,2.2,5.3c0.6,1.7,1.2,3.5,1.7,5.3c0.4,1.3,0.7,2.7,1,4c0.5,2.2,0.8,4.4,1.1,6.6
		c0.2,1.5,0.3,3.1,0.3,4.6c0,0.8,0.1,1.7,0,2.5c0.1,0.5,0,1,0,1.5c0,0.5,0,1,0,1.5c0,1.7-0.2,3.4-0.4,5.1c-0.3,2.7-0.8,5.3-1.4,8
		C188.9,120.8,188.7,121.8,188.4,122.7z"/>
	<linearGradient id="SVGID_1_" gradientUnits="userSpaceOnUse" x1="141.3433" y1="91.1514" x2="63.4517" y2="183.979">
		<stop  offset="0" style="stop-color:#E52D27"/>
		<stop  offset="1" style="stop-color:#B31217"/>
	</linearGradient>
	<linearGradient id="SVGID_2_" gradientUnits="userSpaceOnUse" x1="141.784" y1="90.6262" x2="63.1303" y2="184.362">
		<stop  offset="0" style="stop-color:#E52D27"/>
		<stop  offset="1" style="stop-color:#B31217"/>
	</linearGradient>
	<path class="st6" d="M178.7,122.5c0.1,0.6,0.3,1.2,0.3,1.8c0.2,1.7,0.5,3.5,0.7,5.2c0.2,1.8,0.3,3.7,0.3,5.6c0,1.9,0,3.9-0.1,5.8
		c-0.1,1.4-0.2,2.8-0.5,4.2c-0.3,1.7-0.6,3.4-0.9,5.1c-0.3,1.6-0.7,3.3-1.2,4.9c-0.7,2.1-1.4,4.2-2.2,6.3c-0.5,1.2-1.1,2.4-1.6,3.5
		c-0.6,1.3-1.3,2.6-2,3.9c-1,1.7-2.1,3.3-3.2,4.9c-1.1,1.6-2.3,3.2-3.6,4.7c-1.4,1.6-2.9,3.1-4.4,4.6c-0.9,0.9-1.8,1.7-2.8,2.6
		c-1.2,1-2.4,2-3.7,2.9c-1.3,0.9-2.5,1.8-3.8,2.6c-1.6,1-3.3,1.9-4.9,2.8c-1.9,1-3.9,1.9-5.9,2.8c-1.2,0.5-2.4,0.9-3.6,1.3
		c-1.4,0.5-2.7,0.9-4.1,1.3c-1.2,0.3-2.3,0.6-3.5,0.8c-1.4,0.3-2.8,0.6-4.1,0.8c-1,0.2-2.1,0.3-3.1,0.4c-1.7,0.2-3.3,0.3-5,0.4
		c-1.2,0.1-2.3,0.1-3.5,0.1c-1.3,0-2.5,0-3.8-0.1c-1.5-0.1-2.9-0.2-4.4-0.4c-1.5-0.2-3-0.4-4.5-0.6c-1.3-0.2-2.7-0.5-4-0.9
		c-1.9-0.5-3.7-0.9-5.6-1.5c-1.5-0.5-3-1-4.4-1.6c-1.2-0.4-2.4-0.9-3.5-1.4c-1.4-0.6-2.7-1.3-4.1-1.9c-1.5-0.8-3-1.5-4.4-2.4
		c-1.4-0.9-2.8-1.8-4.2-2.7c-1.1-0.8-2.2-1.5-3.3-2.3c-0.8-0.6-1.5-1.2-2.3-1.8c-1.5-1.2-2.9-2.5-4.3-3.8c-1.3-1.2-2.5-2.4-3.7-3.7
		c-1.1-1.1-2.1-2.3-3.1-3.5c-1.2-1.5-2.3-3-3.4-4.5c-1-1.4-2-2.8-2.9-4.3c-0.9-1.4-1.6-2.9-2.4-4.3c-0.6-1.1-1.2-2.3-1.7-3.5
		c-0.7-1.5-1.3-3-1.9-4.5c-0.4-1.1-0.9-2.2-1.2-3.3c-0.5-1.4-0.9-2.9-1.3-4.4c-0.4-1.6-0.8-3.2-1.1-4.8c-0.4-2.2-0.6-4.4-0.9-6.7
		c-0.3-2.7-0.4-5.4-0.3-8c0.1-2,0.2-3.9,0.4-5.9c0.2-1.5,0.4-3,0.7-4.5c0.3-1.6,0.6-3.2,1-4.8c0.5-1.7,1.1-3.5,1.6-5.2
		c0.4-1,0.7-2.1,1.1-3.1c0.4-1,0.8-2,1.3-2.9c0.8-1.5,1.5-3.1,2.4-4.5c1-1.7,2.1-3.4,3.2-5c1.1-1.6,2.3-3.1,3.5-4.7
		c0.4-0.5,0.8-0.9,1.2-1.3c0.9-0.9,1.7-1.9,2.6-2.8c1.2-1.1,2.4-2.2,3.7-3.3c1.4-1.2,2.8-2.4,4.3-3.4c2-1.4,4-2.6,6.1-3.8
		c1.7-1,3.5-1.8,5.2-2.6c1.7-0.8,3.5-1.5,5.3-2.2c0,0,0.1,0,0.2,0c-0.7,0.4-1.3,0.7-1.9,1.1c-3.2,1.9-6.2,4.1-9,6.5
		c-3.3,2.9-6.2,6.1-8.8,9.7c-2.7,3.8-5,7.9-6.7,12.2c-1.8,4.5-3,9.2-3.7,14.1c-0.5,4-0.7,8-0.4,11.9c0.2,3.4,0.7,6.7,1.5,10
		c0.6,2.5,1.3,5,2.2,7.4c1.1,3.2,2.5,6.3,4.2,9.3c1.4,2.6,3,5.1,4.7,7.5c2.2,3.1,4.7,6,7.5,8.7c0,0.1,0.1,0.1,0.2,0.2
		c0.1-0.2,0.2-0.4,0.2-0.5c2.1-6.3,4.1-12.6,6.2-18.8c1.7-5.1,3.4-10.2,5.1-15.3c1.8-5.5,3.6-11,5.4-16.4c0.2-0.5,0.5-1,0.7-1.5
		c16,9.4,31.9,18.8,47.8,28.3c-13.4,13.5-26.9,26.9-40.3,40.4c0.4,0.2,0.8,0.3,1.3,0.5c4.8,1.7,9.6,2.9,14.6,3.5
		c4.2,0.5,8.5,0.7,12.7,0.3c2.5-0.2,5.1-0.5,7.6-0.9c1.7-0.3,3.5-0.8,5.2-1.2c3.5-0.9,6.9-2.2,10.2-3.8c4.5-2.2,8.7-4.9,12.5-8.1
		c3.1-2.6,5.9-5.5,8.4-8.7c2.3-3,4.4-6.3,6.1-9.7c1.9-3.8,3.4-7.8,4.4-11.9c0.8-3.3,1.4-6.7,1.6-10.1c0.1-2.3,0.1-4.5,0.1-6.8
		C178.6,122.6,178.6,122.5,178.7,122.5C178.6,122.5,178.6,122.5,178.7,122.5z"/>
	<g class="st7">
		<g id="XMLID_3_">
			<g>
				<path class="st8" d="M152.4,69.3c1.3,0.9,2.5,1.9,3.7,2.9c0.8,0.6,1.6,1.3,2.3,2c1,0.9,2,1.8,2.9,2.7c1.3,1.3,2.6,2.7,3.8,4.1
					c0.8,0.9,1.6,1.9,2.3,2.9c0.7,0.9,1.4,1.8,2,2.7c0.7,1,1.4,2,2.1,3.1c0.6,0.9,1.1,1.8,1.7,2.7c0.2,0.4,0.4,0.8,0.6,1.2
					c0.9,1.5,1.6,3,2.4,4.5c0.7,1.5,1.3,3,2,4.5c0.6,1.4,1.1,2.9,1.6,4.3c0.3,0.8,0.5,1.7,0.8,2.5c0.3,1.1,0.6,2.2,0.9,3.3
					c0.3,1.2,0.6,2.4,0.8,3.6c0.3,1.5,0.5,3,0.7,4.5c0.2,1.6,0.4,3.2,0.5,4.8c0.1,1.4,0.1,2.9,0.1,4.3c0,0,0,0,0,0
					c0,0.9-0.1,1.8,0,2.7c-0.2,0.4,0,0.9-0.1,1.3c-0.1,1.2-0.1,2.4-0.2,3.5c-0.1,1.2-0.2,2.4-0.4,3.5c-0.1,0.5-0.2,1.1-0.2,1.6
					c-0.1,0.6-0.3,1.1-0.3,1.7c0,0.2-0.1,0.4-0.1,0.6c-0.4,2.4-1.1,4.9-1.7,7.2c-0.3,1.2-0.7,2.3-1.1,3.4c-0.3,1-0.7,1.9-1,2.8
					c-0.3,1-0.8,1.9-1.2,2.9c-0.6,1.5-1.4,3-2.1,4.5c-1.1,2.1-2.3,4.1-3.5,6.1c-0.7,1.1-1.4,2.1-2.1,3.2c-0.6,0.8-1.2,1.6-1.8,2.3
					c-0.5,0.7-1,1.4-1.6,2c-0.7,0.8-1.3,1.6-2.1,2.4c-0.8,0.9-1.6,1.7-2.5,2.6c-0.7,0.8-1.5,1.4-2.2,2.1c-0.6,0.6-1.3,1.2-1.9,1.8
					c-1,0.8-2,1.7-3.1,2.5c-0.6,0.4-1.2,0.9-1.8,1.4c-0.9,0.7-1.9,1.4-2.9,2.1c-1.1,0.8-2.3,1.5-3.5,2.2c-1.5,0.9-2.9,1.7-4.4,2.5
					c-2,1-4,1.9-6,2.7c-1.4,0.6-2.8,1-4.1,1.5c-1.4,0.5-2.8,0.9-4.2,1.3c-1.6,0.4-3.2,0.8-4.8,1.1c-1.3,0.2-2.6,0.5-3.8,0.7
					c-2,0.3-4,0.5-6,0.7c-1.6,0.2-3.3,0.2-4.9,0.2c-1.6,0-3.2-0.1-4.8-0.1c-1-0.1-2.1-0.2-3.1-0.3c-1.3-0.1-2.5-0.3-3.8-0.4
					c-0.4,0-0.8-0.1-1.2-0.2c-0.9-0.2-1.7-0.3-2.6-0.5c-2.1-0.4-4.2-0.9-6.3-1.5c-1.2-0.3-2.4-0.7-3.5-1.1c-1-0.3-1.9-0.7-2.9-1
					c-0.8-0.3-1.6-0.7-2.4-1c-0.9-0.4-1.8-0.8-2.7-1.2c-0.5-0.2-0.9-0.4-1.3-0.7c-2.4-1.1-4.7-2.5-6.9-3.9c-1.4-0.9-2.8-1.8-4.2-2.9
					c-1.3-0.9-2.5-1.9-3.7-2.9c-0.8-0.6-1.5-1.3-2.3-2c-1.6-1.4-3.1-2.9-4.5-4.4c-0.8-0.8-1.6-1.6-2.3-2.4c-0.8-1-1.6-1.9-2.3-2.9
					c-0.8-1.1-1.7-2.2-2.4-3.3c-0.6-0.8-1.1-1.7-1.7-2.5c-0.9-1.4-1.7-2.8-2.5-4.2c-0.8-1.5-1.6-2.9-2.3-4.5
					c-0.7-1.4-1.2-2.8-1.8-4.3c-0.6-1.4-1-2.8-1.6-4.2c-0.5-1.4-0.9-2.7-1.3-4.1c-0.4-1.4-0.7-2.8-1-4.2c-0.3-1.5-0.5-3-0.8-4.5
					c-0.3-2-0.5-4-0.7-6c-0.1-1.1-0.1-2.2-0.1-3.3c0.1-0.4,0-0.8,0-1.2c0-0.9,0-1.8,0-2.7c0-0.6,0-1.3,0.1-1.9
					c0.1-0.9,0.1-1.9,0.2-2.8c0.1-0.8,0.2-1.7,0.3-2.5c0.1-0.9,0.3-1.8,0.4-2.7c0.1-0.6,0.2-1.1,0.2-1.7c0-0.2,0.1-0.5,0.1-0.7
					c0.4-2.4,1.1-4.7,1.7-7.1c0.3-1.2,0.7-2.3,1.1-3.5c0.3-1,0.7-1.9,1-2.9c0.3-0.8,0.7-1.6,1-2.4c0.4-0.9,0.8-1.8,1.2-2.7
					c0.2-0.4,0.4-0.8,0.6-1.3c1.2-2.5,2.5-4.8,4-7.1c1.2-1.9,2.5-3.8,4-5.6c1-1.3,2-2.6,3.1-3.9c0.8-0.9,1.6-1.7,2.4-2.6
					c1.5-1.6,3.1-3.1,4.7-4.5c1-0.9,1.9-1.7,3-2.4c0.6-0.4,1.2-0.9,1.7-1.3c0.8-0.6,1.7-1.2,2.5-1.8c0.9-0.7,1.9-1.3,2.9-1.9
					c0.9-0.6,1.8-1,2.7-1.6c1.1-0.7,2.2-1.2,3.3-1.8c1.1-0.6,2.2-1.1,3.3-1.6c1.1-0.5,2.1-0.9,3.2-1.3c1-0.4,1.9-0.7,2.9-1.1
					c0.8-0.3,1.6-0.6,2.4-0.8c1.3-0.4,2.7-0.8,4-1.1c1.1-0.3,2.2-0.5,3.3-0.7c1.1-0.2,2.1-0.4,3.2-0.5c1.8-0.3,3.6-0.5,5.4-0.6
					c1-0.1,2.1-0.1,3.1-0.2c1.5-0.1,3.1-0.1,4.6,0c1.7,0,3.4,0.1,5.1,0.3c1.5,0.2,3.1,0.3,4.6,0.5c1.2,0.2,2.5,0.4,3.7,0.7
					c2.2,0.4,4.3,1,6.4,1.6c1.1,0.3,2.3,0.7,3.4,1.1c1,0.3,1.9,0.7,2.9,1c0.8,0.3,1.6,0.7,2.4,1c0.9,0.4,1.8,0.8,2.7,1.2
					c0.4,0.2,0.8,0.4,1.3,0.6c2.4,1.2,4.7,2.5,7,3.9C149.6,67.4,151,68.3,152.4,69.3z M155.2,83.1C142,70.2,126,63.5,107.5,63.5
					c-17.7,0-33.2,6.2-46.1,18.4c-14,13.3-20.9,29.9-21.3,49.1c0.4,18.7,6.7,34.7,20,47.8c13.2,13.1,29.3,19.8,47.9,19.7
					c18.6,0,34.8-6.8,47.8-20.1c14.5-14.9,21-32.9,19.2-53.7C173.6,108.6,166.9,94.5,155.2,83.1z"/>
			</g>
			<g>
			</g>
		</g>
	</g>
	<linearGradient id="SVGID_3_" gradientUnits="userSpaceOnUse" x1="104.0389" y1="151.2536" x2="117.266" y2="98.2023">
		<stop  offset="0" style="stop-color:#E52D27"/>
		<stop  offset="1" style="stop-color:#B31217"/>
	</linearGradient>
	<path class="st9" d="M133.7,135.7c0.4,1.6-0.5,3.2-2.1,3.6l-31.8,8.4c-1.6,0.4-3.2-0.5-3.6-2.1l-8.4-31.8c-0.4-1.6,0.5-3.2,2.1-3.6
		l31.8-8.4c1.6-0.4,3.2,0.5,3.6,2.1L133.7,135.7z"/>
	<g class="st7">
		<linearGradient id="SVGID_4_" gradientUnits="userSpaceOnUse" x1="229.394" y1="143.1254" x2="265.7763" y2="143.1254">
			<stop  offset="0" style="stop-color:#E52D27"/>
			<stop  offset="1" style="stop-color:#B31217"/>
		</linearGradient>
		<path class="st10" d="M229.4,110.8h8h21.1l7.3,8.1V131l-7.3,8.1l7.3,8.1v20.2l-7.3,8.1h-29.1V110.8z M243.9,135h7.3v-16.2h-7.3
			V135z M243.9,167.4h7.3v-24.3h-7.3V167.4z"/>
		<linearGradient id="SVGID_5_" gradientUnits="userSpaceOnUse" x1="273.0527" y1="147.1677" x2="302.1587" y2="147.1677">
			<stop  offset="0" style="stop-color:#E52D27"/>
			<stop  offset="1" style="stop-color:#B31217"/>
		</linearGradient>
		<path class="st11" d="M273.1,143.1V135h21.8h7.3v8.1h-7.3v24.3h7.3v8.1h-29.1v-8.1h7.3v-24.3H273.1z M280.3,118.9h14.6v8.1h-14.6
			V118.9z"/>
		<linearGradient id="SVGID_6_" gradientUnits="userSpaceOnUse" x1="309.435" y1="143.1254" x2="353.0937" y2="143.1254">
			<stop  offset="0" style="stop-color:#E52D27"/>
			<stop  offset="1" style="stop-color:#B31217"/>
		</linearGradient>
		<path class="st12" d="M316.7,110.8h14.6V135h10.9v8.1h-10.9v24.3h7.4l-0.1-8.1h14.6v8.1l-7.3,8.1H324l-7.3-8.1v-24.3h-7.3V135h7.3
			V110.8z"/>
	</g>
	<g class="st7">
		<path class="st8" d="M404.7,110.8v12.1l7.3,8.1v-20.2h14.6v64.7H412v-32.3l-7.3-8.1v40.4h-14.6v-64.7H404.7z"/>
		<path class="st8" d="M441.1,175.5l-7.3-8.1v-24.3l7.3-8.1H463l7.3,8.1v12.1h-14.6v-12.1h-7.3v24.3h7.2l0.1-12.1h14.6v12.1
			l-7.3,8.1H441.1z"/>
		<path class="st8" d="M513.9,135v24.3l-14.6,16.2h-7.3l-14.6-16.2V135h14.6v32.3h7.3V135H513.9z"/>
		<path class="st8" d="M550.3,135l7.3,8.1v32.3h-29.1l-7.3-8.1v-8.1l7.3-8.1H543v-8.1h-18.2V135H550.3z M535.7,167.4h7.3v-8.1h-7.3
			L535.7,167.4z"/>
		<path class="st8" d="M572.1,110.8h21.8l7.3,8.1v8.1h-14.6v-8.1h-7.3V135h14.6l7.3,8.1v24.3l-7.3,8.1h-21.8l-7.3-8.1v-8.1h14.6v8.1
			h7.3v-24.3h-14.6l-7.3-8.1v-16.2L572.1,110.8z"/>
		<path class="st8" d="M615.8,175.5l-7.3-8.1v-24.3l7.3-8.1h21.8l7.3,8.1v12.1h-14.6v-12.1H623v24.3h7.2l0.1-12.1h14.6v12.1
			l-7.3,8.1H615.8z"/>
		<path class="st8" d="M659.4,143.1h-7.3V135h7.3v-16.2l7.3-8.1h21.8l7.3,8.1v8.1h-14.6l0.1-8.1H674V135h10.9v8.1H674v32.3h-14.6
			V143.1z"/>
		<path class="st8" d="M710.4,110.8h14.6V135h10.9v8.1h-10.9v24.3h7.4l-0.1-8.1h14.6v8.1l-7.3,8.1h-21.8l-7.3-8.1v-24.3h-7.3V135
			h7.3V110.8z"/>
	</g>
</g>
<g id="Layer_2">
	<g id="Layer_1_1_">
		<g class="st0">
			
				<linearGradient id="SVGID_7_" gradientUnits="userSpaceOnUse" x1="293.4995" y1="-711.1401" x2="340.5995" y2="-711.1401" gradientTransform="matrix(1 0 0 -1 0 -564.1929)">
				<stop  offset="0" style="stop-color:#E52D27"/>
				<stop  offset="1" style="stop-color:#B31217"/>
			</linearGradient>
			<path class="st13" d="M293.5,105h10.4h27.3l9.4,10.5v15.7l-9.4,10.5l9.4,10.5v26.2l-9.4,10.5h-37.7V105L293.5,105z M312.4,136.4
				h9.4v-20.9h-9.4V136.4z M312.4,178.3h9.4v-31.4h-9.4V178.3z"/>
			
				<linearGradient id="SVGID_8_" gradientUnits="userSpaceOnUse" x1="349.9995" y1="-716.3401" x2="387.6995" y2="-716.3401" gradientTransform="matrix(1 0 0 -1 0 -564.1929)">
				<stop  offset="0" style="stop-color:#E52D27"/>
				<stop  offset="1" style="stop-color:#B31217"/>
			</linearGradient>
			<path class="st14" d="M350,146.9v-10.5h28.3h9.4v10.5h-9.4v31.4h9.4v10.5H350v-10.5h9.4v-31.4H350z M359.5,115.5h18.8V126h-18.8
				V115.5z"/>
			
				<linearGradient id="SVGID_9_" gradientUnits="userSpaceOnUse" x1="397.1385" y1="-711.0901" x2="453.6603" y2="-711.0901" gradientTransform="matrix(1 0 0 -1 0 -564.1929)">
				<stop  offset="0" style="stop-color:#E52D27"/>
				<stop  offset="1" style="stop-color:#B31217"/>
			</linearGradient>
			<path class="st15" d="M406.6,105h18.8v31.4h14.1v10.5h-14.1v31.4h9.6l-0.2-10.5h18.8v10.5l-9.4,10.5H416l-9.4-10.5v-31.4h-9.4
				v-10.5h9.4V105L406.6,105z"/>
		</g>
		<g class="st0">
			<path class="st16" d="M520.5,105v15.7l9.4,10.5V105h18.8v83.7H530v-41.9l-9.4-10.5v52.3h-18.8v-83.7L520.5,105L520.5,105z"/>
			<path class="st16" d="M567.6,188.7l-9.4-10.5v-31.4l9.4-10.5h28.3l9.4,10.5v15.8h-18.8v-15.7h-9.4v31.4h9.3l0.1-15.7h18.8v15.7
				l-9.4,10.5L567.6,188.7L567.6,188.7z"/>
			<path class="st16" d="M661.8,136.4v31.4L643,188.7h-9.4l-18.8-20.9v-31.4h18.8v41.9h9.4v-41.9H661.8L661.8,136.4z"/>
			<path class="st16" d="M708.9,136.4l9.4,10.5v41.9h-37.7l-9.4-10.5v-10.5l9.4-10.5h18.8v-10.5H676v-10.5L708.9,136.4L708.9,136.4z
				 M690.1,178.3h9.4v-10.5H690L690.1,178.3z"/>
			<path class="st16" d="M737.2,105h28.3l9.4,10.5V126H756v-10.5h-9.4v20.9h18.8l9.4,10.5v31.4l-9.4,10.5h-28.3l-9.4-10.5v-10.5
				h18.8v10.5h9.4v-31.4h-18.8l-9.4-10.5v-20.9L737.2,105z"/>
			<path class="st16" d="M793.7,188.7l-9.4-10.5v-31.4l9.4-10.5H822l9.4,10.5v15.8h-18.8v-15.7h-9.4v31.4h9.3l0.1-15.7h18.8v15.7
				l-9.4,10.5L793.7,188.7L793.7,188.7z"/>
			<path class="st16" d="M850.2,146.9h-9.4v-10.5h9.4v-20.9l9.4-10.5h28.3l9.4,10.5V126h-18.8l0.2-10.5h-9.6v20.9h14.1v10.5h-14.1
				v41.9h-18.8L850.2,146.9L850.2,146.9z"/>
			<path class="st16" d="M916.2,105H935v31.4h14.1v10.5H935v31.4h9.6l-0.2-10.5h18.8v10.5l-9.4,10.5h-28.3l-9.4-10.5v-31.4h-9.4
				v-10.5h9.4L916.2,105L916.2,105z"/>
		</g>
		<g id="Layer_2_2_">
			<g>
				<path class="st17" d="M286.8,183.4V65.5h39.1c13,0,23.2,2.7,30.6,8c7.4,5.4,11,13.4,11,24.1c0,5.4-1.5,10.1-4.6,14.3
					c-3.1,4.2-7.4,7.4-12.7,9.4c7,1.5,12.4,5,16.2,10.1c3.8,5.2,5.6,11.2,5.6,18.1c0,11.1-3.6,19.5-10.8,25.2
					c-7.3,5.7-17.2,8.7-29.9,8.7H286.8z M306.4,115.2h21.7c6.1,0,11-1.4,14.4-4.3c3.6-2.9,5.4-7,5.4-12.2c0-5.9-1.9-10.2-5.6-13
					c-3.7-2.8-9.2-4.2-16.3-4.2h-19.5L306.4,115.2L306.4,115.2z M306.4,129.7v37.7h24.7c6.8,0,12-1.5,15.7-4.6
					c3.7-3.1,5.5-7.5,5.5-13.4c0-6.2-1.5-11.1-4.6-14.5c-3.1-3.4-7.9-5.2-14.4-5.2H306.4z"/>
				<path class="st17" d="M411.3,74.4h-19.6V57.1h19.6V74.4z M411.3,183.4h-19.6V95.8h19.6V183.4z"/>
				<path class="st17" d="M457.8,74.6v21.3h15.7v14.5h-15.7v48.4c0,3.6,0.8,6.2,2.3,7.8c1.5,1.5,3.7,2.3,6.2,2.3
					c1,0,2.2-0.1,3.2-0.3c1-0.1,2-0.4,2.9-0.8l2.2,14.4c-1.7,0.9-3.7,1.7-6,2.2s-4.7,0.8-7.1,0.8c-7.3,0-12.9-2.2-16.9-6.4
					c-4.1-4.2-6.1-10.8-6.1-19.9v-48.4H425V96h13.4V74.6H457.8z"/>
				<path class="st8" d="M612.6,183.4H593l-52.2-86l-0.5,0.1v85.7h-19.6V65.5h19.6l52.2,85.9l0.5-0.1V65.5h19.6L612.6,183.4
					L612.6,183.4z"/>
				<path class="st8" d="M632.2,138.8c0-13,3.6-23.7,10.7-32c7.3-8.4,17.1-12.5,29.3-12.5c12.6,0,22.4,4.2,29.6,12.5
					c7.1,8.3,10.7,19,10.7,32v1.7c0,13.1-3.6,23.8-10.7,32.2c-7.1,8.3-16.9,12.4-29.3,12.4c-12.5,0-22.3-4.2-29.6-12.5
					c-7.1-8.3-10.7-19-10.7-32.1V138.8z M651.9,140.4c0,8.5,1.7,15.4,5,20.9c3.3,5.4,8.4,8,15.5,8c6.9,0,12-2.7,15.4-8
					c3.4-5.4,5.2-12.4,5.2-20.9v-1.7c0-8.3-1.8-15.2-5.2-20.6c-3.4-5.5-8.5-8.2-15.5-8.2c-6.9,0-12,2.7-15.4,8.2
					c-3.3,5.5-5,12.4-5,20.6V140.4z"/>
				<path class="st8" d="M758.8,153.7l1.4,7.1h0.5l1.5-7.1l17.3-57.8h20.3l-31.1,87.5h-17.1l-31.2-87.5h20.3L758.8,153.7z"/>
				<path class="st8" d="M863.7,183.4c-0.8-2.2-1.3-4.3-1.8-6.5c-0.5-2.2-0.8-4.2-0.9-6.4c-2.7,4.1-6.2,7.5-10.6,10.3
					c-4.3,2.8-9.3,4.2-14.8,4.2c-9.2,0-16.1-2.3-21-7c-5-4.7-7.3-11.1-7.3-19.4c0-8.4,3.3-15,10.1-19.7c6.6-4.7,16.1-7.1,28.3-7.1
					H861v-7.6c0-4.6-1.4-8.2-4.1-10.7c-2.7-2.5-6.5-3.8-11.6-3.8c-4.5,0-8,1-10.7,3.2c-2.7,2.2-3.9,5-3.9,8.3h-19l-0.1-0.5
					c-0.4-6.9,2.7-13,9.3-18.3c6.5-5.4,15-8,25.6-8c10.2,0,18.5,2.5,24.7,7.8c6.2,5.2,9.4,12.6,9.4,22.3v38.9
					c0,3.6,0.3,7.1,0.8,10.4s1.3,6.6,2.3,9.7h-20L863.7,183.4L863.7,183.4z M839.6,169.2c5,0,9.4-1.3,13.4-3.7
					c3.9-2.4,6.6-5.4,7.9-8.5v-13h-15.7c-5.7,0-10.2,1.4-13.4,4.2c-3.2,2.8-4.8,6.1-4.8,9.9c0,3.3,1.1,6,3.3,8
					C832.5,168.3,835.5,169.2,839.6,169.2z"/>
				<path class="st8" d="M967.5,153c0-4.8-1.8-8.9-5.5-12c-3.7-3.1-10.1-5.9-19.2-8.4c-13.1-3.4-23.3-8-30.3-13.8
					c-7.1-5.7-10.6-13.1-10.6-22.4c0-9.4,3.9-17.3,11.7-23.4c7.9-6.1,18-9.2,30.3-9.2c13,0,23.3,3.4,31.2,10.4
					c7.9,7,11.6,15.4,11.3,25.1l-0.1,0.5h-18.9c0-6-2-11-6.1-14.7c-4.1-3.7-9.9-5.6-17.6-5.6c-7.1,0-12.7,1.5-16.6,4.7
					c-3.8,3.1-5.7,7.1-5.7,12.1c0,4.5,2,8.2,6.2,11.1c4.2,2.9,11.1,5.7,20.8,8.4c12.6,3.4,22.3,8,28.9,14c6.6,6,9.8,13.6,9.8,22.9
					c0,9.8-3.9,17.6-11.7,23.4c-7.9,5.7-18.2,8.7-31,8.7c-12.2,0-23.1-3.3-32.4-9.8c-9.3-6.5-13.8-15.5-13.5-26.8l0.1-0.5h19
					c0,7.1,2.4,12.5,7.4,16.1c5,3.6,11.5,5.4,19.4,5.4c7.3,0,13-1.4,16.9-4.3C965.5,162,967.5,158,967.5,153z"/>
				<path class="st8" d="M1001.7,138.8c0-13,3.6-23.7,10.7-32c7.3-8.4,17.1-12.5,29.3-12.5c12.6,0,22.4,4.2,29.6,12.5
					c7.1,8.3,10.7,19,10.7,32v1.7c0,13.1-3.6,23.8-10.7,32.2c-7.1,8.3-16.9,12.4-29.3,12.4c-12.5,0-22.3-4.2-29.6-12.5
					c-7.1-8.3-10.7-19-10.7-32.1V138.8z M1021.3,140.4c0,8.5,1.7,15.4,5,20.9c3.3,5.4,8.4,8,15.5,8c6.9,0,12-2.7,15.4-8
					c3.4-5.4,5.2-12.4,5.2-20.9v-1.7c0-8.3-1.8-15.2-5.2-20.6c-3.4-5.5-8.5-8.2-15.5-8.2c-6.9,0-12,2.7-15.4,8.2
					c-3.3,5.5-5,12.4-5,20.6V140.4z"/>
				<path class="st8" d="M1105.5,183.4v-73h-13.4V95.8h13.4V85.6c0-9.7,2.7-17.1,7.9-22.3c5.2-5.2,12.6-7.9,22.2-7.9
					c1.9,0,3.8,0.1,5.7,0.4c1.9,0.3,4.1,0.8,6.5,1.3l-2,15.2c-1-0.3-2.3-0.4-3.6-0.5c-1.3-0.1-2.7-0.3-4.2-0.3
					c-4.2,0-7.5,1.3-9.6,3.7c-2.2,2.4-3.2,5.9-3.2,10.4v10.2h17.8v14.5h-17.8v73H1105.5z"/>
				<path class="st8" d="M1181.7,74.6v21.3h15.7v14.5h-15.7v48.4c0,3.6,0.8,6.2,2.3,7.8c1.5,1.5,3.7,2.3,6.2,2.3
					c1,0,2.2-0.1,3.2-0.3c1-0.1,2-0.4,2.9-0.8l2.2,14.4c-1.7,0.9-3.7,1.7-6,2.2c-2.3,0.5-4.7,0.8-7.1,0.8c-7.3,0-12.9-2.2-16.9-6.4
					c-4.1-4.2-6.1-10.8-6.1-19.9v-48.4H1149V96h13.4V74.6H1181.7z"/>
			</g>
		</g>
		<g>
			<path class="st18" d="M233.3,121.1c-0.1,0-0.1,0.4-0.3,0.1l0,0c0.1-0.6,0.1-1.2-0.1-1.8c0-0.2,0-0.3,0-0.5
				c0.1-1.4-0.1-2.8-0.2-4.2c-0.2-2.2-0.5-4.4-0.8-6.7c-0.3-2-0.6-4-1-6l0,0c-0.1-0.6-0.3-1.1-0.4-1.7c-0.1-0.1-0.1-0.3-0.1-0.5
				c-0.4-1.6-0.8-3.1-1.2-4.7l0,0c-0.3-0.6-0.3-1.2-0.5-1.7l0,0c-0.2-0.6-0.5-1.2-0.6-1.9c-0.2-0.1,0-0.4-0.2-0.5
				c-0.1-0.1,0-0.2-0.1-0.3l0,0c-0.4-0.7-0.6-1.6-0.8-2.3l0,0c-0.3-0.4-0.3-0.9-0.5-1.3l0,0c-0.1-0.2-0.1-0.5-0.3-0.7
				c-0.1-0.2-0.2-0.4-0.2-0.6c-0.2-0.5-0.4-0.9-0.6-1.4l0,0c-0.7-1.4-1.3-3-1.9-4.4l0,0c-0.5-0.8-0.9-1.7-1.2-2.5l0,0
				c-0.3-0.4-0.4-0.9-0.7-1.3c0,0,0-0.1,0-0.1c-0.5-0.9-1.1-1.8-1.5-2.8l0,0c-0.4-0.6-0.7-1.3-1.1-1.8c-0.1-0.2-0.2-0.5-0.4-0.7
				c-0.3-0.4-0.5-0.9-0.7-1.3l0,0c-0.2-0.2-0.3-0.5-0.5-0.8c0-0.1-0.1-0.2-0.1-0.3c-0.8-1.1-1.6-2.3-2.4-3.5c0,0-0.1-0.1-0.1-0.1
				c-0.2-0.2-0.2-0.4-0.4-0.6l0,0c-0.2-0.1-0.3-0.3-0.3-0.5l0,0c-0.3-0.4-0.7-0.8-1-1.3l0,0c-0.6-0.9-1.4-1.7-2-2.6l0,0
				c-0.7-0.7-1.3-1.5-1.9-2.3l0,0c-0.2-0.1-0.4-0.3-0.5-0.6l0,0c-0.4-0.3-0.6-0.7-1-1c0,0-0.1-0.1-0.1-0.1c-0.2,0-0.2-0.2-0.2-0.3
				l0,0c-0.3-0.2-0.5-0.4-0.7-0.7c0,0-0.1-0.1-0.1-0.1c-0.4-0.3-0.6-0.7-1-1c0,0-0.1-0.1-0.1-0.1c-0.7-0.8-1.5-1.5-2.2-2.3
				c-0.1-0.1-0.2-0.2-0.4-0.4c-0.4-0.3-0.6-0.8-1-1.1l0,0c-0.4-0.3-0.7-0.6-1-0.9l0,0c-0.8-0.5-1.4-1.3-2.1-1.8
				c-0.2-0.2-0.4-0.4-0.6-0.6c-0.3-0.2-0.5-0.4-0.7-0.6l0,0c-0.5-0.4-1.1-0.8-1.5-1.3l0,0c-0.3-0.2-0.6-0.4-0.8-0.7l0,0
				c-0.2-0.1-0.3-0.2-0.5-0.4l0,0c-0.6-0.3-1-0.8-1.5-1.2l0,0c-0.3-0.3-0.6-0.5-1-0.7l0,0c-0.7-0.5-1.5-1-2.2-1.6
				c-0.2-0.3-0.6-0.3-0.8-0.6l0,0c-0.5-0.4-1.1-0.6-1.5-1.1l0,0c-0.2-0.1-0.4-0.1-0.5-0.3l0,0c-0.2-0.1-0.4-0.2-0.6-0.3
				c-0.2-0.2-0.5-0.3-0.7-0.5c-0.3-0.2-0.7-0.3-0.9-0.6l0,0c-0.5-0.2-0.9-0.5-1.3-0.8c-0.2-0.1-0.4-0.2-0.6-0.3
				c-0.2-0.1-0.4-0.1-0.6-0.3c-0.1,0-0.2-0.1-0.2-0.1c-1.4-0.7-2.8-1.6-4.3-2.3c-0.1-0.1-0.3-0.1-0.4-0.3l0,0
				c-0.9-0.4-1.8-0.8-2.6-1.3c-0.2-0.1-0.3-0.1-0.5-0.2c-1.2-0.5-2.4-1-3.6-1.5c-0.1-0.1-0.3-0.1-0.4-0.2l0,0
				c-0.2-0.1-0.3-0.1-0.5-0.2l0,0c-0.3-0.2-0.6-0.2-0.9-0.3l0,0c-0.3-0.1-0.6-0.2-0.9-0.3l0,0c-0.2-0.1-0.4-0.1-0.6-0.2l0,0
				c-0.8-0.2-1.6-0.5-2.3-0.8c-0.2-0.1-0.4-0.1-0.6-0.2c-0.1,0-0.2-0.1-0.3-0.1c-0.2-0.1-0.5-0.1-0.7-0.2l0,0
				c-0.2-0.1-0.5-0.1-0.7-0.2c-0.4-0.1-0.7-0.2-1.1-0.3c-1.2-0.4-2.3-0.6-3.5-1l0,0c-0.2-0.1-0.3,0-0.5-0.1
				c-0.1-0.1-0.3,0.1-0.5-0.1c-0.3-0.1-0.6-0.1-0.8-0.2l0,0c-0.2-0.1-0.4,0.1-0.6-0.1l0,0c-0.3-0.1-0.6-0.1-0.8-0.2l0,0
				c-0.2-0.1-0.4,0.1-0.6-0.1l0,0c-2.5-0.5-5-1-7.5-1.4l0,0c-0.3-0.1-0.6,0.1-0.8-0.1l0,0c-0.2-0.1-0.5,0.1-0.7-0.1l0,0
				c-0.3-0.2-0.7,0.1-1.1-0.1l0,0c-0.6-0.1-1.3-0.1-1.9-0.2l0,0c-2.4-0.2-4.7-0.4-7.1-0.4c-1.9,0-3.8-0.1-5.8,0
				c-2.3,0.1-4.6,0.2-6.8,0.4c-1.8,0.2-3.6,0.4-5.4,0.6l0,0c-0.5,0.1-1.1,0.2-1.6,0.3l0,0c-1.3,0.2-2.6,0.5-3.9,0.8
				c-1.6,0.3-3.3,0.7-4.9,1.1l0,0c-0.3,0.1-0.7,0.1-1.1,0.3c-0.2,0-0.3,0-0.4,0.1c-0.3,0.1-0.5,0.2-0.8,0.2
				c-0.2-0.1-0.3,0.2-0.5,0.2c-1.3,0.5-2.6,0.8-3.9,1.2c-0.3,0.1-0.5,0.2-0.8,0.2l0,0c-0.4,0.2-0.9,0.3-1.3,0.5l0,0
				c-1.2,0.5-2.4,1-3.6,1.3l0,0c-0.3,0.2-0.6,0.3-0.9,0.4l0,0c-0.3,0.2-0.7,0.4-1.1,0.5l0,0c-0.2,0.1-0.4,0.2-0.6,0.2l0,0
				c-0.7,0.2-1.2,0.7-1.9,0.8l0,0c-0.6,0.3-1.2,0.6-1.8,0.8c-0.1,0-0.3,0-0.2-0.2c2.3-2,4.7-4,7.1-5.8c2.9-2.1,5.9-4,9-5.8
				c1.4-0.8,2.9-1.5,4.4-2.3c1.8-0.9,3.6-1.7,5.5-2.4c1.7-0.7,3.4-1.3,5.1-1.9c1.9-0.6,3.8-1.2,5.8-1.7c2.2-0.6,4.5-1,6.7-1.5
				c1.5-0.3,3.1-0.5,4.6-0.7c1.4-0.2,2.8-0.3,4.2-0.4c1.2-0.1,2.4-0.1,3.6-0.2c1.6,0,3.2,0,4.8,0c2.8,0.1,5.6,0.3,8.4,0.6
				c2.6,0.3,5.1,0.7,7.6,1.2c7.1,1.4,13.8,3.7,20.3,6.8c5.9,2.8,11.4,6.2,16.6,10.3c4.2,3.3,8.1,7,11.7,11c1.9,2.2,3.7,4.4,5.4,6.7
				c2.1,2.9,4,5.9,5.8,9c0.8,1.4,1.5,2.9,2.3,4.4c1.1,2.3,2.1,4.6,3,6.9c0.9,2.3,1.6,4.6,2.3,6.9c0.5,1.7,1,3.5,1.4,5.2
				c0.7,2.9,1.2,5.7,1.5,8.7c0.3,2,0.4,4,0.5,6c0,1.1,0.2,2.2,0.1,3.3c0.1,0.6,0,1.3,0,2c0,0.7,0.1,1.3,0,2c0,2.2-0.2,4.4-0.4,6.6
				c-0.4,3.5-0.9,7-1.7,10.5C233.9,118.6,233.6,119.9,233.3,121.1z"/>
			
				<linearGradient id="SVGID_10_" gradientUnits="userSpaceOnUse" x1="121.2393" y1="-705.4198" x2="5.8007" y2="-921.9545" gradientTransform="matrix(1 0 0 -1 0 -564.1929)">
				<stop  offset="0" style="stop-color:#E52D27"/>
				<stop  offset="1" style="stop-color:#B31217"/>
			</linearGradient>
			<path class="st19" d="M219.4,118.1c0.1,0.8,0.3,1.5,0.4,2.3c0.3,2.2,0.7,4.5,0.9,6.7c0.2,2.4,0.3,4.8,0.4,7.2c0,2.5,0,5-0.2,7.6
				c-0.1,1.8-0.3,3.7-0.6,5.5c-0.3,2.2-0.7,4.4-1.2,6.6c-0.5,2.1-0.9,4.3-1.6,6.3c-0.9,2.8-1.9,5.5-2.9,8.2
				c-0.6,1.6-1.4,3.1-2.1,4.6c-0.8,1.7-1.7,3.4-2.6,5c-1.3,2.2-2.7,4.3-4.1,6.4c-1.5,2.1-3,4.2-4.6,6.1c-1.8,2.1-3.7,4-5.6,5.9
				c-1.1,1.2-2.3,2.3-3.6,3.3c-1.6,1.3-3.1,2.6-4.8,3.8c-1.6,1.2-3.3,2.4-5,3.4c-2.1,1.3-4.2,2.5-6.4,3.6c-2.5,1.3-5,2.4-7.6,3.6
				c-1.5,0.7-3.1,1.1-4.6,1.7c-1.8,0.6-3.5,1.2-5.3,1.7c-1.5,0.4-3,0.8-4.5,1.1c-1.8,0.4-3.6,0.7-5.4,1c-1.3,0.2-2.7,0.4-4,0.5
				c-2.2,0.2-4.3,0.4-6.5,0.5c-1.5,0.1-3,0.1-4.5,0.1c-1.6,0-3.3,0-4.9-0.1c-1.9-0.1-3.8-0.3-5.7-0.5c-1.9-0.2-3.9-0.5-5.8-0.8
				c-1.7-0.3-3.5-0.7-5.2-1.1c-2.4-0.6-4.8-1.2-7.2-1.9c-1.9-0.6-3.8-1.3-5.7-2.1c-1.5-0.6-3.1-1.2-4.5-1.8
				c-1.8-0.8-3.5-1.6-5.3-2.5c-1.9-1-3.9-2-5.8-3.1c-1.9-1.1-3.7-2.3-5.5-3.5c-1.5-1-2.9-2-4.3-3c-1-0.7-2-1.5-2.9-2.3
				c-1.9-1.6-3.8-3.2-5.6-4.9c-1.6-1.5-3.2-3.2-4.7-4.8c-1.4-1.5-2.8-2.9-4-4.5c-1.6-1.9-3-3.9-4.5-5.9c-1.3-1.8-2.6-3.7-3.7-5.6
				c-1.1-1.8-2.1-3.7-3.1-5.6c-0.8-1.5-1.6-3-2.3-4.5c-0.9-1.9-1.7-3.9-2.5-5.9c-0.6-1.4-1.1-2.9-1.6-4.3c-0.6-1.9-1.1-3.8-1.6-5.7
				c-0.5-2.1-1.1-4.1-1.5-6.2c-0.5-2.9-0.8-5.8-1.2-8.6c-0.4-3.5-0.5-6.9-0.4-10.4c0.1-2.6,0.3-5.1,0.6-7.7c0.2-2,0.5-3.9,0.9-5.9
				c0.4-2.1,0.8-4.2,1.3-6.3c0.6-2.3,1.4-4.5,2.1-6.7c0.5-1.4,1-2.7,1.5-4c0.5-1.3,1.1-2.6,1.7-3.8c1-2,2-4,3.1-5.9
				c1.3-2.2,2.7-4.3,4.2-6.4c1.4-2.1,3-4,4.5-6c0.5-0.6,1-1.1,1.5-1.7c1.1-1.2,2.2-2.4,3.4-3.6c1.5-1.5,3.1-2.9,4.8-4.3
				c1.8-1.5,3.6-3.1,5.6-4.4c2.6-1.8,5.2-3.4,7.9-5c2.2-1.2,4.5-2.3,6.8-3.3c2.2-1,4.5-1.9,6.8-2.8c0,0,0.1,0,0.2,0
				c-0.9,0.5-1.7,1-2.5,1.4c-4.2,2.4-8.1,5.3-11.7,8.5c-4.3,3.8-8.1,8-11.4,12.6c-3.5,4.9-6.4,10.2-8.7,15.8
				c-2.4,5.9-3.9,11.9-4.8,18.2c-0.7,5.1-0.9,10.3-0.5,15.5c0.3,4.4,0.9,8.7,1.9,13c0.8,3.2,1.7,6.4,2.8,9.6
				c1.5,4.2,3.3,8.2,5.4,12.1c1.8,3.4,3.9,6.6,6.1,9.7c2.9,4,6.1,7.8,9.6,11.3c0.1,0.1,0.1,0.1,0.3,0.2c0.1-0.3,22.6-67.2,22.6-67.2
				l61,40.9c0,0-51,47-51,47c0,0,1.1,0.4,1.6,0.6c6.2,2.2,12.5,3.7,19,4.5c5.5,0.7,11,0.9,16.4,0.4c3.3-0.3,6.5-0.7,9.8-1.2
				c2.3-0.4,4.5-1,6.7-1.6c4.6-1.2,9-2.9,13.2-4.9c5.9-2.8,11.3-6.3,16.2-10.5c4-3.4,7.6-7.1,10.8-11.3c3-3.9,5.7-8.1,7.9-12.6
				c2.5-4.9,4.3-10.1,5.7-15.4c1.1-4.3,1.8-8.6,2-13C219.4,124.1,219.3,121.1,219.4,118.1C219.4,118.1,219.4,118.1,219.4,118.1
				L219.4,118.1z"/>
			<g>
				<g id="XMLID_1_">
					<g>
						<path class="st8" d="M226.4,129.7L226.4,129.7c0,1.2-0.1,2.4,0,3.6c-0.2,0.5,0,1.1-0.1,1.7c-0.1,1.5-0.2,3-0.3,4.6
							c-0.2,1.5-0.3,3.1-0.5,4.6c-0.1,0.7-0.2,1.4-0.3,2.1s-0.4,1.5-0.3,2.2c0,0.3-0.1,0.5-0.2,0.8c-0.6,3.2-1.4,6.3-2.3,9.4
							c-0.4,1.5-0.9,3-1.4,4.4c-0.4,1.2-0.9,2.4-1.3,3.7s-1.1,2.5-1.6,3.7c-0.8,2-1.8,3.9-2.8,5.9c-1.4,2.7-2.9,5.3-4.5,7.9
							c-0.9,1.4-1.8,2.8-2.8,4.1c-0.7,1-1.5,2-2.3,3c-0.7,0.9-1.3,1.8-2,2.6c-0.9,1-1.7,2.1-2.7,3.1c-1,1.2-2.1,2.3-3.2,3.4
							c-0.9,1-1.9,1.9-2.9,2.8c-0.8,0.8-1.6,1.6-2.5,2.3c-1.3,1.1-2.6,2.3-4,3.3c-0.8,0.6-1.5,1.2-2.3,1.8c-1.2,1-2.5,1.8-3.8,2.7
							c-1.5,1-3,1.9-4.6,2.8c-1.9,1.1-3.8,2.2-5.8,3.2c-2.5,1.3-5.2,2.4-7.8,3.5c-1.8,0.7-3.6,1.3-5.4,2c-1.8,0.6-3.6,1.1-5.4,1.7
							c-2.1,0.6-4.2,1.1-6.3,1.5c-1.6,0.3-3.3,0.6-5,0.9c-2.6,0.4-5.2,0.7-7.8,0.9c-2.1,0.2-4.2,0.2-6.4,0.3c-2.1,0-4.1-0.1-6.2-0.2
							c-1.3-0.1-2.7-0.2-4-0.3c-1.6-0.2-3.3-0.4-4.9-0.6c-0.5,0-1-0.2-1.5-0.3c-1.1-0.2-2.2-0.4-3.4-0.6c-2.7-0.5-5.4-1.2-8.1-2
							c-1.5-0.4-3-0.9-4.6-1.4c-1.2-0.4-2.4-0.9-3.7-1.3c-1.1-0.4-2.1-0.9-3.1-1.3c-1.2-0.5-2.3-1-3.5-1.5c-0.6-0.2-1.1-0.6-1.7-0.8
							c-3.1-1.5-6-3.2-8.9-5c-1.8-1.2-3.7-2.4-5.4-3.7c-1.6-1.2-3.2-2.4-4.8-3.7c-1-0.8-2-1.7-2.9-2.5c-2-1.9-4-3.7-5.9-5.7
							c-1-1-2-2-2.9-3.1c-1-1.3-2-2.4-3-3.7c-1.1-1.4-2.2-2.8-3.2-4.2c-0.7-1.1-1.5-2.1-2.2-3.2c-1.1-1.8-2.2-3.6-3.2-5.4
							c-1.1-1.9-2.1-3.8-3-5.8c-0.9-1.8-1.6-3.7-2.4-5.5s-1.3-3.6-2-5.4c-0.6-1.8-1.2-3.5-1.6-5.3c-0.5-1.8-1-3.6-1.3-5.4
							c-0.4-1.9-0.7-3.8-1-5.8c-0.4-2.6-0.6-5.2-0.9-7.8c-0.2-1.4-0.1-2.9-0.2-4.3c0.1-0.5,0-1.1,0-1.6c0-1.1,0-2.3,0-3.4
							c0-0.8,0-1.6,0.1-2.5c0.1-1.2,0.1-2.4,0.3-3.6c0.2-1.1,0.2-2.2,0.4-3.2c0.1-1.2,0.3-2.3,0.5-3.5c0.1-0.7,0.3-1.4,0.3-2.2
							c0-0.3,0.1-0.6,0.2-0.9c0.6-3.1,1.4-6.1,2.2-9.2c0.4-1.5,1-3,1.4-4.6c0.4-1.2,0.9-2.5,1.3-3.7c0.4-1.1,0.9-2.1,1.3-3.1
							c0.5-1.1,1-2.3,1.5-3.4c0.2-0.6,0.5-1.1,0.8-1.6c1.6-3.2,3.3-6.3,5.2-9.2c1.6-2.5,3.3-5,5.2-7.3c1.3-1.7,2.6-3.4,4.1-5
							c1-1.2,2.1-2.3,3.2-3.4c1.9-2.1,4-4,6.1-5.9c1.2-1.1,2.5-2.2,3.9-3.2c0.8-0.5,1.5-1.1,2.3-1.7c1-0.8,2.2-1.5,3.2-2.3
							c1.2-0.9,2.5-1.6,3.7-2.5c1.1-0.7,2.3-1.3,3.5-2c1.4-0.9,2.9-1.5,4.3-2.3c1.4-0.8,2.9-1.4,4.3-2c1.4-0.6,2.8-1.2,4.2-1.7
							c1.3-0.5,2.5-0.9,3.8-1.4c1-0.4,2.1-0.7,3.2-1c1.7-0.5,3.4-1,5.2-1.4c1.4-0.4,2.8-0.7,4.2-0.9c1.4-0.3,2.8-0.5,4.2-0.7
							c2.3-0.4,4.6-0.6,6.9-0.8c1.4-0.1,2.7-0.2,4.1-0.2c2-0.1,4-0.1,6-0.1c2.2,0.1,4.4,0.2,6.6,0.4c2,0.2,4,0.4,5.9,0.7
							c1.6,0.2,3.2,0.6,4.8,0.9c2.8,0.5,5.5,1.3,8.3,2c1.5,0.4,2.9,0.9,4.4,1.4c1.3,0.4,2.5,0.9,3.7,1.3c1.1,0.4,2.1,0.9,3.1,1.3
							c1.2,0.5,2.3,1,3.5,1.5c0.6,0.2,1.1,0.5,1.6,0.8c3.1,1.5,6.1,3.2,9,5.1c1.8,1.2,3.6,2.4,5.4,3.7c1.6,1.2,3.2,2.4,4.8,3.7
							c1,0.8,2,1.7,3,2.6c1.3,1.2,2.5,2.3,3.8,3.6c1.7,1.7,3.4,3.4,4.9,5.3c1,1.2,2.1,2.4,3,3.7c0.9,1.2,1.8,2.3,2.6,3.4
							c0.9,1.3,1.9,2.6,2.7,4c0.7,1.2,1.4,2.3,2.2,3.5c0.3,0.5,0.5,1,0.8,1.5c1.2,1.9,2.1,3.9,3.1,5.9c0.9,1.9,1.7,3.9,2.5,5.8
							c0.8,1.8,1.4,3.7,2.1,5.6c0.4,1.1,0.7,2.2,1,3.3c0.4,1.4,0.8,2.8,1.1,4.2c0.4,1.6,0.8,3.1,1.1,4.7c0.4,1.9,0.7,3.9,0.9,5.9
							c0.3,2.1,0.5,4.1,0.7,6.2C226.4,126,226.3,127.8,226.4,129.7z M190.1,192.7c18.8-19.3,27.2-42.6,24.9-69.5
							c-1.8-21.1-10.5-39.3-25.6-54.1c-17.1-16.7-37.8-25.3-61.7-25.3c-22.9,0-43,8-59.6,23.8C49.9,84.9,41,106.3,40.5,131.2
							c0.5,24.2,8.7,45,25.8,61.9s37.9,25.6,62,25.6C152.4,218.6,173.3,209.9,190.1,192.7z"/>
					</g>
				</g>
			</g>
			
				<linearGradient id="SVGID_11_" gradientUnits="userSpaceOnUse" x1="147.8859" y1="179.5358" x2="115.8296" y2="121.6523" gradientTransform="matrix(1 0 0 -1 0 274)">
				<stop  offset="0" style="stop-color:#F52D27"/>
				<stop  offset="0.5351" style="stop-color:#E32217"/>
				<stop  offset="0.8811" style="stop-color:#EC3E34"/>
			</linearGradient>
			<path class="st20" d="M164.8,137.6c0.5,2.3-0.8,4.6-2.9,5.1l-44.7,11.8c-2.3,0.5-4.6-0.8-5.1-2.9l-11.9-44.7
				c-0.5-2.3,0.8-4.6,2.9-5.1L147.8,90c2.3-0.5,4.6,0.8,5.1,2.9L164.8,137.6z"/>
			<path class="st21" d="M159.4,135.1c0.5,1.9-0.6,3.8-2.4,4.2l-37.2,9.9c-1.9,0.5-3.8-0.6-4.2-2.4l-9.9-37.2
				c-0.5-1.9,0.6-3.8,2.4-4.2l37.2-9.9c1.9-0.5,3.8,0.6,4.2,2.4L159.4,135.1z"/>
		</g>
	</g>
	<g id="Layer_2_1_">
		<g>
			
				<linearGradient id="SVGID_12_" gradientUnits="userSpaceOnUse" x1="67.9496" y1="90.5356" x2="15.6586" y2="37.6573" gradientTransform="matrix(0.9818 -0.1897 -0.1897 -0.9818 100.7621 196.5072)">
				<stop  offset="0" style="stop-color:#FF3228"/>
				<stop  offset="0.4222" style="stop-color:#E32217"/>
				<stop  offset="0.8457" style="stop-color:#EC3E34"/>
			</linearGradient>
			<path class="st22" d="M162.6,140.3c0.5,2.6-1.2,5.2-3.9,5.7l-44.5,8.6c-2.6,0.5-5.2-1.2-5.7-3.9l-8.6-44.5
				c-0.5-2.6,1.2-5.2,3.9-5.7l44.5-8.6c2.6-0.5,5.2,1.2,5.7,3.9L162.6,140.3z"/>
		</g>
		<g>
			<path class="st23" d="M157.7,139.5c0.2,1.1-0.5,2.1-1.5,2.3l-41.1,7.9c-1.1,0.2-2.1-0.5-2.3-1.5l-7.9-41.1
				c-0.2-1.1,0.5-2.1,1.5-2.3l41.1-7.9c1.1-0.2,2.1,0.5,2.3,1.5L157.7,139.5z"/>
		</g>
	</g>
</g>
</svg>
